<ttFont>
        <CharString name=".notdef">
          -164 0 50 600 50 hstem
          0 50 400 50 vstem
          0 vmoveto
          500 700 -500 hlineto
          250 -305 rmoveto
          -170 255 rlineto
          340 hlineto
          -140 -300 rmoveto
          170 255 rlineto
          -510 vlineto
          -370 -45 rmoveto
          170 255 170 -255 rlineto
          -370 555 rmoveto
          170 -255 -170 -255 rlineto
          endchar
        </CharString>
        <CharString name="A">
          106 21 -21 129 135 436 -20 hstem
          -5 780 vstem
          535 129 rmoveto
          50 -129 rlineto
          190 hlineto
          -295 700 rlineto
          -183 hlineto
          -302 -700 rlineto
          183 hlineto
          51 129 rlineto
          254 135 rmoveto
          -202 hlineto
          102 259 rlineto
          endchar
        </CharString>
        <CharString name="AE">
          438 0 140 8 128 6 139 139 141 -137 137 hstemhm
          498 177 hintmask 10110100
          1057 140 rmoveto
          -382 142 335 139 -335 139 371 141 -548 -1 -105 hlineto
          -398 -700 rlineto
          185 hlineto
          hintmask 11010100
          78 148 rlineto
          240 hlineto
          hintmask 10110100
          -148 559 vlineto
          hintmask 11001100
          -559 276 rmoveto
          -172 hlineto
          152 288 rlineto
          20 hlineto
          endchar
        </CharString>
        <CharString name="Aacute">
          106 21 -21 129 135 436 -20 hstem
          -5 780 vstem
          431 761 rmoveto
          130 113 -156 55 -106 -168 rlineto
          236 -632 rmoveto
          50 -129 rlineto
          190 hlineto
          -295 700 rlineto
          -183 hlineto
          -302 -700 rlineto
          183 hlineto
          51 129 rlineto
          254 135 rmoveto
          -202 hlineto
          102 259 rlineto
          endchar
        </CharString>
        <CharString name="Abreve">
          106 21 -21 129 135 436 -20 82 158 hstem
          221 108 112 108 vstem
          385 762 rmoveto
          94 65 62 96 5 hvcurveto
          -108 hlineto
          -34 -3 -22 -24 -31 hhcurveto
          -31 -22 24 34 -3 hvcurveto
          -108 hlineto
          -96 5 65 -62 94 hhcurveto
          150 -633 rmoveto
          50 -129 rlineto
          190 hlineto
          -295 700 rlineto
          -183 hlineto
          -302 -700 rlineto
          183 hlineto
          51 129 rlineto
          254 135 rmoveto
          -202 hlineto
          102 259 rlineto
          endchar
        </CharString>
        <CharString name="Acircumflex">
          106 21 -21 129 135 436 -20 91 151 hstem
          -5 780 vstem
          327 771 rmoveto
          58 85 58 -85 rlineto
          124 hlineto
          -113 151 rlineto
          -138 hlineto
          -113 -151 rlineto
          332 -642 rmoveto
          50 -129 rlineto
          190 hlineto
          -295 700 rlineto
          -183 hlineto
          -302 -700 rlineto
          183 hlineto
          51 129 rlineto
          254 135 rmoveto
          -202 hlineto
          102 259 rlineto
          endchar
        </CharString>
        <CharString name="Adieresis">
          106 21 -21 129 135 436 -20 95 155 hstem
          211 156 37 156 vstem
          289 775 rmoveto
          45 33 32 45 46 -33 32 -45 -45 -33 -32 -46 -45 33 -32 45 hvcurveto
          193 hmoveto
          45 33 32 45 46 -33 32 -45 -45 -33 -32 -46 -45 33 -32 45 hvcurveto
          53 -646 rmoveto
          50 -129 rlineto
          190 hlineto
          -295 700 rlineto
          -183 hlineto
          -302 -700 rlineto
          183 hlineto
          51 129 rlineto
          254 135 rmoveto
          -202 hlineto
          102 259 rlineto
          endchar
        </CharString>
        <CharString name="Agrave">
          106 21 -21 129 135 436 -20 hstem
          -5 780 vstem
          341 761 rmoveto
          132 hlineto
          -106 168 -156 -55 rlineto
          324 -745 rmoveto
          50 -129 rlineto
          190 hlineto
          -295 700 rlineto
          -183 hlineto
          -302 -700 rlineto
          183 hlineto
          51 129 rlineto
          254 135 rmoveto
          -202 hlineto
          102 259 rlineto
          endchar
        </CharString>
        <CharString name="Amacron">
          106 21 -21 129 135 436 -20 113 116 hstem
          246 278 vstem
          524 793 rmoveto
          116 -278 -116 vlineto
          289 -664 rmoveto
          50 -129 rlineto
          190 hlineto
          -295 700 rlineto
          -183 hlineto
          -302 -700 rlineto
          183 hlineto
          51 129 rlineto
          254 135 rmoveto
          -202 hlineto
          102 259 rlineto
          endchar
        </CharString>
        <CharString name="Aogonek">
          106 -203 87 -66 -21 224 -21 129 135 437 -20 hstemhm
          593 88 hintmask 01111100
          775 hmoveto
          -295 701 rlineto
          -183 hlineto
          -302 -701 rlineto
          183 hlineto
          52 129 rlineto
          305 hlineto
          51 -129 rlineto
          55 hlineto
          -28 -42 -20 -39 -39 vvcurveto
          -62 48 -21 40 44 39 24 43 25 vhcurveto
          hintmask 10111100
          -44 51 rlineto
          -19 -13 -14 -12 -16 hhcurveto
          -13 -8 8 16 19 15 32 28 41 hvcurveto
          -443 264 rmoveto
          103 259 101 -259 rlineto
          endchar
        </CharString>
        <CharString name="Aring">
          106 21 -21 129 135 558 73 hstem
          260 74 109 74 vstem
          535 129 rmoveto
          50 -129 rlineto
          190 hlineto
          -289 685 rlineto
          20 22 11 29 32 vvcurveto
          70 -57 57 -72 -71 -57 -57 -70 -32 11 -29 19 -22 vhcurveto
          -295 -685 rlineto
          183 hlineto
          51 129 rlineto
          159 693 rmoveto
          31 24 -24 -30 -30 -24 -24 -31 -30 -24 24 30 30 24 24 30 hvcurveto
          95 -558 rmoveto
          -202 hlineto
          102 259 rlineto
          endchar
        </CharString>
        <CharString name="Atilde">
          106 21 -21 129 135 436 -20 98 155 -151 156 hstemhm
          207 106 145 105 hintmask 11101110
          343 825 rmoveto
          hintmask 11110110
          29 26 -47 61 hhcurveto
          70 34 50 105 hvcurveto
          -105 hlineto
          -28 -10 -14 -21 vhcurveto
          hintmask 11101110
          -28 -28 47 -59 hhcurveto
          -70 -35 -51 -105 hvcurveto
          106 hlineto
          29 10 14 20 vhcurveto
          192 -696 rmoveto
          50 -129 rlineto
          190 hlineto
          -295 700 rlineto
          -183 hlineto
          -302 -700 rlineto
          183 hlineto
          51 129 rlineto
          254 135 rmoveto
          -202 hlineto
          102 259 rlineto
          endchar
        </CharString>
        <CharString name="B">
          51 0 137 155 128 144 136 hstemhm
          70 177 229 182 -160 184 hintmask 11110100
          70 700 rmoveto
          -700 343 vlineto
          165 104 75 119 91 -56 69 -88 17 hvcurveto
          hintmask 11111000
          74 21 46 59 74 vvcurveto
          107 -100 68 -157 vhcurveto
          -154 -136 rmoveto
          144 hlineto
          52 33 -26 -45 -45 -33 -28 -52 hvcurveto
          -144 hlineto
          -128 vmoveto
          144 hlineto
          hintmask 11110100
          66 41 -29 -47 -50 -41 -29 -66 hvcurveto
          -144 hlineto
          endchar
        </CharString>
        <CharString name="C">
          28 -8 156 409 149 hstem
          24 182 vstem
          398 706 rmoveto
          -213 -161 -152 -202 -205 157 -155 211 103 111 51 77 75 hvcurveto
          -104 110 rlineto
          -50 -49 -68 -32 -59 hhcurveto
          -111 -84 89 117 115 84 88 111 62 68 -35 -56 46 hvcurveto
          103 122 rlineto
          72 -70 -108 46 -104 hhcurveto
          endchar
        </CharString>
        <CharString name="Cacute">
          28 -8 156 409 149 hstem
          24 182 vstem
          559 874 rmoveto
          -156 55 -106 -168 rlineto
          132 hlineto
          -31 -55 rmoveto
          -213 -161 -152 -202 -205 157 -155 211 103 111 51 77 75 hvcurveto
          -104 110 rlineto
          -50 -49 -68 -32 -59 hhcurveto
          -111 -84 89 117 115 84 88 111 62 68 -35 -56 46 hvcurveto
          103 122 rlineto
          72 -70 -108 46 -104 hhcurveto
          endchar
        </CharString>
        <CharString name="Ccaron">
          28 -8 156 409 149 52 164 hstem
          24 182 vstem
          183 922 rmoveto
          121 -164 rlineto
          150 hlineto
          121 164 rlineto
          -135 hlineto
          -61 -92 -61 92 rlineto
          80 -216 rmoveto
          -213 -161 -152 -202 -205 157 -155 211 103 111 51 77 75 hvcurveto
          -104 110 rlineto
          -50 -49 -68 -32 -59 hhcurveto
          -111 -84 89 117 115 84 88 111 62 68 -35 -56 46 hvcurveto
          103 122 rlineto
          72 -70 -108 46 -104 hhcurveto
          endchar
        </CharString>
        <CharString name="Ccedilla">
          28 -235 82 -30 -21 220 -21 562 149 hstemhm
          24 182 182 97 hintmask 01111100
          577 230 rmoveto
          -50 -49 -68 -32 -59 hhcurveto
          -111 -84 89 117 115 84 88 111 62 68 -35 -56 46 hvcurveto
          103 122 rlineto
          72 -70 -108 46 -104 hhcurveto
          -213 -161 -152 -202 -189 134 -147 186 -21 hvcurveto
          hintmask 10111100
          -38 -79 rlineto
          2 12 14 2 10 hhcurveto
          30 16 -16 -20 -20 -16 -17 -26 -17 -19 8 12 -13 hvcurveto
          hintmask 01111100
          -32 -71 rlineto
          hintmask 10111100
          -19 28 36 -12 31 hhcurveto
          73 52 40 63 41 -27 29 -41 11 hvcurveto
          24 47 88 13 89 46 63 65 rlinecurve
          endchar
        </CharString>
        <CharString name="D">
          103 0 142 416 142 hstem
          70 178 314 181 vstem
          70 700 rmoveto
          -700 294 vlineto
          225 154 143 207 208 -152 142 -220 hvcurveto
          -123 -142 rmoveto
          119 hlineto
          113 82 -85 -124 -123 -78 -84 -109 hvcurveto
          -127 hlineto
          endchar
        </CharString>
        <CharString name="Dcaron">
          103 0 142 416 142 58 164 hstem
          70 178 314 181 vstem
          158 922 rmoveto
          121 -164 rlineto
          150 hlineto
          121 164 rlineto
          -135 hlineto
          -61 -92 -61 92 rlineto
          -223 -222 rmoveto
          -700 294 vlineto
          225 154 143 207 208 -152 142 -220 hvcurveto
          -123 -142 rmoveto
          119 hlineto
          113 82 -85 -124 -123 -78 -84 -109 hvcurveto
          -127 hlineto
          endchar
        </CharString>
        <CharString name="Dcroat">
          103 0 142 416 142 93 116 hstemhm
          70 178 -29 278 65 181 hintmask 00000000
          hintmask 11101100
          497 793 rmoveto
          116 -278 -116 vlineto
          hintmask 11110100
          -149 -93 rmoveto
          -700 294 vlineto
          225 154 143 207 208 -152 142 -220 hvcurveto
          -123 -142 rmoveto
          119 hlineto
          113 82 -85 -124 -123 -78 -84 -109 hvcurveto
          -127 hlineto
          endchar
        </CharString>
        <CharString name="Delta">
          106 0 129 571 -20 hstem
          -5 780 vstem
          775 hmoveto
          -295 700 rlineto
          -183 hlineto
          -302 -700 rlineto
          541 129 rmoveto
          -307 hlineto
          154 394 rlineto
          endchar
        </CharString>
        <CharString name="E">
          10 0 140 141 140 139 140 hstem
          70 178 vstem
          618 560 rmoveto
          140 -548 -700 559 140 -381 141 334 140 -334 139 vlineto
          endchar
        </CharString>
        <CharString name="Eacute">
          10 0 140 141 140 139 140 hstem
          70 178 vstem
          522 874 rmoveto
          -156 55 -106 -168 rlineto
          132 hlineto
          226 -201 rmoveto
          140 -548 -700 559 140 -381 141 334 140 -334 139 vlineto
          endchar
        </CharString>
        <CharString name="Ecaron">
          10 0 140 141 140 139 140 58 164 hstem
          70 178 vstem
          146 922 rmoveto
          121 -164 rlineto
          150 hlineto
          121 164 rlineto
          -135 hlineto
          -61 -92 -61 92 rlineto
          337 -362 rmoveto
          140 -548 -700 559 140 -381 141 334 140 -334 139 vlineto
          endchar
        </CharString>
        <CharString name="Ecircumflex">
          10 0 140 141 140 139 140 71 151 hstem
          70 178 vstem
          528 771 rmoveto
          -113 151 rlineto
          -138 hlineto
          -113 -151 rlineto
          124 hlineto
          58 85 58 -85 rlineto
          214 -211 rmoveto
          140 -548 -700 559 140 -381 141 334 140 -334 139 vlineto
          endchar
        </CharString>
        <CharString name="Edieresis">
          10 0 140 141 140 139 140 75 155 hstemhm
          70 178 -76 156 37 156 hintmask 00000000
          hintmask 11110110
          250 930 rmoveto
          -45 -33 -32 -46 -45 33 -32 45 45 33 32 45 46 -33 32 -45 hvcurveto
          193 hmoveto
          -45 -33 -32 -46 -45 33 -32 45 45 33 32 45 46 -33 32 -45 hvcurveto
          175 -370 rmoveto
          140 vlineto
          hintmask 11101000
          -548 -700 559 140 -381 141 334 140 -334 139 hlineto
          endchar
        </CharString>
        <CharString name="Edotaccent">
          10 0 140 141 140 139 140 63 183 hstemhm
          70 178 7 182 hintmask 00000000
          hintmask 11110100
          346 946 rmoveto
          -53 -38 -38 -53 -54 38 -38 53 53 38 38 54 53 -38 38 -53 hvcurveto
          272 -386 rmoveto
          140 vlineto
          hintmask 11101000
          -548 -700 559 140 -381 141 334 140 -334 139 hlineto
          endchar
        </CharString>
        <CharString name="Egrave">
          10 0 140 141 140 139 140 hstem
          70 178 vstem
          434 761 rmoveto
          -106 168 -156 -55 130 -113 rlineto
          316 -201 rmoveto
          140 -548 -700 559 140 -381 141 334 140 -334 139 vlineto
          endchar
        </CharString>
        <CharString name="Emacron">
          10 0 140 141 140 139 140 93 116 hstemhm
          70 178 -41 278 hintmask 00000000
          hintmask 11110100
          485 793 rmoveto
          116 -278 -116 vlineto
          411 -233 rmoveto
          140 vlineto
          hintmask 11111000
          -548 -700 559 140 -381 141 334 140 -334 139 hlineto
          endchar
        </CharString>
        <CharString name="Eogonek">
          14 -203 87 -66 -21 203 136 149 136 143 136 hstemhm
          70 178 184 87 hintmask 01111110
          623 564 rmoveto
          136 -553 -700 409 vlineto
          -29 -43 -18 -38 -39 vvcurveto
          -62 47 -21 40 44 39 24 43 26 vhcurveto
          hintmask 10111110
          -45 51 rlineto
          -19 -13 -14 -12 -16 hhcurveto
          -12 -9 8 16 19 14 31 29 42 hvcurveto
          71 136 -385 149 339 136 -339 143 hlineto
          endchar
        </CharString>
        <CharString name="Eth">
          135 0 142 162 94 160 142 hstem
          102 177 315 181 vstem
          102 700 rmoveto
          -302 -102 -94 102 -304 294 vlineto
          225 154 143 207 208 -152 142 -220 hvcurveto
          -124 -558 rmoveto
          162 159 94 -159 160 120 vlineto
          113 82 -85 -124 -123 -78 -84 -109 hvcurveto
          endchar
        </CharString>
        <CharString name="Euro">
          118 -8 156 91 75 73 75 95 149 hstem
          115 180 vstem
          667 230 rmoveto
          -50 -50 -67 -32 -60 hhcurveto
          -69 -60 35 56 -34 hvcurveto
          223 75 -252 hlineto
          -2 13 -1 13 14 vvcurveto
          11 1 11 1 11 vhcurveto
          253 75 -226 hlineto
          58 33 61 37 72 hhcurveto
          63 67 -35 -56 47 hvcurveto
          102 122 rlineto
          72 -69 -109 46 -103 hhcurveto
          -173 -138 -99 -145 -47 hvcurveto
          -102 -75 87 hlineto
          -1 -11 -1 -12 0 -12 0 -13 1 -13 -12 flex1
          -87 -75 102 hlineto
          -146 46 136 -101 169 hhcurveto
          104 111 51 77 74 hvcurveto
          endchar
        </CharString>
        <CharString name="F">
          -60 21 -21 258 140 162 140 hstem
          70 178 vstem
          589 560 rmoveto
          140 -519 -700 178 258 314 140 -314 162 vlineto
          endchar
        </CharString>
        <CharString name="G">
          79 -8 149 416 149 -104 -20 hstemhm
          24 182 329 154 hintmask 11011000
          535 356 rmoveto
          -181 vlineto
          -21 -42 -46 -13 -36 hhcurveto
          -116 -89 90 119 117 88 90 115 65 71 -29 -47 51 hvcurveto
          hintmask 10111000
          100 121 rlineto
          hintmask 11011000
          64 -72 -110 40 -104 hhcurveto
          -221 -165 -153 -203 -204 161 -154 213 98 118 38 53 75 hvcurveto
          273 vlineto
          endchar
        </CharString>
        <CharString name="Gbreve">
          79 -8 149 416 149 -104 -20 180 158 hstemhm
          24 182 22 108 112 108 -21 154 hintmask 00000000
          hintmask 11011110
          392 762 rmoveto
          94 65 62 96 5 hvcurveto
          -108 hlineto
          -34 -3 -22 -24 -31 hhcurveto
          -31 -22 24 34 -3 hvcurveto
          -108 hlineto
          -96 5 65 -62 94 hhcurveto
          hintmask 11011001
          143 -406 rmoveto
          -181 vlineto
          -21 -42 -46 -13 -36 hhcurveto
          -116 -89 90 119 117 88 90 115 65 71 -29 -47 51 hvcurveto
          hintmask 10111001
          100 121 rlineto
          hintmask 11011001
          64 -72 -110 40 -104 hhcurveto
          -221 -165 -153 -203 -204 161 -154 213 98 118 38 53 75 hvcurveto
          273 vlineto
          endchar
        </CharString>
        <CharString name="Gcommaaccent">
          79 -8 149 416 149 -104 -20 hstemhm
          24 182 109 165 55 154 hintmask 11010100
          535 356 rmoveto
          -181 vlineto
          -21 -42 -46 -13 -36 hhcurveto
          -116 -89 90 119 117 88 90 115 65 71 -29 -47 51 hvcurveto
          hintmask 10110100
          100 121 rlineto
          hintmask 11011100
          64 -72 -110 40 -104 hhcurveto
          -221 -165 -153 -203 -204 161 -154 213 98 118 38 53 75 hvcurveto
          273 vlineto
          -291 -397 rmoveto
          -48 -35 -34 -49 -26 10 -23 23 -16 hvcurveto
          -45 -106 rlineto
          82 hlineto
          73 106 rlineto
          13 19 9 22 25 vvcurveto
          53 -38 29 -44 vhcurveto
          endchar
        </CharString>
        <CharString name="H">
          122 21 -21 272 140 288 -20 hstem
          70 178 290 178 vstem
          716 hmoveto
          700 -178 -288 -290 288 -178 -700 178 272 290 -272 vlineto
          endchar
        </CharString>
        <CharString name="I">
          -346 21 -21 700 -20 hstem
          70 178 vstem
          248 hmoveto
          700 -178 -700 vlineto
          endchar
        </CharString>
        <CharString name="IJ">
          189 -8 153 -124 -21 557 144 hstemhm
          70 178 369 179 hintmask 10111000
          796 701 rmoveto
          -419 -144 240 -326 hlineto
          -57 -28 -29 -47 -41 -56 26 52 -50 vhcurveto
          -82 -119 rlineto
          -71 62 80 -41 99 hhcurveto
          149 93 86 149 hvcurveto
          hintmask 01111000
          -548 -227 rmoveto
          700 -178 -700 vlineto
          endchar
        </CharString>
        <CharString name="Iacute">
          -346 21 -21 700 -20 hstem
          70 178 vstem
          334 874 rmoveto
          -156 55 -106 -168 rlineto
          132 hlineto
          44 -761 rmoveto
          700 -178 -700 vlineto
          endchar
        </CharString>
        <CharString name="Icircumflex">
          -346 21 -21 700 -20 91 151 hstem
          70 178 vstem
          341 771 rmoveto
          -113 151 rlineto
          -138 hlineto
          -113 -151 rlineto
          124 hlineto
          58 85 58 -85 rlineto
          31 -771 rmoveto
          700 -178 -700 vlineto
          endchar
        </CharString>
        <CharString name="Idieresis">
          -346 21 -21 700 -20 95 155 hstemhm
          -15 156 -71 178 -70 156 hintmask 11101000
          63 930 rmoveto
          hintmask 11110000
          -45 -33 -32 -46 -45 33 -32 45 hvcurveto
          hintmask 11101000
          45 33 32 45 46 -33 32 -45 hvcurveto
          193 hmoveto
          -45 -33 -32 -46 -45 33 -32 45 hvcurveto
          hintmask 11100100
          45 33 32 45 hvcurveto
          hintmask 11101000
          46 -33 32 -45 vhcurveto
          -8 -930 rmoveto
          700 -178 -700 vlineto
          endchar
        </CharString>
        <CharString name="Idotaccent">
          -346 21 -21 700 -20 83 183 hstem
          70 178 vstem
          159 946 rmoveto
          -53 -38 -38 -53 -54 38 -38 53 53 38 38 54 53 -38 38 -53 hvcurveto
          89 -946 rmoveto
          700 -178 -700 vlineto
          endchar
        </CharString>
        <CharString name="Igrave">
          -346 21 -21 700 -20 hstem
          70 178 vstem
          247 761 rmoveto
          -106 168 -156 -55 130 -113 rlineto
          133 -761 rmoveto
          700 -178 -700 vlineto
          endchar
        </CharString>
        <CharString name="Imacron">
          -346 21 -21 700 -20 113 116 hstem
          70 178 vstem
          298 793 rmoveto
          116 -278 -116 vlineto
          228 -793 rmoveto
          700 -178 -700 vlineto
          endchar
        </CharString>
        <CharString name="Iogonek">
          -346 -203 87 -66 -21 224 -21 701 -20 hstemhm
          70 178 -169 87 hintmask 00000000
          hintmask 10111000
          231 -85 rmoveto
          -19 -13 -15 -12 -16 hhcurveto
          -12 -9 8 16 19 16 32 28 41 hvcurveto
          38 701 -178 -701 hlineto
          hintmask 01110100
          56 hlineto
          -28 -42 -19 -39 -39 vvcurveto
          -62 48 -21 40 43 40 24 43 25 vhcurveto
          endchar
        </CharString>
        <CharString name="Itilde">
          -346 21 -21 700 -20 98 155 -151 156 hstemhm
          -19 106 -17 178 -16 105 hintmask 00000000
          hintmask 11011000
          86 938 rmoveto
          -70 -35 -51 -105 hvcurveto
          106 hlineto
          29 10 14 20 vhcurveto
          hintmask 11100010
          29 26 -47 61 hhcurveto
          70 34 50 105 hvcurveto
          -105 hlineto
          -28 -10 -14 -21 vhcurveto
          hintmask 11011000
          -28 -28 47 -59 hhcurveto
          hintmask 11100100
          162 -938 rmoveto
          700 -178 -700 vlineto
          endchar
        </CharString>
        <CharString name="J">
          -128 -8 153 412 144 hstem
          299 179 vstem
          478 701 rmoveto
          -419 -144 240 -326 hlineto
          -57 -28 -29 -47 -41 -56 26 52 -50 vhcurveto
          -82 -119 rlineto
          -71 62 80 -41 99 hhcurveto
          149 93 86 149 hvcurveto
          endchar
        </CharString>
        <CharString name="Jcircumflex">
          -128 -8 153 412 144 70 151 hstem
          299 179 vstem
          448 771 rmoveto
          -113 151 rlineto
          -138 hlineto
          -113 -151 rlineto
          124 hlineto
          58 85 58 -85 rlineto
          154 -70 rmoveto
          -419 -144 240 -326 hlineto
          -57 -28 -29 -47 -41 -56 26 52 -50 vhcurveto
          -82 -119 rlineto
          -71 62 80 -41 99 hhcurveto
          149 93 86 149 hvcurveto
          endchar
        </CharString>
        <CharString name="K">
          83 21 -21 700 -20 hstem
          70 178 vstem
          526 hmoveto
          213 hlineto
          -277 410 260 290 rlineto
          -206 hlineto
          -268 -303 rlineto
          303 -178 -700 178 172 vlineto
          93 103 rlineto
          endchar
        </CharString>
        <CharString name="Kcommaaccent">
          83 21 -21 700 -20 hstem
          70 178 39 165 vstem
          739 hmoveto
          -277 410 260 290 rlineto
          -206 hlineto
          -268 -303 rlineto
          303 -178 -700 178 172 vlineto
          93 103 185 -275 rlineto
          -156 -41 rmoveto
          -48 -35 -34 -49 -26 10 -23 23 -16 hvcurveto
          -45 -106 rlineto
          82 hlineto
          73 106 rlineto
          13 19 9 22 25 vvcurveto
          53 -38 29 -44 vhcurveto
          endchar
        </CharString>
        <CharString name="L">
          -104 0 149 551 -20 hstem
          70 178 vstem
          248 149 rmoveto
          551 -178 -700 475 149 vlineto
          endchar
        </CharString>
        <CharString name="Lacute">
          -104 0 149 551 -20 hstem
          70 178 vstem
          331 874 rmoveto
          -156 55 -106 -168 rlineto
          132 hlineto
          47 -612 rmoveto
          551 -178 -700 475 149 vlineto
          endchar
        </CharString>
        <CharString name="Lcaron">
          -104 0 149 551 -20 hstem
          70 178 120 165 vstem
          545 149 rmoveto
          -297 551 -178 -700 475 hlineto
          -189 415 rmoveto
          82 hlineto
          73 106 rlineto
          13 20 9 21 25 vvcurveto
          53 -38 29 -44 -48 -35 -34 -48 -26 10 -24 23 -15 vhcurveto
          endchar
        </CharString>
        <CharString name="Lcommaaccent">
          -104 0 149 551 -20 hstemhm
          70 178 -34 165 hintmask 11100000
          545 149 rmoveto
          -297 551 -178 -700 475 hlineto
          hintmask 11010000
          -248 -41 rmoveto
          -48 -35 -34 -49 -26 10 -23 23 -16 hvcurveto
          -45 -106 rlineto
          82 hlineto
          73 106 rlineto
          13 19 9 22 25 vvcurveto
          53 -38 29 -44 vhcurveto
          endchar
        </CharString>
        <CharString name="Ldot">
          -104 0 149 249 164 138 -20 hstem
          70 178 84 164 vstem
          248 149 rmoveto
          551 -178 -700 475 149 vlineto
          -132 413 rmoveto
          -47 -34 -34 -48 -48 34 -34 47 48 35 34 48 48 -35 34 -48 hvcurveto
          endchar
        </CharString>
        <CharString name="Lslash">
          -84 0 149 390 -20 181 -20 hstem
          89 178 vstem
          564 149 rmoveto
          -297 235 hlineto
          173 50 -29 105 -144 -42 rlineto
          203 -178 -254 vlineto
          -102 -30 29 -104 73 21 rlineto
          -333 475 vlineto
          endchar
        </CharString>
        <CharString name="M">
          246 21 -21 701 -20 hstem
          70 159 452.5 157.5 vstem
          839 hmoveto
          701 -194 vlineto
          -190 -417 -190 417 rlineto
          -195 -701 159 455 hlineto
          168 -385 rlineto
          116 hlineto
          168 385 1 -455 rlineto
          endchar
        </CharString>
        <CharString name="N">
          122 21 -21 700 -20 hstem
          70 167 313 166 vstem
          716 hmoveto
          700 -166 -432 vlineto
          -323 432 rlineto
          -157 -700 167 431 hlineto
          322 -431 rlineto
          endchar
        </CharString>
        <CharString name="Nacute">
          122 21 -21 700 -20 hstem
          70 167 313 166 vstem
          569 874 rmoveto
          -156 55 -106 -168 rlineto
          132 hlineto
          277 -761 rmoveto
          700 -166 -432 vlineto
          -323 432 rlineto
          -157 -700 167 431 hlineto
          322 -431 rlineto
          endchar
        </CharString>
        <CharString name="Ncaron">
          122 21 -21 700 -20 78 164 hstem
          70 167 313 166 vstem
          193 922 rmoveto
          121 -164 rlineto
          150 hlineto
          121 164 rlineto
          -135 hlineto
          -61 -92 -61 92 rlineto
          388 -922 rmoveto
          700 -166 -432 vlineto
          -323 432 rlineto
          -157 -700 167 431 hlineto
          322 -431 rlineto
          endchar
        </CharString>
        <CharString name="Ncommaaccent">
          122 21 -21 700 -20 hstem
          70 167 80 165 68 166 vstem
          716 700 rmoveto
          -166 -432 hlineto
          -323 432 rlineto
          -157 -700 167 431 hlineto
          322 -431 rlineto
          157 hlineto
          -316 -41 rmoveto
          -48 -35 -34 -49 -26 10 -23 23 -16 hvcurveto
          -45 -106 rlineto
          82 hlineto
          73 106 rlineto
          13 19 9 22 25 vvcurveto
          53 -38 29 -44 vhcurveto
          endchar
        </CharString>
        <CharString name="Ntilde">
          122 21 -21 700 -20 98 155 -151 156 hstemhm
          70 167 -22 106 145 105 -21 166 hintmask 00000000
          hintmask 11010101
          320 938 rmoveto
          -70 -35 -51 -105 hvcurveto
          106 hlineto
          29 10 14 20 vhcurveto
          hintmask 11101010
          29 26 -47 61 hhcurveto
          70 34 50 105 hvcurveto
          -105 hlineto
          -28 -10 -14 -21 vhcurveto
          hintmask 11010101
          -28 -28 47 -59 hhcurveto
          hintmask 11101001
          396 -938 rmoveto
          700 -166 -432 vlineto
          -323 432 rlineto
          -157 -700 167 431 hlineto
          322 -431 rlineto
          endchar
        </CharString>
        <CharString name="O">
          141 -8 149 416 149 hstem
          24 182 392 183 vstem
          402 706 rmoveto
          -216 -162 -151 -204 -205 162 -154 216 217 162 155 204 203 -162 152 -217 hvcurveto
          2 -149 rmoveto
          108 86 -89 -118 -118 -86 -91 -108 -107 -91 91 118 118 90 89 108 hvcurveto
          endchar
        </CharString>
        <CharString name="OE">
          449 0 140 -140 143 139 139 133 147 -141 141 hstemhm
          24 182 303 178 hintmask 10101110
          1068 140 rmoveto
          -381 142 334 139 -334 139 371 141 -657 hlineto
          -216 -161 -152 -200 -200 163 -149 214 hvcurveto
          667 hlineto
          hintmask 01110110
          -559 144 rmoveto
          -107 -1 rlineto
          -112 -84 88 117 118 84 88 112 hvcurveto
          107 hlineto
          endchar
        </CharString>
        <CharString name="Oacute">
          141 -8 149 416 149 hstem
          24 182 392 183 vstem
          570 874 rmoveto
          -156 55 -106 -168 rlineto
          132 hlineto
          -38 -55 rmoveto
          -216 -162 -151 -204 -205 162 -154 216 217 162 155 204 203 -162 152 -217 hvcurveto
          2 -149 rmoveto
          108 86 -89 -118 -118 -86 -91 -108 -107 -91 91 118 118 90 89 108 hvcurveto
          endchar
        </CharString>
        <CharString name="Ocircumflex">
          141 -8 149 416 149 65 151 hstem
          24 182 392 183 vstem
          577 771 rmoveto
          -113 151 rlineto
          -138 hlineto
          -113 -151 rlineto
          124 hlineto
          58 85 58 -85 rlineto
          -51 -65 rmoveto
          -216 -162 -151 -204 -205 162 -154 216 217 162 155 204 203 -162 152 -217 hvcurveto
          2 -149 rmoveto
          108 86 -89 -118 -118 -86 -91 -108 -107 -91 91 118 118 90 89 108 hvcurveto
          endchar
        </CharString>
        <CharString name="Odieresis">
          141 -8 149 416 149 69 155 hstemhm
          24 182 15 156 37 156 28 183 hintmask 00000000
          hintmask 11111110
          299 930 rmoveto
          -45 -33 -32 -46 -45 33 -32 45 45 33 32 45 46 -33 32 -45 hvcurveto
          193 hmoveto
          -45 -33 -32 -46 -45 33 -32 45 45 33 32 45 46 -33 32 -45 hvcurveto
          hintmask 11110010
          -90 -224 rmoveto
          -216 -162 -151 -204 -205 162 -154 216 217 162 155 204 203 -162 152 -217 hvcurveto
          2 -149 rmoveto
          108 86 -89 -118 -118 -86 -91 -108 -107 -91 91 118 118 90 89 108 hvcurveto
          endchar
        </CharString>
        <CharString name="Ograve">
          141 -8 149 416 149 hstem
          24 182 392 183 vstem
          483 761 rmoveto
          -106 168 -156 -55 130 -113 rlineto
          51 -55 rmoveto
          -216 -162 -151 -204 -205 162 -154 216 217 162 155 204 203 -162 152 -217 hvcurveto
          2 -149 rmoveto
          108 86 -89 -118 -118 -86 -91 -108 -107 -91 91 118 118 90 89 108 hvcurveto
          endchar
        </CharString>
        <CharString name="Ohungarumlaut">
          141 -8 149 416 149 hstem
          24 182 392 183 vstem
          437 883 rmoveto
          -131 48 -85 -171 rlineto
          126 hlineto
          284 123 rmoveto
          -131 48 -85 -171 rlineto
          126 hlineto
          -139 -54 rmoveto
          -216 -162 -151 -204 -205 162 -154 216 217 162 155 204 203 -162 152 -217 hvcurveto
          2 -149 rmoveto
          108 86 -89 -118 -118 -86 -91 -108 -107 -91 91 118 118 90 89 108 hvcurveto
          endchar
        </CharString>
        <CharString name="Omacron">
          141 -8 149 416 149 87 116 hstem
          24 182 50 278 64 183 vstem
          534 793 rmoveto
          116 -278 -116 vlineto
          146 -87 rmoveto
          -216 -162 -151 -204 -205 162 -154 216 217 162 155 204 203 -162 152 -217 hvcurveto
          2 -149 rmoveto
          108 86 -89 -118 -118 -86 -91 -108 -107 -91 91 118 118 90 89 108 hvcurveto
          endchar
        </CharString>
        <CharString name="Omega">
          192 0 139 425 145 hstemhm
          7 350 -289 158 274 349 -218 157 hintmask 11010100
          428 709 rmoveto
          -208 -152 -139 -189 -86 48 -100 67 -56 hvcurveto
          hintmask 11100100
          -176 -139 350 128 hlineto
          hintmask 11010100
          -76 51 -55 101 86 vvcurveto
          115 85 83 117 117 86 -83 -115 -86 -55 -101 -76 -50 vhcurveto
          hintmask 11011000
          -129 349 139 -175 vlineto
          hintmask 11010100
          67 56 47 101 85 vvcurveto
          189 -152 139 -208 vhcurveto
          endchar
        </CharString>
        <CharString name="Oslash">
          141 -8 149 -119 -21 556 149 -4 -20 hstemhm
          24 182 392 183 hintmask 10101100
          596 809 rmoveto
          -100 hlineto
          hintmask 10011100
          -37 -107 rlineto
          hintmask 01101100
          3 -19 -19 1 -19 hhcurveto
          -216 -162 -151 -204 -143 79 -118 121 -58 hvcurveto
          -51 -145 rlineto
          100 hlineto
          40 114 rlineto
          hintmask 10011100
          -6 28 30 -3 31 hhcurveto
          217 162 155 204 153 -92 124 -138 52 hvcurveto
          -345 -330 rmoveto
          hintmask 10101100
          118 90 89 108 vhcurveto
          4 hlineto
          -129 -369 rlineto
          hintmask 10011100
          -44 38 -29 58 66 vvcurveto
          198 -209 rmoveto
          -13 -14 2 2 -13 hvcurveto
          135 387 rlineto
          60 -35 39 -67 -80 vvcurveto
          -118 -86 -91 -108 vhcurveto
          endchar
        </CharString>
        <CharString name="Otilde">
          141 -8 149 416 149 72 155 -151 156 hstemhm
          24 182 11 106 145 105 25 183 hintmask 00000000
          hintmask 11011101
          322 938 rmoveto
          -70 -35 -51 -105 hvcurveto
          106 hlineto
          29 10 14 20 vhcurveto
          hintmask 11101011
          29 26 -47 61 hhcurveto
          70 34 50 105 hvcurveto
          -105 hlineto
          -28 -10 -14 -21 vhcurveto
          hintmask 11011101
          -28 -28 47 -59 hhcurveto
          hintmask 11101001
          80 -232 rmoveto
          -216 -162 -151 -204 -205 162 -154 216 217 162 155 204 203 -162 152 -217 hvcurveto
          2 -149 rmoveto
          108 86 -89 -118 -118 -86 -91 -108 -107 -91 91 118 118 90 89 108 hvcurveto
          endchar
        </CharString>
        <CharString name="P">
          16 21 -21 197 140 223 140 hstem
          70 178 241 168 vstem
          70 700 rmoveto
          -700 178 197 127 vlineto
          179 103 95 164 156 -103 88 -179 hvcurveto
          -127 -140 rmoveto
          118 hlineto
          78 45 -37 -73 -74 -45 -39 -78 hvcurveto
          -118 hlineto
          endchar
        </CharString>
        <CharString name="Q">
          146 -165 134 588 149 hstem
          24 182 392 183 vstem
          753 22 rmoveto
          -33 -43 -45 -20 -32 hhcurveto
          -32 -29 18 30 -24 hvcurveto
          140 52 93 127 155 vvcurveto
          203 -162 152 -217 -216 -162 -151 -204 -201 155 -151 209 -7 vhcurveto
          -97 46 82 -60 97 hhcurveto
          70 79 29 48 54 hvcurveto
          -610 438 rmoveto
          118 90 89 108 108 86 -89 -118 -118 -86 -91 -108 -107 -91 91 118 vhcurveto
          endchar
        </CharString>
        <CharString name="R">
          60 21 -21 197 140 223 140 hstem
          70 178 257 169 vstem
          492 hmoveto
          202 hlineto
          -147 231 rlineto
          82 41 45 77 107 vvcurveto
          156 -106 88 -185 vhcurveto
          -313 -700 178 197 135 hlineto
          5 hlineto
          -140 140 rmoveto
          223 135 vlineto
          77 45 -37 -73 -74 -45 -39 -77 hvcurveto
          endchar
        </CharString>
        <CharString name="Racute">
          60 21 -21 197 140 223 140 hstem
          70 178 257 169 vstem
          409 761 rmoveto
          130 113 -156 55 -106 -168 rlineto
          215 -761 rmoveto
          202 hlineto
          -147 231 rlineto
          82 41 45 77 107 vvcurveto
          156 -106 88 -185 vhcurveto
          -313 -700 178 197 135 hlineto
          5 hlineto
          -140 140 rmoveto
          223 135 vlineto
          77 45 -37 -73 -74 -45 -39 -77 hvcurveto
          endchar
        </CharString>
        <CharString name="Rcaron">
          60 21 -21 197 140 223 140 58 164 hstem
          70 178 257 169 vstem
          284 758 rmoveto
          150 hlineto
          121 164 rlineto
          -135 hlineto
          -61 -92 -61 92 rlineto
          -135 hlineto
          329 -922 rmoveto
          202 hlineto
          -147 231 rlineto
          82 41 45 77 107 vvcurveto
          156 -106 88 -185 vhcurveto
          -313 -700 178 197 135 hlineto
          5 hlineto
          -140 140 rmoveto
          223 135 vlineto
          77 45 -37 -73 -74 -45 -39 -77 hvcurveto
          endchar
        </CharString>
        <CharString name="Rcommaaccent">
          60 21 -21 197 140 223 140 hstem
          70 178 35 165 57 169 vstem
          694 hmoveto
          -147 231 rlineto
          82 41 45 77 107 vvcurveto
          156 -106 88 -185 vhcurveto
          -313 -700 178 197 135 hlineto
          5 hlineto
          104 -197 rlineto
          -244 337 rmoveto
          223 135 vlineto
          77 45 -37 -73 -74 -45 -39 -77 hvcurveto
          -17 -378 rmoveto
          -48 -35 -34 -49 -26 10 -23 23 -16 hvcurveto
          -45 -106 rlineto
          82 hlineto
          73 106 rlineto
          13 19 9 22 25 vvcurveto
          53 -38 29 -44 vhcurveto
          endchar
        </CharString>
        <CharString name="S">
          -20 -6 144 426 144 hstem
          60 187 183 187 vstem
          339 708 rmoveto
          -168 -111 -82 -129 hvcurveto
          -248 370 74 -124 vvcurveto
          -40 -35 -21 -56 -73 -108 42 63 -72 vhcurveto
          -69 -137 rlineto
          -68 83 120 -44 117 hhcurveto
          156 124 74 140 hvcurveto
          253 -370 -69 121 vvcurveto
          34 31 17 46 57 93 -30 -43 74 vhcurveto
          67 139 rlineto
          47 -72 -103 31 -101 hhcurveto
          endchar
        </CharString>
        <CharString name="Sacute">
          -20 -6 144 426 144 hstem
          60 187 183 187 vstem
          515 874 rmoveto
          -156 55 -106 -168 rlineto
          132 hlineto
          -46 -53 rmoveto
          -168 -111 -82 -129 hvcurveto
          -248 370 74 -124 vvcurveto
          -40 -35 -21 -56 -73 -108 42 63 -72 vhcurveto
          -69 -137 rlineto
          -68 83 120 -44 117 hhcurveto
          156 124 74 140 hvcurveto
          253 -370 -69 121 vvcurveto
          34 31 17 46 57 93 -30 -43 74 vhcurveto
          67 139 rlineto
          47 -72 -103 31 -101 hhcurveto
          endchar
        </CharString>
        <CharString name="Scaron">
          -20 -6 144 426 144 50 164 hstem
          60 187 183 187 vstem
          139 922 rmoveto
          121 -164 rlineto
          150 hlineto
          121 164 rlineto
          -135 hlineto
          -61 -92 -61 92 rlineto
          65 -214 rmoveto
          -168 -111 -82 -129 hvcurveto
          -248 370 74 -124 vvcurveto
          -40 -35 -21 -56 -73 -108 42 63 -72 vhcurveto
          -69 -137 rlineto
          -68 83 120 -44 117 hhcurveto
          156 124 74 140 hvcurveto
          253 -370 -69 121 vvcurveto
          34 31 17 46 57 93 -30 -43 74 vhcurveto
          67 139 rlineto
          47 -72 -103 31 -101 hhcurveto
          endchar
        </CharString>
        <CharString name="Scedilla">
          -20 -235 82 -30 -21 199 143 -122 -21 569 144 hstemhm
          60 187 97 97 -11 187 hintmask 01011101
          617 208 rmoveto
          253 -370 -69 121 vvcurveto
          34 31 17 46 57 93 -30 -43 74 vhcurveto
          67 139 rlineto
          47 -72 -103 31 -101 hhcurveto
          -168 -111 -82 -129 hvcurveto
          hintmask 01101101
          -248 370 74 -124 vvcurveto
          -40 -35 -21 -56 -73 -108 42 63 -72 vhcurveto
          -69 -137 rlineto
          hintmask 10011110
          74 -61 104 -41 105 -9 -38 -79 rcurveline
          2 12 14 2 10 hhcurveto
          30 16 -16 -20 -20 -16 -17 -26 -17 -19 8 12 -13 hvcurveto
          hintmask 01011101
          -32 -71 rlineto
          hintmask 10011110
          -19 28 36 -12 31 hhcurveto
          73 52 40 63 41 -27 29 -41 11 hvcurveto
          25 49 rlineto
          hintmask 01011101
          126 17 93 72 121 vvcurveto
          endchar
        </CharString>
        <CharString name="Scommaaccent">
          -20 -6 144 426 144 hstemhm
          60 187 8 165 10 187 hintmask 11101000
          247 513 rmoveto
          34 31 17 46 57 93 -30 -43 74 vhcurveto
          67 139 rlineto
          47 -72 -103 31 -101 hhcurveto
          -168 -111 -82 -129 hvcurveto
          -248 370 74 -124 vvcurveto
          -40 -35 -21 -56 -73 -108 42 63 -72 vhcurveto
          -69 -137 rlineto
          -68 83 120 -44 117 hhcurveto
          156 124 74 140 hvcurveto
          253 -370 -69 121 vvcurveto
          hintmask 11111000
          91 -554 rmoveto
          -48 -35 -34 -49 -26 10 -23 23 -16 hvcurveto
          -45 -106 rlineto
          82 hlineto
          73 106 rlineto
          13 19 9 22 25 vvcurveto
          53 -38 29 -44 vhcurveto
          endchar
        </CharString>
        <CharString name="T">
          -53 21 -21 557 144 hstem
          216 178 vstem
          605 557 rmoveto
          144 -598 -144 209 -557 178 557 vlineto
          endchar
        </CharString>
        <CharString name="Tcaron">
          -53 21 -21 557 144 57 164 hstem
          216 178 vstem
          117 922 rmoveto
          121 -164 rlineto
          150 hlineto
          121 164 rlineto
          -135 hlineto
          -61 -92 -61 92 rlineto
          353 -365 rmoveto
          144 -598 -144 209 -557 178 557 vlineto
          endchar
        </CharString>
        <CharString name="Tcedilla">
          -53 -235 82 -30 -21 225 -21 557 144 hstemhm
          216 178 -88 97 hintmask 01111000
          361 hmoveto
          33 557 211 144 -598 -144 209 -557 48 hlineto
          hintmask 10111000
          -40 -84 rlineto
          2 12 14 2 10 hhcurveto
          30 16 -16 -20 -20 -16 -17 -26 -17 -19 8 12 -13 hvcurveto
          hintmask 01111000
          -32 -71 rlineto
          hintmask 10110100
          -19 28 36 -12 31 hhcurveto
          73 52 40 63 41 -27 29 -41 11 hvcurveto
          endchar
        </CharString>
        <CharString name="Tcommaaccent">
          -53 21 -21 557 144 hstemhm
          216 178 -177 165 hintmask 11100000
          605 701 rmoveto
          -598 -144 209 -557 178 557 211 hlineto
          -305 -598 rmoveto
          hintmask 11010000
          -48 -35 -34 -49 -26 10 -23 23 -16 hvcurveto
          -45 -106 rlineto
          hintmask 11100000
          82 hlineto
          73 106 rlineto
          13 19 9 22 25 vvcurveto
          53 -38 29 -44 vhcurveto
          endchar
        </CharString>
        <CharString name="Thorn">
          25 21 -21 112 136 224 136 92 -20 hstem
          70 178 236 182 vstem
          248 608 rmoveto
          92 -178 -700 178 112 122 vlineto
          185 111 97 158 150 -111 91 -185 hvcurveto
          -122 -360 rmoveto
          224 115 vlineto
          78 43 -40 -70 -73 -43 -41 -78 hvcurveto
          endchar
        </CharString>
        <CharString name="U">
          94 -8 149 559 -20 hstem
          58 178 287 177 vstem
          700 700 rmoveto
          -177 -406 hlineto
          -95 -57 -58 -84 -85 -61 58 95 vhcurveto
          406 -178 -406 vlineto
          -185 126 -117 197 196 123 117 185 vhcurveto
          endchar
        </CharString>
        <CharString name="Uacute">
          94 -8 149 559 -20 hstem
          58 178 287 177 vstem
          555 874 rmoveto
          -156 55 -106 -168 rlineto
          132 hlineto
          275 -61 rmoveto
          -177 -406 hlineto
          -95 -57 -58 -84 -85 -61 58 95 vhcurveto
          406 -178 -406 vlineto
          -185 126 -117 197 196 123 117 185 vhcurveto
          endchar
        </CharString>
        <CharString name="Ucircumflex">
          94 -8 149 559 -20 91 151 hstem
          58 178 287 177 vstem
          562 771 rmoveto
          -113 151 rlineto
          -138 hlineto
          -113 -151 rlineto
          124 hlineto
          58 85 58 -85 rlineto
          262 -71 rmoveto
          -177 -406 hlineto
          -95 -57 -58 -84 -85 -61 58 95 vhcurveto
          406 -178 -406 vlineto
          -185 126 -117 197 196 123 117 185 vhcurveto
          endchar
        </CharString>
        <CharString name="Udieresis">
          94 -8 149 559 -20 95 155 hstemhm
          58 178 -30 156 37 156 -32 177 hintmask 00000000
          hintmask 11101100
          284 930 rmoveto
          -45 -33 -32 -46 -45 33 -32 45 45 33 32 45 46 -33 32 -45 hvcurveto
          193 hmoveto
          -45 -33 -32 -46 -45 33 -32 45 45 33 32 45 46 -33 32 -45 hvcurveto
          hintmask 11110010
          223 -230 rmoveto
          -177 -406 hlineto
          -95 -57 -58 -84 -85 -61 58 95 vhcurveto
          406 -178 -406 vlineto
          -185 126 -117 197 196 123 117 185 vhcurveto
          endchar
        </CharString>
        <CharString name="Ugrave">
          94 -8 149 559 -20 hstem
          58 178 287 177 vstem
          467 761 rmoveto
          -106 168 -156 -55 130 -113 rlineto
          365 -61 rmoveto
          -177 -406 hlineto
          -95 -57 -58 -84 -85 -61 58 95 vhcurveto
          406 -178 -406 vlineto
          -185 126 -117 197 196 123 117 185 vhcurveto
          endchar
        </CharString>
        <CharString name="Uhungarumlaut">
          94 -8 149 559 -20 hstem
          58 178 287 177 vstem
          422 883 rmoveto
          -131 48 -85 -171 rlineto
          126 hlineto
          284 123 rmoveto
          -131 48 -85 -171 rlineto
          126 hlineto
          174 -60 rmoveto
          -177 -406 hlineto
          -95 -57 -58 -84 -85 -61 58 95 vhcurveto
          406 -178 -406 vlineto
          -185 126 -117 197 196 123 117 185 vhcurveto
          endchar
        </CharString>
        <CharString name="Umacron">
          94 -8 149 559 -20 113 116 hstemhm
          58 178 4 278 5 177 hintmask 00000000
          hintmask 11101000
          518 793 rmoveto
          116 -278 -116 vlineto
          hintmask 11110100
          460 -93 rmoveto
          -177 -406 hlineto
          -95 -57 -58 -84 -85 -61 58 95 vhcurveto
          406 -178 -406 vlineto
          -185 126 -117 197 196 123 117 185 vhcurveto
          endchar
        </CharString>
        <CharString name="Uogonek">
          95 -203 87 -66 -21 195 149 560 -20 hstemhm
          58 177 132 88 68 178 hintmask 01111110
          701 701 rmoveto
          -178 -407 hlineto
          -96 -57 -57 -84 -85 -62 58 95 vhcurveto
          407 -177 -407 vlineto
          -185 126 -117 197 vhcurveto
          29 1 rlineto
          -26 -38 -17 -38 -37 vvcurveto
          -62 48 -21 40 44 39 24 43 25 vhcurveto
          hintmask 10111110
          -44 51 rlineto
          -19 -13 -14 -12 -16 hhcurveto
          -13 -8 8 16 22 19 35 31 45 hvcurveto
          123 40 73 102 142 vvcurveto
          endchar
        </CharString>
        <CharString name="Uring">
          94 -8 149 559 -20 55 68 104 68 hstemhm
          58 178 22 68 106 68 23 177 hintmask 00000000
          hintmask 11111111
          379 975 rmoveto
          -67 -54 -54 -66 -66 54 -54 67 67 54 54 66 66 -54 54 -67 hvcurveto
          -68 vmoveto
          29 24 -24 -28 -29 -24 -23 -29 -29 -24 23 29 28 24 24 29 hvcurveto
          hintmask 11111001
          321 -207 rmoveto
          -177 -406 hlineto
          -95 -57 -58 -84 -85 -61 58 95 vhcurveto
          406 -178 -406 vlineto
          -185 126 -117 197 196 123 117 185 vhcurveto
          endchar
        </CharString>
        <CharString name="V">
          65 21 -21 700 -20 hstem
          -1 731 vstem
          455 hmoveto
          275 700 rlineto
          -183 hlineto
          -179 -515 -179 515 rlineto
          -190 hlineto
          272 -700 rlineto
          endchar
        </CharString>
        <CharString name="W">
          417 0 185 -164 -21 700 -20 hstemhm
          -1 1089 hintmask 01110000
          857 hmoveto
          231 700 rlineto
          -182 hlineto
          hintmask 10110000
          -135 -515 -137 515 rlineto
          -174 hlineto
          -134 -515 -137 515 rlineto
          -190 hlineto
          229 -700 rlineto
          184 hlineto
          132 484 130 -484 rlineto
          endchar
        </CharString>
        <CharString name="Wacute">
          417 0 185 -164 -21 700 -20 hstemhm
          -1 1089 hintmask 01110000
          690 874 rmoveto
          -156 55 -106 -168 rlineto
          132 hlineto
          297 -761 rmoveto
          231 700 rlineto
          -182 hlineto
          hintmask 10110000
          -135 -515 -137 515 rlineto
          -174 hlineto
          -134 -515 -137 515 rlineto
          -190 hlineto
          229 -700 rlineto
          184 hlineto
          132 484 130 -484 rlineto
          endchar
        </CharString>
        <CharString name="Wcircumflex">
          417 0 185 -164 -21 700 -20 91 151 hstemhm
          -1 1089 hintmask 01111000
          696 771 rmoveto
          -113 151 rlineto
          -138 hlineto
          -113 -151 rlineto
          124 hlineto
          58 85 58 -85 rlineto
          285 -771 rmoveto
          231 700 rlineto
          -182 hlineto
          hintmask 10111000
          -135 -515 -137 515 rlineto
          -174 hlineto
          -134 -515 -137 515 rlineto
          -190 hlineto
          229 -700 rlineto
          184 hlineto
          132 484 130 -484 rlineto
          endchar
        </CharString>
        <CharString name="Wdieresis">
          417 0 185 -164 -21 700 -20 95 155 hstemhm
          340 156 37 156 hintmask 01111100
          418 930 rmoveto
          -45 -33 -32 -46 -45 33 -32 45 45 33 32 45 46 -33 32 -45 hvcurveto
          193 hmoveto
          -45 -33 -32 -46 -45 33 -32 45 45 33 32 45 46 -33 32 -45 hvcurveto
          246 -930 rmoveto
          231 700 rlineto
          -182 hlineto
          hintmask 10111100
          -135 -515 -137 515 rlineto
          -174 hlineto
          -134 -515 -137 515 rlineto
          -190 hlineto
          229 -700 rlineto
          184 hlineto
          132 484 130 -484 rlineto
          endchar
        </CharString>
        <CharString name="Wgrave">
          417 0 185 -164 -21 700 -20 hstemhm
          -1 1089 hintmask 01110000
          602 761 rmoveto
          -106 168 -156 -55 130 -113 rlineto
          387 -761 rmoveto
          231 700 rlineto
          -182 hlineto
          hintmask 10110000
          -135 -515 -137 515 rlineto
          -174 hlineto
          -134 -515 -137 515 rlineto
          -190 hlineto
          229 -700 rlineto
          184 hlineto
          132 484 130 -484 rlineto
          endchar
        </CharString>
        <CharString name="X">
          70 21 -21 700 -20 hstem
          5 722 vstem
          476 366 rmoveto
          231 334 rlineto
          -209 hlineto
          -135 -204 -135 204 rlineto
          -207 hlineto
          234 -342 -250 -358 rlineto
          207 hlineto
          151 223 151 -223 rlineto
          213 hlineto
          endchar
        </CharString>
        <CharString name="Y">
          16 21 -21 700 -20 hstem
          254 177 vstem
          431 226 rmoveto
          254 474 rlineto
          -178 hlineto
          -165 -305 -169 305 rlineto
          -178 hlineto
          259 -479 rlineto
          -221 177 vlineto
          endchar
        </CharString>
        <CharString name="Yacute">
          16 21 -21 700 -20 hstem
          254 177 vstem
          385 761 rmoveto
          130 113 -156 55 -106 -168 rlineto
          178 -535 rmoveto
          254 474 rlineto
          -178 hlineto
          -165 -305 -169 305 rlineto
          -178 hlineto
          259 -479 rlineto
          -221 177 vlineto
          endchar
        </CharString>
        <CharString name="Ycircumflex">
          16 21 -21 700 -20 91 151 hstem
          254 177 vstem
          282 771 rmoveto
          58 85 58 -85 rlineto
          124 hlineto
          -113 151 rlineto
          -138 hlineto
          -113 -151 rlineto
          273 -545 rmoveto
          254 474 rlineto
          -178 hlineto
          -165 -305 -169 305 rlineto
          -178 hlineto
          259 -479 rlineto
          -221 177 vlineto
          endchar
        </CharString>
        <CharString name="Ydieresis">
          16 21 -21 700 -20 95 155 hstemhm
          166 156 -68 177 -72 156 hintmask 00000000
          hintmask 11110100
          244 775 rmoveto
          45 33 32 45 46 -33 32 -45 -45 -33 -32 -46 -45 33 -32 45 hvcurveto
          193 hmoveto
          45 33 32 45 46 -33 32 -45 -45 -33 -32 -46 -45 33 -32 45 hvcurveto
          hintmask 11101000
          -6 -549 rmoveto
          254 474 rlineto
          -178 hlineto
          -165 -305 -169 305 rlineto
          -178 hlineto
          259 -479 rlineto
          -221 177 vlineto
          endchar
        </CharString>
        <CharString name="Ygrave">
          16 21 -21 700 -20 hstem
          254 177 vstem
          296 761 rmoveto
          132 hlineto
          -106 168 -156 -55 rlineto
          265 -648 rmoveto
          254 474 rlineto
          -178 hlineto
          -165 -305 -169 305 rlineto
          -178 hlineto
          259 -479 rlineto
          -221 177 vlineto
          endchar
        </CharString>
        <CharString name="Z">
          11 0 141 418 141 hstem
          28 618 vstem
          640 586 rmoveto
          114 -599 -141 362 vlineto
          -375 -445 rlineto
          -114 618 141 -380 vlineto
          endchar
        </CharString>
        <CharString name="Zacute">
          11 0 141 418 141 hstem
          28 618 vstem
          528 874 rmoveto
          -156 55 -106 -168 rlineto
          132 hlineto
          242 -175 rmoveto
          114 -599 -141 362 vlineto
          -375 -445 rlineto
          -114 618 141 -380 vlineto
          endchar
        </CharString>
        <CharString name="Zcaron">
          11 0 141 418 141 58 164 hstem
          28 618 vstem
          152 922 rmoveto
          121 -164 rlineto
          150 hlineto
          121 164 rlineto
          -135 hlineto
          -61 -92 -61 92 rlineto
          353 -336 rmoveto
          114 -599 -141 362 vlineto
          -375 -445 rlineto
          -114 618 141 -380 vlineto
          endchar
        </CharString>
        <CharString name="Zdotaccent">
          11 0 141 418 141 63 183 hstem
          262 182 vstem
          353 946 rmoveto
          -53 -38 -38 -53 -54 38 -38 53 53 38 38 54 53 -38 38 -53 hvcurveto
          287 -360 rmoveto
          114 -599 -141 362 vlineto
          -375 -445 rlineto
          -114 618 141 -380 vlineto
          endchar
        </CharString>
        <CharString name="a">
          -64 -8 117 -109 109 122 93 93 130 hstemhm
          27 162 187 170 hintmask 10111100
          311 547 rmoveto
          -90 -76 -22 -39 -84 hvcurveto
          49 -114 rlineto
          29 57 59 16 45 hhcurveto
          70 35 -32 -53 hvcurveto
          -8 -142 vlineto
          -134 -1 -73 -60 -102 vvcurveto
          -99 70 -70 115 73 57 24 46 35 vhcurveto
          hintmask 01111100
          -62 169 352 vlineto
          hintmask 10111100
          122 -1 -86 73 -148 hhcurveto
          -46 -438 rmoveto
          -48 -28 25 39 40 26 18 52 hvcurveto
          109 -48 hlineto
          -44 -11 -46 -30 -54 hhcurveto
          endchar
        </CharString>
        <CharString name="aacute">
          -64 -8 117 -109 109 122 93 93 130 hstemhm
          27 162 187 170 hintmask 10111100
          345 600 rmoveto
          130 113 -156 55 -106 -168 rlineto
          98 -53 rmoveto
          -90 -76 -22 -39 -84 hvcurveto
          49 -114 rlineto
          29 57 59 16 45 hhcurveto
          70 35 -32 -53 hvcurveto
          -8 -142 vlineto
          -134 -1 -73 -60 -102 vvcurveto
          -99 70 -70 115 73 57 24 46 35 vhcurveto
          hintmask 01111100
          -62 169 352 vlineto
          hintmask 10111100
          122 -1 -86 73 -148 hhcurveto
          -46 -438 rmoveto
          -48 -28 25 39 40 26 18 52 hvcurveto
          109 -48 hlineto
          -44 -11 -46 -30 -54 hhcurveto
          endchar
        </CharString>
        <CharString name="abreve">
          -64 -8 117 -109 109 122 93 93 130 54 100 -100 158 hstemhm
          27 162 -54 108 112 108 -87 170 hintmask 1011100101000000
          299 601 rmoveto
          hintmask 1011010110000000
          94 65 62 96 5 hvcurveto
          -108 hlineto
          hintmask 1011100110000000
          -34 -3 -22 -24 -31 hhcurveto
          hintmask 1011010101000000
          -31 -22 24 34 -3 hvcurveto
          -108 hlineto
          hintmask 1011100101000000
          -96 5 65 -62 94 hhcurveto
          12 -54 rmoveto
          -90 -76 -22 -39 -84 hvcurveto
          49 -114 rlineto
          29 57 59 16 45 hhcurveto
          70 35 -32 -53 hvcurveto
          -8 -142 vlineto
          hintmask 1011101001000000
          -134 -1 -73 -60 -102 vvcurveto
          -99 70 -70 115 73 57 24 46 35 vhcurveto
          hintmask 0111100101000000
          -62 169 352 vlineto
          hintmask 1011100101000000
          122 -1 -86 73 -148 hhcurveto
          hintmask 1011101001000000
          -46 -438 rmoveto
          -48 -28 25 39 40 26 18 52 hvcurveto
          109 -48 hlineto
          -44 -11 -46 -30 -54 hhcurveto
          endchar
        </CharString>
        <CharString name="acircumflex">
          -64 -8 117 -109 109 122 93 93 130 63 151 hstemhm
          27 162 187 170 hintmask 10111110
          241 610 rmoveto
          58 85 58 -85 rlineto
          124 hlineto
          -113 151 rlineto
          -138 hlineto
          -113 -151 rlineto
          194 -63 rmoveto
          -90 -76 -22 -39 -84 hvcurveto
          49 -114 rlineto
          29 57 59 16 45 hhcurveto
          70 35 -32 -53 hvcurveto
          -8 -142 vlineto
          -134 -1 -73 -60 -102 vvcurveto
          -99 70 -70 115 73 57 24 46 35 vhcurveto
          hintmask 01111110
          -62 169 352 vlineto
          hintmask 10111110
          122 -1 -86 73 -148 hhcurveto
          -46 -438 rmoveto
          -48 -28 25 39 40 26 18 52 hvcurveto
          109 -48 hlineto
          -44 -11 -46 -30 -54 hhcurveto
          endchar
        </CharString>
        <CharString name="acute">
          600 168 hstem
          44 262 vstem
          306 713 rmoveto
          -156 55 -106 -168 rlineto
          132 hlineto
          endchar
        </CharString>
        <CharString name="adieresis">
          -64 -8 117 -109 109 122 93 93 130 67 155 hstemhm
          27 162 -64 156 37 156 -98 170 hintmask 1011101010000000
          203 614 rmoveto
          45 33 32 45 46 -33 32 -45 -45 -33 -32 -46 -45 33 -32 45 hvcurveto
          hintmask 1011101100000000
          193 hmoveto
          45 33 32 45 46 -33 32 -45 -45 -33 -32 -46 -45 33 -32 45 hvcurveto
          hintmask 1011110010000000
          -85 -67 rmoveto
          -90 -76 -22 -39 -84 hvcurveto
          49 -114 rlineto
          29 57 59 16 45 hhcurveto
          70 35 -32 -53 hvcurveto
          -8 -142 vlineto
          -134 -1 -73 -60 -102 vvcurveto
          -99 70 -70 115 73 57 24 46 35 vhcurveto
          hintmask 0111101010000000
          -62 169 352 vlineto
          hintmask 1011110010000000
          122 -1 -86 73 -148 hhcurveto
          -46 -438 rmoveto
          -48 -28 25 39 40 26 18 52 hvcurveto
          109 -48 hlineto
          -44 -11 -46 -30 -54 hhcurveto
          endchar
        </CharString>
        <CharString name="ae">
          302 -8 112 -110 129 109 83 -80 82 100 130 -118 116 hstemhm
          27 162 190 36 354 173 hintmask 0110011110000000
          663 545 rmoveto
          -68 -58 -20 -37 -43 hvcurveto
          hintmask 1001101110000000
          38 -41 -61 21 -80 hhcurveto
          -79 -87 -22 -37 -85 hvcurveto
          40 -116 rlineto
          29 61 62 16 49 hhcurveto
          69 37 -32 -53 hvcurveto
          -15 -144 vlineto
          -133 -1 -75 -56 -101 vvcurveto
          -100 74 -67 122 103 76 41 74 42 vhcurveto
          hintmask 0110011110000000
          -71 43 76 -42 104 hhcurveto
          100 80 34 61 56 hvcurveto
          -91 89 rlineto
          -36 -36 -46 -19 -48 hhcurveto
          -66 -48 40 69 -14 hvcurveto
          388 hlineto
          189 9 -109 124 -179 hhcurveto
          -111 -230 rmoveto
          67 11 41 47 60 hhcurveto
          63 42 -48 -66 hvcurveto
          hintmask 1001011110000000
          -503 -211 rmoveto
          -47 -30 27 42 40 30 22 51 hvcurveto
          109 -62 hlineto
          -48 -26 -40 -21 -47 hhcurveto
          154 54 rmoveto
          -5 4 5 -1 rlineto
          endchar
        </CharString>
        <CharString name="agrave">
          -64 -8 117 -109 109 122 93 93 130 hstemhm
          27 162 187 170 hintmask 10111100
          255 600 rmoveto
          132 hlineto
          -106 168 -156 -55 rlineto
          186 -166 rmoveto
          -90 -76 -22 -39 -84 hvcurveto
          49 -114 rlineto
          29 57 59 16 45 hhcurveto
          70 35 -32 -53 hvcurveto
          -8 -142 vlineto
          -134 -1 -73 -60 -102 vvcurveto
          -99 70 -70 115 73 57 24 46 35 vhcurveto
          hintmask 01111100
          -62 169 352 vlineto
          hintmask 10111100
          122 -1 -86 73 -148 hhcurveto
          -46 -438 rmoveto
          -48 -28 25 39 40 26 18 52 hvcurveto
          109 -48 hlineto
          -44 -11 -46 -30 -54 hhcurveto
          endchar
        </CharString>
        <CharString name="amacron">
          -64 -8 117 -109 109 122 93 93 130 85 116 hstemhm
          27 162 -29 278 -62 170 hintmask 00000000
          hintmask 10111010
          438 632 rmoveto
          116 -278 -116 vlineto
          hintmask 10111101
          151 -85 rmoveto
          -90 -76 -22 -39 -84 hvcurveto
          49 -114 rlineto
          29 57 59 16 45 hhcurveto
          70 35 -32 -53 hvcurveto
          -8 -142 vlineto
          -134 -1 -73 -60 -102 vvcurveto
          -99 70 -70 115 73 57 24 46 35 vhcurveto
          hintmask 01111001
          -62 169 352 vlineto
          hintmask 10111101
          122 -1 -86 73 -148 hhcurveto
          -46 -438 rmoveto
          -48 -28 25 39 40 26 18 52 hvcurveto
          109 -48 hlineto
          -44 -11 -46 -30 -54 hhcurveto
          endchar
        </CharString>
        <CharString name="ampersand">
          21 -8 121 498 97 hstemhm
          55 141 -61 135 130 135 hintmask 11101000
          591 -30 rmoveto
          87 85 -104 99 25 36 22 42 17 46 rlinecurve
          -110 78 -12 -41 -16 -38 -19 -33 rlinecurve
          -45 44 -36 38 -30 33 rrcurveto
          84 43 81 51 98 vvcurveto
          92 -82 65 -118 vhcurveto
          hintmask 11011000
          -122 -78 -66 -102 -50 17 -47 42 -60 hvcurveto
          hintmask 11101000
          -74 -41 -65 -52 -94 vvcurveto
          -119 101 -85 137 72 69 26 48 58 vhcurveto
          hintmask 11011000
          -222 474 rmoveto
          41 25 30 42 38 25 -25 -36 -48 -41 -32 -53 -29 vhcurveto
          -25 38 -11 32 29 vvcurveto
          30 -427 rmoveto
          hintmask 11101000
          -59 -45 38 57 39 27 28 38 25 hvcurveto
          37 -42 48 -48 58 -58 rrcurveto
          hintmask 11011000
          -25 -32 -36 -14 -36 hhcurveto
          endchar
        </CharString>
        <CharString name="aogonek">
          -59 -203 87 -66 -21 195 117 -88 -21 231 93 93 130 hstemhm
          27 162 188 87 -85 170 hintmask 0101111010000000
          313 547 rmoveto
          -91 -77 -22 -39 -84 hvcurveto
          49 -114 rlineto
          29 58 59 16 45 hhcurveto
          70 35 -31 -53 2 hvcurveto
          -9 -144 vlineto
          -134 -1 -74 -60 -102 vvcurveto
          hintmask 0110111010000000
          -99 70 -70 116 74 57 24 46 35 vhcurveto
          hintmask 0101111010000000
          -62 vlineto
          hintmask 0101111100000000
          46 hlineto
          -29 -41 -19 -40 -39 vvcurveto
          -62 48 -21 40 43 40 24 43 25 vhcurveto
          hintmask 1001111100000000
          -44 51 rlineto
          -19 -13 -15 -12 -15 hhcurveto
          -13 -9 8 16 19 16 32 28 41 hvcurveto
          hintmask 0101111010000000
          41 352 hlineto
          122 -1 -86 73 -149 hhcurveto
          66 -316 rmoveto
          hintmask 0110111010000000
          -50 vlineto
          -40 -11 -49 -32 -53 hhcurveto
          -48 -29 25 39 40 26 18 53 hvcurveto
          endchar
        </CharString>
        <CharString name="approxequal">
          -154 124 170 -166 170 56 170 -166 170 hstemhm
          56 116 167 115 hintmask 01011100
          169 528 rmoveto
          -76 -37 -55 -115 hvcurveto
          116 hlineto
          31 11 15 21 vhcurveto
          hintmask 01101100
          33 36 -50 68 hhcurveto
          76 37 55 115 hvcurveto
          -115 hlineto
          -31 -11 -15 -22 vhcurveto
          hintmask 01011100
          -32 -38 50 -67 hhcurveto
          -230 vmoveto
          -76 -37 -55 -115 hvcurveto
          116 hlineto
          31 11 15 21 vhcurveto
          hintmask 10011100
          33 36 -50 68 hhcurveto
          76 37 55 115 hvcurveto
          -115 hlineto
          -31 -11 -15 -22 vhcurveto
          hintmask 01011100
          -32 -38 50 -67 hhcurveto
          endchar
        </CharString>
        <CharString name="aring">
          -64 -8 117 -109 109 122 93 93 130 27 68 104 68 hstemhm
          27 162 -11 68 106 68 -44 170 hintmask 0000000000000000
          hintmask 1011110110000000
          299 574 rmoveto
          67 54 54 66 66 -54 54 -67 -67 -54 -54 -66 -66 54 -54 67 hvcurveto
          172 vmoveto
          29 24 -24 -28 -29 -24 -23 -29 -29 -24 23 29 28 24 24 29 hvcurveto
          hintmask 1011011001000000
          12 -199 rmoveto
          -90 -76 -22 -39 -84 hvcurveto
          49 -114 rlineto
          29 57 59 16 45 hhcurveto
          70 35 -32 -53 hvcurveto
          -8 -142 vlineto
          -134 -1 -73 -60 -102 vvcurveto
          -99 70 -70 115 73 57 24 46 35 vhcurveto
          hintmask 0111010101000000
          -62 169 352 vlineto
          hintmask 1011011001000000
          122 -1 -86 73 -148 hhcurveto
          -46 -438 rmoveto
          -48 -28 25 39 40 26 18 52 hvcurveto
          109 -48 hlineto
          -44 -11 -46 -30 -54 hhcurveto
          endchar
        </CharString>
        <CharString name="asciicircum">
          -89 138 387 hstem
          32 510 vstem
          420 138 rmoveto
          122 hlineto
          -185 387 rlineto
          -139 hlineto
          -186 -387 rlineto
          122 hlineto
          133 289 rlineto
          endchar
        </CharString>
        <CharString name="asciitilde">
          -154 237 170 -165 170 hstemhm
          56 116 167 115 hintmask 01110000
          169 412 rmoveto
          -76 -37 -55 -115 hvcurveto
          116 hlineto
          31 11 15 21 vhcurveto
          hintmask 10110000
          33 36 -51 68 hhcurveto
          76 37 56 114 hvcurveto
          -115 hlineto
          -30 -11 -16 -22 vhcurveto
          hintmask 01110000
          -32 -38 51 -67 hhcurveto
          endchar
        </CharString>
        <CharString name="asterisk">
          -286 384 335 hstem
          146.5 85 vstem
          230 480 rmoveto
          83 -51 43 76 -85 47 85 45 -43 75 -82 -48 1 95 rlineto
          -86 hlineto
          1 -95 -81 50 -43 -77 83 -45 -83 -47 43 -74 82 49 -2 -96 rlineto
          86 hlineto
          endchar
        </CharString>
        <CharString name="at">
          253 -149 91 86 80 -69 109 246 111 105 90 hstemhm
          24 98 91 133 208 122 120 97 hintmask 1101111110000000
          465 700 rmoveto
          -246 -195 -189 -243 -239 185 -178 243 77 99 28 44 59 hvcurveto
          -46 80 rlineto
          -42 -56 -75 -19 -58 hhcurveto
          -187 -143 138 188 190 153 152 190 208 123 -148 -191 -96 -41 -67 -42 -22 -15 13 36 hvcurveto
          337 -122 -53 vlineto
          11 -5 -51 53 -80 hhcurveto
          -125 -80 -107 -128 hvcurveto
          hintmask 1011111110000000
          -139 106 -92 112 57 55 24 56 39 vhcurveto
          hintmask 1101111110000000
          2 -13 rlineto
          -54 13 44 -24 60 hhcurveto
          112 80 97 149 246 -183 180 -245 hvcurveto
          -22 -306 rmoveto
          64 39 -54 -66 hvcurveto
          hintmask 1011111110000000
          -69 -38 -57 -64 -60 -38 59 68 vhcurveto
          hintmask 1101111110000000
          65 39 54 58 vhcurveto
          endchar
        </CharString>
        <CharString name="atilde">
          -64 -8 117 -109 109 122 93 93 130 70 155 -151 156 hstemhm
          27 162 -68 106 145 105 -101 170 hintmask 1011010101000000
          257 664 rmoveto
          hintmask 1011100110000000
          29 26 -47 61 hhcurveto
          70 34 50 105 hvcurveto
          -105 hlineto
          -28 -10 -14 -21 vhcurveto
          hintmask 1011010101000000
          -28 -28 47 -59 hhcurveto
          -70 -35 -51 -105 hvcurveto
          106 hlineto
          29 10 14 20 vhcurveto
          54 -117 rmoveto
          -90 -76 -22 -39 -84 hvcurveto
          49 -114 rlineto
          29 57 59 16 45 hhcurveto
          70 35 -32 -53 hvcurveto
          -8 -142 vlineto
          hintmask 1011011001000000
          -134 -1 -73 -60 -102 vvcurveto
          -99 70 -70 115 73 57 24 46 35 vhcurveto
          hintmask 0111010101000000
          -62 169 352 vlineto
          hintmask 1011010101000000
          122 -1 -86 73 -148 hhcurveto
          hintmask 1011011001000000
          -46 -438 rmoveto
          -48 -28 25 39 40 26 18 52 hvcurveto
          109 -48 hlineto
          -44 -11 -46 -30 -54 hhcurveto
          endchar
        </CharString>
        <CharString name="b">
          21 -6 137 -131 131 281 133 197 -20 hstemhm
          74 173 240 174 hintmask 10111100
          408 545 rmoveto
          -68 -55 -28 -49 -38 hvcurveto
          274 -173 vlineto
          hintmask 01111100
          -742 173 vlineto
          hintmask 10111100
          72 vlineto
          -50 38 57 -28 70 hhcurveto
          151 98 109 164 167 -101 111 -152 hvcurveto
          -42 -414 rmoveto
          -70 -49 57 84 82 49 58 70 72 49 -58 -82 -83 -49 -58 -72 hvcurveto
          endchar
        </CharString>
        <CharString name="backslash">
          -209 -90 -21 hstem
          13 468 vstem
          158 811 rmoveto
          -145 hlineto
          323 -922 rlineto
          145 hlineto
          endchar
        </CharString>
        <CharString name="bar">
          -365 -89 -21 hstem
          85 129 vstem
          214 -110 rmoveto
          913 -129 -913 vlineto
          endchar
        </CharString>
        <CharString name="braceleft">
          -308 -126 128 241 132 241 127 hstem
          100 154 vstem
          254 551 rmoveto
          47 19 18 69 vhcurveto
          127 -67 vlineto
          -130 -45 -36 -103 hvcurveto
          -186 vlineto
          -32 -11 -11 -26 vhcurveto
          -39 -132 39 hlineto
          26 11 -12 -32 hvcurveto
          -185 vlineto
          -103 45 -37 130 vhcurveto
          67 128 hlineto
          -69 -19 18 47 hvcurveto
          121 vlineto
          72 -22 34 -62 15 vhcurveto
          62 14 22 34 72 vvcurveto
          endchar
        </CharString>
        <CharString name="braceright">
          -273 -126 128 241 132 241 127 hstem
          155 153 vstem
          384 375 rmoveto
          -38 hlineto
          -27 -11 11 32 hvcurveto
          186 vlineto
          103 -45 36 -130 vhcurveto
          -66 -127 hlineto
          68 20 -18 -47 hvcurveto
          -122 vlineto
          -72 21 -34 63 -15 vhcurveto
          -63 -14 -21 -34 -72 vvcurveto
          -121 vlineto
          -47 -20 -18 -68 vhcurveto
          -128 66 vlineto
          130 45 37 103 hvcurveto
          185 vlineto
          32 11 12 27 vhcurveto
          38 hlineto
          endchar
        </CharString>
        <CharString name="bracketleft">
          -302 -124 128 610 128 hstem
          70 154 vstem
          344 614 rmoveto
          128 -274 -866 274 128 -120 610 vlineto
          endchar
        </CharString>
        <CharString name="bracketright">
          -231 -124 128 610 128 hstem
          209 154 vstem
          363 742 rmoveto
          -274 -128 120 -610 -120 -128 274 hlineto
          endchar
        </CharString>
        <CharString name="breve">
          601 100 -100 158 hstemhm
          11 108 112 108 hintmask 00000000
          hintmask 01110000
          231 759 rmoveto
          hintmask 10110000
          -34 -3 -22 -24 -31 hhcurveto
          hintmask 01110000
          -31 -22 24 34 -3 hvcurveto
          -108 hlineto
          hintmask 10110000
          -96 5 65 -62 94 hhcurveto
          hintmask 01110000
          94 65 62 96 5 hvcurveto
          endchar
        </CharString>
        <CharString name="brokenbar">
          -365 -89 -21 571 342 hstem
          85 129 vstem
          214 461 rmoveto
          342 -129 -342 vlineto
          129 -571 rmoveto
          343 -129 -343 vlineto
          endchar
        </CharString>
        <CharString name="bullet">
          -337 149 252 hstem
          38 251 vstem
          163 401 rmoveto
          -73 -52 -52 -73 -74 52 -53 73 74 52 53 74 73 -52 52 -74 hvcurveto
          endchar
        </CharString>
        <CharString name="bulletoperator">
          -337 149 252 hstem
          38 251 vstem
          163 401 rmoveto
          -73 -52 -52 -73 -74 52 -53 73 74 52 53 74 73 -52 52 -74 hvcurveto
          endchar
        </CharString>
        <CharString name="c">
          -102 -6 138 273 140 hstem
          24 174 vstem
          304 545 rmoveto
          -167 -113 -111 -166 -164 112 -110 166 114 87 46 79 44 hvcurveto
          -126 74 rlineto
          -41 -23 -38 -20 -49 hhcurveto
          -67 -46 54 83 81 46 55 67 47 37 -21 -35 25 hvcurveto
          124 75 rlineto
          77 -47 -86 44 -107 hhcurveto
          endchar
        </CharString>
        <CharString name="cacute">
          -102 -6 138 273 140 hstem
          24 174 vstem
          468 713 rmoveto
          -156 55 -106 -168 rlineto
          132 hlineto
          -34 -55 rmoveto
          -167 -113 -111 -166 -164 112 -110 166 114 87 46 79 44 hvcurveto
          -126 74 rlineto
          -41 -23 -38 -20 -49 hhcurveto
          -67 -46 54 83 81 46 55 67 47 37 -21 -35 25 hvcurveto
          124 75 rlineto
          77 -47 -86 44 -107 hhcurveto
          endchar
        </CharString>
        <CharString name="caron">
          598 164 hstem
          -21 392 vstem
          -21 762 rmoveto
          121 -164 rlineto
          150 hlineto
          121 164 rlineto
          -135 hlineto
          -61 -92 -61 92 rlineto
          endchar
        </CharString>
        <CharString name="ccaron">
          -102 -6 138 273 140 51 164 hstem
          24 174 vstem
          93 760 rmoveto
          121 -164 rlineto
          150 hlineto
          121 164 rlineto
          -135 hlineto
          -61 -92 -61 92 rlineto
          76 -215 rmoveto
          -167 -113 -111 -166 -164 112 -110 166 114 87 46 79 44 hvcurveto
          -126 74 rlineto
          -41 -23 -38 -20 -49 hhcurveto
          -67 -46 54 83 81 46 55 67 47 37 -21 -35 25 hvcurveto
          124 75 rlineto
          77 -47 -86 44 -107 hhcurveto
          endchar
        </CharString>
        <CharString name="ccedilla">
          -102 -235 82 -30 -21 222 -21 408 140 hstemhm
          24 174 105 97 hintmask 01111100
          421 193 rmoveto
          -41 -23 -38 -20 -49 hhcurveto
          -67 -46 54 83 81 46 55 67 47 37 -21 -35 25 hvcurveto
          124 75 rlineto
          77 -47 -86 44 -107 hhcurveto
          -167 -113 -111 -166 -150 93 -104 143 -17 hvcurveto
          hintmask 10111100
          -39 -81 rlineto
          2 12 14 2 10 hhcurveto
          30 16 -16 -20 -20 -16 -17 -26 -17 -19 8 12 -13 hvcurveto
          hintmask 01111100
          -32 -71 rlineto
          hintmask 10111100
          -19 28 36 -12 31 hhcurveto
          73 52 40 63 41 -27 29 -41 11 hvcurveto
          25 49 87 12 66 43 37 66 rlinecurve
          endchar
        </CharString>
        <CharString name="cedilla">
          -235 82 -30 -21 124 94 hstemhm
          188 97 hintmask 01110000
          250 14 rmoveto
          -97 hlineto
          -47 -98 rlineto
          2 12 14 2 10 hhcurveto
          30 16 -16 -20 hvcurveto
          hintmask 10110000
          -20 -16 -17 -26 -17 -19 8 12 -13 vhcurveto
          hintmask 01110000
          -32 -71 rlineto
          hintmask 10110000
          -19 28 36 -12 31 hhcurveto
          73 52 40 63 41 -27 29 -41 11 hvcurveto
          endchar
        </CharString>
        <CharString name="cent">
          -105 20 -21 23 -21 537 -20 22 -20 hstemhm
          24 174 45 134 hintmask 01011100
          421 193 rmoveto
          -41 -23 -38 -20 -49 hhcurveto
          -67 -46 54 83 81 46 55 67 47 37 -21 -35 25 hvcurveto
          124 75 rlineto
          hintmask 01101100
          -36 59 -58 39 -73 16 rrcurveto
          161 -134 vlineto
          hintmask 10011100
          -159 vlineto
          -133 -24 -86 -103 -145 vvcurveto
          -144 86 -102 133 -23 vhcurveto
          -153 134 vlineto
          hintmask 01011100
          155 vlineto
          77 16 59 41 34 61 rrcurveto
          endchar
        </CharString>
        <CharString name="circumflex">
          611 151 hstem
          -7 364 vstem
          357 611 rmoveto
          -113 151 rlineto
          -138 hlineto
          -113 -151 rlineto
          124 hlineto
          58 85 58 -85 rlineto
          endchar
        </CharString>
        <CharString name="colon">
          -424 -8 167 130 167 hstem
          38 167 vstem
          121 456 rmoveto
          -49 -34 -34 -49 -50 34 -34 49 49 35 34 50 49 -35 34 -49 hvcurveto
          -297 vmoveto
          -49 -34 -34 -49 -50 34 -34 49 49 35 34 50 49 -35 34 -49 hvcurveto
          endchar
        </CharString>
        <CharString name="comma">
          -423 -96 254 hstem
          39 165 vstem
          122 158 rmoveto
          -48 -35 -34 -48 -26 10 -24 23 -15 hvcurveto
          -45 -107 rlineto
          82 hlineto
          73 106 rlineto
          13 20 9 21 25 vvcurveto
          53 -38 29 -44 vhcurveto
          endchar
        </CharString>
        <CharString name="commaaccent">
          -664 -295 254 hstem
          39 165 vstem
          122 -41 rmoveto
          -48 -35 -34 -49 -26 10 -23 23 -16 hvcurveto
          -45 -106 rlineto
          82 hlineto
          73 106 rlineto
          13 19 9 22 25 vvcurveto
          53 -38 29 -44 vhcurveto
          endchar
        </CharString>
        <CharString name="copyright">
          61 9 80 92 73 191 70 94 80 hstem
          24 80 90 84 344 79 vstem
          363 689 rmoveto
          -191 -148 -156 -185 -185 147 -154 190 191 149 156 185 186 -148 153 -190 hvcurveto
          -80 vmoveto
          146 113 -117 -142 -142 -114 -119 -147 -146 -111 117 142 142 112 119 147 hvcurveto
          6 -94 rmoveto
          -100 -75 -71 -95 -96 74 -72 98 49 51 23 37 35 hvcurveto
          -48 51 rlineto
          -23 -23 -32 -15 -27 hhcurveto
          -53 -40 42 55 53 40 41 53 29 31 -16 -26 22 hvcurveto
          48 57 rlineto
          34 -33 -51 21 -48 hhcurveto
          endchar
        </CharString>
        <CharString name="currency">
          37 12 -21 72 135 248 134 -35 -20 22 -20 hstemhm
          90 135 252 135 hintmask 11001110
          612 321 rmoveto
          46 -12 44 -22 37 vhcurveto
          99 99 rlineto
          hintmask 11010110
          -97 97 -98 -99 rlineto
          hintmask 11100110
          22 -39 -45 13 -48 hhcurveto
          hintmask 11010110
          -47 -45 -13 -22 -38 hvcurveto
          hintmask 11001110
          -99 99 -97 -97 100 -99 rlineto
          -22 -37 -12 -44 -46 vvcurveto
          -48 13 -45 23 -38 vhcurveto
          -102 -102 97 -97 104 104 rlineto
          -20 37 43 -12 45 hhcurveto
          46 43 12 20 38 hvcurveto
          103 -104 97 97 -102 102 rlineto
          24 38 13 45 48 vvcurveto
          -262 -123 rmoveto
          -69 -56 55 68 hvcurveto
          hintmask 11100110
          69 56 56 69 70 57 -56 -69 vhcurveto
          hintmask 11001110
          -68 -57 -55 -70 vhcurveto
          endchar
        </CharString>
        <CharString name="d">
          22 -7 134 -127 127 281 138 196 -20 hstemhm
          25 173 241 173 hintmask 10111100
          612 742 rmoveto
          -173 -274 hlineto
          50 -38 -57 28 -71 hhcurveto
          -149 -99 -109 -165 -167 100 -112 152 69 55 28 50 38 hvcurveto
          hintmask 01111100
          -71 173 vlineto
          hintmask 10111100
          -293 127 rmoveto
          -72 -48 58 83 -1 hvcurveto
          83 1 48 57 72 hhcurveto
          72 48 -57 -83 -83 -48 -58 -72 hvcurveto
          endchar
        </CharString>
        <CharString name="dagger">
          -90 354 140 hstem
          199 170 vstem
          369 494 rmoveto
          205 -170 -205 -181 -140 181 -541 170 541 187 140 vlineto
          endchar
        </CharString>
        <CharString name="daggerdbl">
          -90 31 140 183 140 hstem
          199 170 vstem
          369 354 rmoveto
          187 140 -187 205 -170 -205 -181 -140 181 -183 -181 -140 181 -218 170 218 187 140 -187 hlineto
          endchar
        </CharString>
        <CharString name="dcaron">
          122 -7 134 -127 127 281 138 196 -20 hstemhm
          25 173 241 173 50 165 hintmask 10111110
          439 742 rmoveto
          -274 vlineto
          50 -38 -57 28 -71 hhcurveto
          -149 -99 -109 -165 -167 100 -112 152 69 55 28 50 38 hvcurveto
          hintmask 01111110
          -71 173 742 vlineto
          133 -65 rmoveto
          -48 -35 -34 -48 -26 10 -24 23 -15 hvcurveto
          -45 -107 rlineto
          82 hlineto
          73 106 rlineto
          13 20 9 21 25 vvcurveto
          53 -38 29 -44 vhcurveto
          hintmask 10111110
          -426 -550 rmoveto
          -72 -48 58 83 -1 hvcurveto
          83 1 48 57 72 hhcurveto
          72 48 -57 -83 -83 -48 -58 -72 hvcurveto
          endchar
        </CharString>
        <CharString name="dcroat">
          22 -7 134 -127 127 281 138 49 89 -89 147 hstemhm
          25 173 241 173 hintmask 10101110
          677 595 rmoveto
          hintmask 10110110
          89 -65 vlineto
          hintmask 10101110
          58 -173 vlineto
          hintmask 10110110
          -58 -85 vlineto
          hintmask 10101110
          -89 85 -127 vlineto
          50 -38 -57 28 -71 hhcurveto
          -149 -99 -109 -165 -167 100 -112 152 69 55 28 50 38 hvcurveto
          hintmask 01101110
          -71 173 595 vlineto
          hintmask 10101110
          -293 -468 rmoveto
          -72 -48 58 83 -1 hvcurveto
          83 1 48 57 72 hhcurveto
          72 48 -57 -83 -83 -48 -58 -72 hvcurveto
          endchar
        </CharString>
        <CharString name="degree">
          -290 581 67 102 67 hstem
          83 67 104 67 vstem
          202 817 rmoveto
          -65 -54 -53 -65 -65 54 -53 65 66 53 53 65 65 -53 53 -66 hvcurveto
          -67 vmoveto
          29 23 -23 -28 -28 -23 -23 -29 -28 -24 23 28 28 24 23 28 hvcurveto
          endchar
        </CharString>
        <CharString name="dieresis">
          -296 614 156 hstem
          1 155 38 156 vstem
          79 770 rmoveto
          -46 -32 -33 -45 -46 32 -32 46 45 32 32 46 45 -32 33 -45 hvcurveto
          193 hmoveto
          -46 -32 -33 -45 -46 32 -32 46 45 33 32 46 45 -33 33 -45 hvcurveto
          endchar
        </CharString>
        <CharString name="divide">
          -154 71 156 45 109 48 155 hstem
          169 156 vstem
          247 584 rmoveto
          -45 -33 -32 -46 -45 33 -32 45 46 32 32 45 46 -32 32 -46 hvcurveto
          230 -312 rmoveto
          109 -444 -109 vlineto
          214 -45 rmoveto
          -45 -33 -33 -45 -45 33 -33 45 46 32 33 45 45 -32 33 -46 hvcurveto
          endchar
        </CharString>
        <CharString name="divisionslash">
          -311 -90 -21 hstem
          -36 468 vstem
          109 -111 rmoveto
          323 922 rlineto
          -145 hlineto
          -323 -922 rlineto
          endchar
        </CharString>
        <CharString name="dollar">
          -20 18 -21 25 -21 700 -20 25 -20 hstemhm
          60 187 10 132 41 187 hintmask 01010110
          617 208 rmoveto
          hintmask 01011110
          253 -370 -69 121 vvcurveto
          34 31 17 46 57 93 -30 -43 74 vhcurveto
          67 139 rlineto
          hintmask 01010110
          -60 39 -82 28 -84 9 rrcurveto
          143 -132 vlineto
          hintmask 01100110
          -148 vlineto
          hintmask 01101110
          -121 -23 -76 -74 -107 -248 370 74 -124 vvcurveto
          -40 -35 -21 -56 -73 -108 42 63 -72 vhcurveto
          -69 -137 rlineto
          hintmask 01010110
          64 -53 86 -38 90 -14 rrcurveto
          -155 132 vlineto
          hintmask 10010110
          151 vlineto
          hintmask 01010110
          131 15 97 72 124 vvcurveto
          endchar
        </CharString>
        <CharString name="dotaccent">
          602 183 hstem
          84 182 vstem
          175 785 rmoveto
          -53 -38 -38 -53 -54 38 -38 53 53 38 38 54 53 -38 38 -53 hvcurveto
          endchar
        </CharString>
        <CharString name="dotlessi">
          -353 21 -21 539 -20 hstem
          69 172 vstem
          241 hmoveto
          539 -172 -539 vlineto
          endchar
        </CharString>
        <CharString name="dotlessj">
          -356 -201 135 -114 -21 740 -20 hstemhm
          71 173 hintmask 01110000
          244 539 rmoveto
          -173 hlineto
          hintmask 10110000
          -534 vlineto
          -48 -20 -24 -37 1 vhcurveto
          -22 -21 7 12 -21 hvcurveto
          -40 -119 40 -22 49 -12 54 -1 rlinecurve
          117 -1 74 68 114 vvcurveto
          endchar
        </CharString>
        <CharString name="e">
          -62 -6 129 100 93 109 120 hstem
          411 166 vstem
          305 545 rmoveto
          -167 -114 -110 -167 -164 110 -110 176 99 81 35 60 55 hvcurveto
          -91 89 rlineto
          -36 -36 -46 -19 -47 hhcurveto
          -64 -46 36 64 -17 hvcurveto
          379 hlineto
          197 12 -94 125 -190 hhcurveto
          -110 -229 rmoveto
          65 11 41 44 60 hhcurveto
          62 42 -43 -66 hvcurveto
          endchar
        </CharString>
        <CharString name="eacute">
          -62 -6 129 100 93 109 120 hstem
          411 166 vstem
          346 600 rmoveto
          130 113 -156 55 -106 -168 rlineto
          91 -55 rmoveto
          -167 -114 -110 -167 -164 110 -110 176 99 81 35 60 55 hvcurveto
          -91 89 rlineto
          -36 -36 -46 -19 -47 hhcurveto
          -64 -46 36 64 -17 hvcurveto
          379 hlineto
          197 12 -94 125 -190 hhcurveto
          -110 -229 rmoveto
          65 11 41 44 60 hhcurveto
          62 42 -43 -66 hvcurveto
          endchar
        </CharString>
        <CharString name="ecaron">
          -62 -6 129 100 93 109 120 51 164 hstem
          411 166 vstem
          221 596 rmoveto
          150 hlineto
          121 164 rlineto
          -135 hlineto
          -61 -92 -61 92 rlineto
          -135 hlineto
          205 -215 rmoveto
          -167 -114 -110 -167 -164 110 -110 176 99 81 35 60 55 hvcurveto
          -91 89 rlineto
          -36 -36 -46 -19 -47 hhcurveto
          -64 -46 36 64 -17 hvcurveto
          379 hlineto
          197 12 -94 125 -190 hhcurveto
          -110 -229 rmoveto
          65 11 41 44 60 hhcurveto
          62 42 -43 -66 hvcurveto
          endchar
        </CharString>
        <CharString name="ecircumflex">
          -62 -6 129 100 93 109 120 64 151 hstem
          411 166 vstem
          243 609 rmoveto
          58 85 58 -85 rlineto
          124 hlineto
          -113 151 rlineto
          -138 hlineto
          -113 -151 rlineto
          186 -64 rmoveto
          -167 -114 -110 -167 -164 110 -110 176 99 81 35 60 55 hvcurveto
          -91 89 rlineto
          -36 -36 -46 -19 -47 hhcurveto
          -64 -46 36 64 -17 hvcurveto
          379 hlineto
          197 12 -94 125 -190 hhcurveto
          -110 -229 rmoveto
          65 11 41 44 60 hhcurveto
          62 42 -43 -66 hvcurveto
          endchar
        </CharString>
        <CharString name="edieresis">
          -62 -6 129 100 93 109 120 69 155 hstemhm
          127 156 37 156 -65 166 hintmask 11111100
          205 614 rmoveto
          45 33 32 45 46 -33 32 -45 -45 -33 -32 -46 -45 33 -32 45 hvcurveto
          193 hmoveto
          45 33 32 45 46 -33 32 -45 -45 -33 -32 -46 -45 33 -32 45 hvcurveto
          hintmask 11111010
          -93 -69 rmoveto
          -167 -114 -110 -167 -164 110 -110 176 99 81 35 60 55 hvcurveto
          -91 89 rlineto
          -36 -36 -46 -19 -47 hhcurveto
          -64 -46 36 64 -17 hvcurveto
          379 hlineto
          197 12 -94 125 -190 hhcurveto
          -110 -229 rmoveto
          65 11 41 44 60 hhcurveto
          62 42 -43 -66 hvcurveto
          endchar
        </CharString>
        <CharString name="edotaccent">
          -62 -6 129 100 93 109 120 57 183 hstemhm
          210 182 19 166 hintmask 11111000
          301 602 rmoveto
          53 38 38 54 53 -38 38 -53 -53 -38 -38 -53 -54 38 -38 53 hvcurveto
          hintmask 11111100
          4 -57 rmoveto
          -167 -114 -110 -167 -164 110 -110 176 99 81 35 60 55 hvcurveto
          -91 89 rlineto
          -36 -36 -46 -19 -47 hhcurveto
          -64 -46 36 64 -17 hvcurveto
          379 hlineto
          197 12 -94 125 -190 hhcurveto
          -110 -229 rmoveto
          65 11 41 44 60 hhcurveto
          62 42 -43 -66 hvcurveto
          endchar
        </CharString>
        <CharString name="egrave">
          -62 -6 129 100 93 109 120 hstem
          411 166 vstem
          257 600 rmoveto
          132 hlineto
          -106 168 -156 -55 rlineto
          178 -168 rmoveto
          -167 -114 -110 -167 -164 110 -110 176 99 81 35 60 55 hvcurveto
          -91 89 rlineto
          -36 -36 -46 -19 -47 hhcurveto
          -64 -46 36 64 -17 hvcurveto
          379 hlineto
          197 12 -94 125 -190 hhcurveto
          -110 -229 rmoveto
          65 11 41 44 60 hhcurveto
          62 42 -43 -66 hvcurveto
          endchar
        </CharString>
        <CharString name="eight">
          -22 -8 129 183 128 159 117 hstemhm
          34 168 -132 150 202 149 -130 167 hintmask 00000000
          hintmask 11101100
          320 708 rmoveto
          -152 -98 -71 -112 -61 38 -56 59 -33 hvcurveto
          hintmask 11110010
          -81 -32 -52 -68 -80 vvcurveto
          -124 112 -79 175 175 112 80 126 78 -48 67 -77 32 vhcurveto
          hintmask 11110100
          55 30 33 54 61 vvcurveto
          hintmask 11101100
          115 -97 73 -154 vhcurveto
          1 -117 rmoveto
          65 36 -29 -52 -50 -36 -28 -65 -65 -36 28 50 52 36 29 65 hvcurveto
          hintmask 11110010
          -287 vmoveto
          77 43 -33 -58 -60 -43 -32 -77 -77 -42 33 59 58 42 33 77 hvcurveto
          endchar
        </CharString>
        <CharString name="eight.dnom">
          -248 -5 85 96 84 85 77 hstemhm
          26 115 -92 102 114 102 -92 115 hintmask 00000000
          hintmask 11101100
          207 422 rmoveto
          -96 -62 -43 -67 -35 23 -34 35 -20 hvcurveto
          hintmask 11110010
          -49 -19 -32 -41 -47 vvcurveto
          -74 71 -47 111 111 71 47 76 45 -29 41 -46 19 vhcurveto
          hintmask 11110100
          32 19 20 32 34 vvcurveto
          hintmask 11101100
          69 -62 45 -98 vhcurveto
          1 -77 rmoveto
          37 20 -15 -28 -27 -20 -15 -37 -37 -20 15 27 28 20 15 37 hvcurveto
          hintmask 11110010
          -169 vmoveto
          43 24 -17 -31 -32 -24 -16 -43 -43 -24 16 32 31 24 17 43 hvcurveto
          endchar
        </CharString>
        <CharString name="eight.numr">
          -248 278 85 97 84 84 77 hstemhm
          26 115 -92 102 114 102 -92 115 hintmask 00000000
          hintmask 11101100
          207 705 rmoveto
          -96 -62 -43 -67 -35 23 -34 35 -20 hvcurveto
          hintmask 11110010
          -49 -19 -32 -41 -47 vvcurveto
          -73 71 -48 111 111 71 48 76 45 -29 40 -46 19 vhcurveto
          hintmask 11110100
          32 19 20 32 34 vvcurveto
          hintmask 11101100
          70 -62 44 -98 vhcurveto
          1 -77 rmoveto
          37 20 -15 -28 -27 -20 -14 -37 -37 -20 14 27 28 20 15 37 hvcurveto
          hintmask 11110010
          -168 vmoveto
          43 24 -18 -31 -32 -24 -16 -43 -43 -24 17 32 30 24 18 43 hvcurveto
          endchar
        </CharString>
        <CharString name="ellipsis">
          16 -8 164 hstem
          38 163 57 163 57 163 vstem
          119 156 rmoveto
          -47 -34 -34 -48 -48 34 -34 47 48 34 34 48 48 -34 34 -48 hvcurveto
          220 hmoveto
          -47 -34 -34 -48 -48 34 -34 47 48 34 34 48 48 -34 34 -48 hvcurveto
          220 hmoveto
          -47 -34 -34 -48 -48 34 -34 47 48 34 34 48 48 -34 34 -48 hvcurveto
          endchar
        </CharString>
        <CharString name="emacron">
          -62 -6 129 100 93 109 120 87 116 hstemhm
          162 278 -29 166 hintmask 11111000
          440 632 rmoveto
          116 -278 -116 vlineto
          hintmask 11110100
          143 -87 rmoveto
          -167 -114 -110 -167 -164 110 -110 176 99 81 35 60 55 hvcurveto
          -91 89 rlineto
          -36 -36 -46 -19 -47 hhcurveto
          -64 -46 36 64 -17 hvcurveto
          379 hlineto
          197 12 -94 125 -190 hhcurveto
          -110 -229 rmoveto
          65 11 41 44 60 hhcurveto
          62 42 -43 -66 hvcurveto
          endchar
        </CharString>
        <CharString name="emdash">
          -16 217 109 hstem
          0 648 vstem
          648 217 rmoveto
          109 -648 -109 vlineto
          endchar
        </CharString>
        <CharString name="endash">
          -257 217 109 hstem
          0 407 vstem
          407 217 rmoveto
          109 -407 -109 vlineto
          endchar
        </CharString>
        <CharString name="eogonek">
          -62 -203 87 -66 -21 197 128 101 93 109 120 hstemhm
          25 170 153 88 -25 166 hintmask 00000000
          hintmask 01111101
          306 545 rmoveto
          -175 -2 -106 -112 -162 vvcurveto
          -166 110 -109 173 vhcurveto
          hintmask 01111110
          34 31 7 16 31 hvcurveto
          -34 -47 -22 -46 -43 vvcurveto
          -63 48 -21 40 45 37 24 43 25 vhcurveto
          hintmask 10111110
          -44 51 rlineto
          -18 -12 -14 -13 -16 hhcurveto
          -13 -8 8 17 46 62 80 47 54 hvcurveto
          -91 89 rlineto
          -36 -36 -47 -20 -46 hhcurveto
          -65 -44 38 63 -17 hvcurveto
          hintmask 01111101
          378 hlineto
          13 199 -100 125 -184 -2 rrcurveto
          2 -120 rmoveto
          61 42 -45 -64 hvcurveto
          -216 hlineto
          65 9 43 44 61 hhcurveto
          endchar
        </CharString>
        <CharString name="equal">
          -154 165 109 106 109 hstem
          33 444 vstem
          477 380 rmoveto
          109 -444 -109 vlineto
          444 -215 rmoveto
          109 -444 -109 vlineto
          endchar
        </CharString>
        <CharString name="estimated">
          145 18 18 276 16 275 18 hstem
          70 122 426 122 vstem
          740 312 rmoveto
          7 vlineto
          167 -150 135 -185 -185 -150 -135 -167 -166 150 -135 185 107 98 47 70 60 vhcurveto
          -49 hlineto
          -60 -51 -78 -39 -86 hhcurveto
          -81 -74 34 55 -51 hvcurveto
          -4 5 -4 6 8 vvcurveto
          164 vlineto
          3 2 1 3 vhcurveto
          421 21 rmoveto
          -3 -2 -2 -3 vhcurveto
          -416 hlineto
          -3 -2 2 3 hvcurveto
          162 vlineto
          8 4 7 5 5 vhcurveto
          54 52 72 34 81 hhcurveto
          79 72 -33 -52 52 hvcurveto
          5 -5 4 -7 -8 vvcurveto
          endchar
        </CharString>
        <CharString name="eth">
          -60 -8 143 195 115 161 -20 119 -20 64 -20 hstem
          22 165 209 184 vstem
          550 625 rmoveto
          -27 80 -143 -48 -47 37 -55 31 -60 24 rlinecurve
          -116 -70 45 -21 42 -25 38 -27 rlinecurve
          -113 -38 26 -80 163 54 51 -49 38 -55 18 -53 rlinecurve
          37 -32 -63 23 -66 hhcurveto
          -138 -89 -86 -133 -142 103 -92 158 180 117 115 177 112 -47 108 -81 88 hvcurveto
          -162 -457 rmoveto
          -62 -41 39 60 59 40 37 63 65 41 -39 -59 -59 -41 -38 -65 hvcurveto
          endchar
        </CharString>
        <CharString name="exclam">
          -410 -8 167 hstemhm
          48 167 -163 164 hintmask 10100000
          216 518 rmoveto
          178 -164 -178 vlineto
          30 -278 rlineto
          104 hlineto
          hintmask 11000000
          -55 -81 rmoveto
          -48 -35 -34 -49 -50 35 -34 48 49 35 34 50 49 -35 34 -49 hvcurveto
          endchar
        </CharString>
        <CharString name="exclamdown">
          -410 379 168 hstemhm
          51 164 -163 167 hintmask 00000000
          hintmask 10100000
          136 379 rmoveto
          48 35 34 49 50 -35 35 -48 -50 -34 -35 -50 -49 34 -34 50 hvcurveto
          hintmask 11000000
          -85 -358 rmoveto
          -179 164 179 vlineto
          -30 277 rlineto
          -104 hlineto
          endchar
        </CharString>
        <CharString name="f">
          -278 21 -21 401 114 98 137 -38 -20 hstemhm
          101 171 hintmask 00000000
          hintmask 11101000
          334 613 rmoveto
          20 24 -8 -14 19 hvcurveto
          hintmask 11011000
          61 121 rlineto
          hintmask 11101000
          24 -41 -57 14 -53 hhcurveto
          -116 -90 -66 -119 hvcurveto
          -50 -73 -114 73 -401 171 401 122 114 -122 39 vlineto
          40 27 20 35 -1 vhcurveto
          endchar
        </CharString>
        <CharString name="fi">
          33 21 -21 406 114 -114 133 63 183 -172 137 0 -20 hstemhm
          101 171 179 183 -178 172 hintmask 0000000000000000
          hintmask 1101001100000000
          542 602 rmoveto
          54 38 38 54 53 -38 38 -54 -53 -38 -38 -53 -54 38 -38 53 hvcurveto
          -441 -82 rmoveto
          -73 hlineto
          hintmask 1010011010000000
          -114 73 -406 171 406 122 vlineto
          hintmask 1100101010000000
          114 -122 34 vlineto
          41 26 18 36 22 27 -8 -13 23 vhcurveto
          hintmask 1010011010000000
          6 137 rlineto
          13 -28 -40 8 -37 hhcurveto
          -115 -91 -64 -121 hvcurveto
          355 -26 rmoveto
          -539 172 539 vlineto
          endchar
        </CharString>
        <CharString name="firsttonechinese">
          632 116 hstem
          36 278 vstem
          314 632 rmoveto
          116 -278 -116 vlineto
          endchar
        </CharString>
        <CharString name="five">
          -69 -7 136 181 136 113 141 hstem
          73 162 137 191 vstem
          532 559 rmoveto
          141 -459 -395 vlineto
          3 43 111 2 36 hhcurveto
          69 40 -32 -55 -60 -40 -34 -69 -63 -63 30 56 -52 hvcurveto
          -71 -135 rlineto
          -52 73 105 -35 92 hhcurveto
          169 110 95 147 125 -105 86 -160 hvcurveto
          -63 113 hlineto
          endchar
        </CharString>
        <CharString name="five.dnom">
          -277 -5 87 96 86 63 90 hstem
          51 111 69 131 vstem
          162 327 rmoveto
          181 90 -292 -242 hlineto
          2 26 73 1 21 hhcurveto
          39 21 -16 -29 -33 -21 -18 -39 -39 -38 19 37 -32 hvcurveto
          -49 -90 rlineto
          -32 46 68 -21 58 hhcurveto
          108 69 58 88 75 -65 48 -102 -7 -18 -1 -2 -8 hvcurveto
          endchar
        </CharString>
        <CharString name="five.numr">
          -277 278 88 95 86 63 90 hstem
          51 111 69 131 vstem
          162 610 rmoveto
          181 90 -292 -242 hlineto
          2 26 73 1 21 hhcurveto
          39 21 -16 -29 -33 -21 -17 -39 -39 -38 18 37 -32 hvcurveto
          -49 -90 rlineto
          -31 46 68 -22 58 hhcurveto
          108 69 58 88 75 -65 48 -102 -7 -18 -1 -1 -8 hvcurveto
          endchar
        </CharString>
        <CharString name="fiveeighths">
          305 -5 85 -59 -21 176 84 18 88 -21 77 39 86 63 90 hstemhm
          51 111 69 131 217 115 -92 102 114 102 -92 115 hintmask 0000000000000000
          hintmask 0111011110000000
          142 hmoveto
          162 hlineto
          500 701 rlineto
          -162 hlineto
          -480 -91 rmoveto
          181 90 -292 -242 hlineto
          2 26 73 1 21 hhcurveto
          39 21 -16 -29 -33 -21 -17 -39 -39 -38 18 37 -32 hvcurveto
          -49 -90 rlineto
          -31 46 68 -22 58 hhcurveto
          108 69 58 88 75 -65 48 -102 -7 -18 -1 -1 -8 hvcurveto
          hintmask 1010111100110000
          598 -123 rmoveto
          -96 -62 -43 -67 -35 23 -34 35 -20 hvcurveto
          hintmask 1010111101001000
          -49 -19 -32 -41 -47 vvcurveto
          -74 71 -47 111 111 71 47 76 45 -29 41 -46 19 vhcurveto
          hintmask 1010111100010000
          32 19 20 32 34 vvcurveto
          hintmask 1010111100110000
          69 -62 45 -98 vhcurveto
          1 -77 rmoveto
          37 20 -15 -28 -27 -20 -15 -37 -37 -20 15 27 28 20 15 37 hvcurveto
          hintmask 1010111101001000
          -169 vmoveto
          43 24 -17 -31 -32 -24 -16 -43 -43 -24 16 32 31 24 17 43 hvcurveto
          endchar
        </CharString>
        <CharString name="fl">
          50 21 -21 407 113 98 134 -10 -20 30 -20 hstemhm
          101 171 195 173 hintmask 11100110
          101 520 rmoveto
          -72 hlineto
          -1 -113 rlineto
          73 -407 171 407 122 hlineto
          1 113 rlineto
          -123 27 hlineto
          43 29 29 42 -1 vhcurveto
          21 -1 24 -8 19 -14 rrcurveto
          hintmask 11001110
          6 138 rlineto
          hintmask 11100110
          12 -28 -41 7 -37 hhcurveto
          -123 1 -83 -73 -108 vvcurveto
          hintmask 11010110
          539 170 rmoveto
          -173 -742 173 hlineto
          endchar
        </CharString>
        <CharString name="florin">
          -254 -202 135 422 111 152 134 hstem
          -113 597 vstem
          364 618 rmoveto
          20 -1 24 -8 18 -14 58 118 rcurveline
          24 -36 -58 15 -53 hhcurveto
          -117 1 -85 -70 -13 -108 -13 -109 rcurveline
          -73 hlineto
          -14 -111 rlineto
          73 hlineto
          -44 -354 -5 -42 -21 -27 -36 1 rlinecurve
          -18 -24 9 14 -16 hvcurveto
          -44 -119 29 -23 50 -15 43 -1 rlinecurve
          118 -1 79 70 14 109 46 379 rcurveline
          122 hlineto
          14 111 rlineto
          -122 hlineto
          10 84 5 42 29 27 40 -1 rlinecurve
          endchar
        </CharString>
        <CharString name="four">
          -31 21 -21 154 135 411 -20 hstem
          359 165 vstem
          211 289 rmoveto
          208 411 rlineto
          -171 hlineto
          -221 -427 rlineto
          -119 332 -154 165 154 95 135 -95 150 -165 -150 vlineto
          endchar
        </CharString>
        <CharString name="four.dnom">
          -250 0 171 -84 84 hstemhm
          230 113 hintmask 10100000
          230 171 rmoveto
          -83 hlineto
          127 246 rlineto
          -117 hlineto
          hintmask 01100000
          -134 -251 rlineto
          -79 207 vlineto
          hintmask 10100000
          -87 113 vlineto
          hintmask 01100000
          87 58 vlineto
          hintmask 10100000
          84 -58 89 -113 vlineto
          endchar
        </CharString>
        <CharString name="four.numr">
          -250 371 84 -84 173 156 -20 hstemhm
          230 113 hintmask 00000000
          hintmask 10110000
          230 455 rmoveto
          -83 hlineto
          127 245 rlineto
          -117 hlineto
          hintmask 01110000
          -134 -251 rlineto
          -78 207 -88 113 88 58 vlineto
          hintmask 10110000
          84 -58 vlineto
          hintmask 01110000
          89 -113 vlineto
          endchar
        </CharString>
        <CharString name="fraction">
          -547 21 -21 701 -20 hstem
          -275 662 vstem
          -275 hmoveto
          162 hlineto
          500 701 rlineto
          -162 hlineto
          endchar
        </CharString>
        <CharString name="g">
          -17 -201 134 96 125 263 122 -122 128 hstemhm
          25 161 226 172 hintmask 00000000
          hintmask 11101100
          584 539 rmoveto
          -172 hlineto
          hintmask 11011100
          -66 vlineto
          -36 47 -54 26 -69 -1 rrcurveto
          -135 -93 -102 -153 -157 96 -104 136 67 53 26 46 35 hvcurveto
          -57 vlineto
          -67 -50 -44 -83 -58 -60 20 34 -49 vhcurveto
          -60 -117 rlineto
          -41 61 85 -30 94 hhcurveto
          174 118 97 153 hvcurveto
          -284 105 rmoveto
          -68 -46 54 77 78 46 54 68 67 45 -53 -79 -77 -45 -54 -67 hvcurveto
          endchar
        </CharString>
        <CharString name="gbreve">
          -17 -201 134 96 125 263 122 -122 128 56 100 -100 158 hstemhm
          25 161 -26 108 112 108 -76 172 hintmask 0000000000000000
          hintmask 1101100101000000
          324 601 rmoveto
          hintmask 1101011010000000
          94 65 62 96 5 hvcurveto
          -108 hlineto
          hintmask 1101101010000000
          -34 -3 -22 -24 -31 hhcurveto
          hintmask 1101010101000000
          -31 -22 24 34 -3 hvcurveto
          -108 hlineto
          hintmask 1101100101000000
          -96 5 65 -62 94 hhcurveto
          hintmask 1110101001000000
          260 -62 rmoveto
          -172 hlineto
          hintmask 1101101001000000
          -66 vlineto
          -36 47 -54 26 -69 -1 rrcurveto
          -135 -93 -102 -153 -157 96 -104 136 67 53 26 46 35 hvcurveto
          -57 vlineto
          -67 -50 -44 -83 -58 -60 20 34 -49 vhcurveto
          -60 -117 rlineto
          -41 61 85 -30 94 hhcurveto
          174 118 97 153 hvcurveto
          -284 105 rmoveto
          -68 -46 54 77 78 46 54 68 67 45 -53 -79 -77 -45 -54 -67 hvcurveto
          endchar
        </CharString>
        <CharString name="gcommaaccent">
          -17 -201 134 96 125 263 122 -122 128 hstemhm
          25 161 49 165 12 172 hintmask 00000000
          hintmask 11011110
          317 580 rmoveto
          48 35 34 49 26 -10 23 -23 16 hvcurveto
          45 106 rlineto
          -82 hlineto
          -73 -106 rlineto
          -13 -19 -9 -22 -25 vvcurveto
          -53 38 -29 44 vhcurveto
          hintmask 11101010
          267 -41 rmoveto
          -172 hlineto
          hintmask 11011010
          -66 vlineto
          -36 47 -54 26 -69 -1 rrcurveto
          -135 -93 -102 -153 -157 96 -104 136 67 53 26 46 35 hvcurveto
          -57 vlineto
          -67 -50 -44 -83 -58 -60 20 34 -49 vhcurveto
          -60 -117 rlineto
          -41 61 85 -30 94 hhcurveto
          174 118 97 153 hvcurveto
          -284 105 rmoveto
          -68 -46 54 77 78 46 54 68 67 45 -53 -79 -77 -45 -54 -67 hvcurveto
          endchar
        </CharString>
        <CharString name="germandbls">
          -2 0 123 182 122 193 130 hstemhm
          58 172 190 167 -125 167 hintmask 11111000
          329 750 rmoveto
          -167 -104 -101 -157 hvcurveto
          -492 172 504 vlineto
          74 36 42 64 57 33 -34 -61 -63 -38 -35 -69 vhcurveto
          -122 18 vlineto
          hintmask 11110100
          83 48 -31 -59 -57 -43 -35 -76 hvcurveto
          -41 -123 49 hlineto
          169 109 86 128 86 -57 61 -81 22 hvcurveto
          hintmask 11111000
          58 32 38 65 70 vvcurveto
          121 -103 79 -155 vhcurveto
          endchar
        </CharString>
        <CharString name="grave">
          600 168 hstem
          41 262 vstem
          303 600 rmoveto
          -106 168 -156 -55 130 -113 rlineto
          endchar
        </CharString>
        <CharString name="greater">
          -154 77 509 hstem
          32 445 vstem
          32 199 rmoveto
          -122 vlineto
          445 185 rlineto
          139 vlineto
          -445 185 rlineto
          -121 vlineto
          333 -133 rlineto
          endchar
        </CharString>
        <CharString name="greaterequal">
          -154 2 110 hstem
          32 445 vstem
          32 277 rmoveto
          -117 vlineto
          445 179 rlineto
          133 vlineto
          -445 179 rlineto
          -117 vlineto
          333 -128 rlineto
          112 -404 rmoveto
          110 -444 -110 vlineto
          endchar
        </CharString>
        <CharString name="guillemotleft">
          -162 82 368 hstem
          2 482 vstem
          156 266 rmoveto
          106 184 rlineto
          -140 hlineto
          -120 -184 120 -184 rlineto
          140 hlineto
          115 184 rmoveto
          107 184 rlineto
          -140 hlineto
          -120 -184 120 -184 rlineto
          140 hlineto
          endchar
        </CharString>
        <CharString name="guillemotright">
          -156 82 368 hstem
          35 482 vstem
          141 266 rmoveto
          -106 -184 rlineto
          140 hlineto
          120 184 -120 184 rlineto
          -140 hlineto
          328 -184 rmoveto
          -106 -184 rlineto
          140 hlineto
          120 184 -120 184 rlineto
          -140 hlineto
          endchar
        </CharString>
        <CharString name="guilsinglleft">
          -383 82 368 hstem
          2 260 vstem
          156 266 rmoveto
          106 184 rlineto
          -140 hlineto
          -120 -184 120 -184 rlineto
          140 hlineto
          endchar
        </CharString>
        <CharString name="guilsinglright">
          -378 82 368 hstem
          35 260 vstem
          142 266 rmoveto
          -107 -184 rlineto
          140 hlineto
          120 184 -120 184 rlineto
          -140 hlineto
          endchar
        </CharString>
        <CharString name="h">
          14 21 -21 394 153 195 -20 hstem
          74 173 205 173 vstem
          428 547 rmoveto
          -80 -1 -63 -32 -38 -64 rrcurveto
          292 -173 -742 173 266 vlineto
          74 42 54 68 59 36 -39 -63 vhcurveto
          -292 173 340 vlineto
          126 -78 81 -119 vhcurveto
          endchar
        </CharString>
        <CharString name="hbar">
          79 21 -21 394 153 29 94 -94 166 hstemhm
          74 173 205 173 hintmask 00000000
          hintmask 11011100
          428 547 rmoveto
          -80 -1 -63 -32 -38 -64 rrcurveto
          hintmask 10011100
          126 118 vlineto
          hintmask 10101100
          94 -118 vlineto
          hintmask 10011100
          72 -173 vlineto
          hintmask 10101100
          -72 -79 vlineto
          hintmask 10011100
          -94 79 -576 173 266 vlineto
          hintmask 11011100
          74 42 54 68 59 36 -39 -63 vhcurveto
          -292 173 340 vlineto
          126 -78 81 -119 vhcurveto
          endchar
        </CharString>
        <CharString name="hungarumlaut">
          600 171 hstem
          -30 410 vstem
          186 723 rmoveto
          -131 48 -85 -171 rlineto
          126 hlineto
          284 123 rmoveto
          -131 48 -85 -171 rlineto
          126 hlineto
          endchar
        </CharString>
        <CharString name="hyphen">
          -290 252 109 hstem
          55 264 vstem
          319 252 rmoveto
          109 -264 -109 vlineto
          endchar
        </CharString>
        <CharString name="i">
          -353 21 -21 539 -20 83 183 hstemhm
          65 182 -178 172 hintmask 00000000
          hintmask 11110000
          156 785 rmoveto
          -53 -38 -38 -53 -54 38 -38 53 53 38 38 54 53 -38 38 -53 hvcurveto
          hintmask 11101000
          85 -785 rmoveto
          539 -172 -539 vlineto
          endchar
        </CharString>
        <CharString name="iacute">
          -353 21 -21 539 -20 hstem
          69 172 vstem
          331 713 rmoveto
          -156 55 -106 -168 rlineto
          132 hlineto
          40 -600 rmoveto
          539 -172 -539 vlineto
          endchar
        </CharString>
        <CharString name="icircumflex">
          -353 21 -21 539 -20 91 151 hstem
          69 172 vstem
          338 610 rmoveto
          -113 151 rlineto
          -138 hlineto
          -113 -151 rlineto
          124 hlineto
          58 85 58 -85 rlineto
          27 -610 rmoveto
          539 -172 -539 vlineto
          endchar
        </CharString>
        <CharString name="idieresis">
          -353 21 -21 539 -20 95 155 hstemhm
          -18 156 -69 172 -66 156 hintmask 11101000
          60 769 rmoveto
          hintmask 11110000
          -45 -33 -32 -46 -45 33 -32 45 hvcurveto
          hintmask 11101000
          45 33 32 45 46 -33 32 -45 hvcurveto
          hintmask 11100100
          193 hmoveto
          -45 -33 -32 -46 -45 33 -32 45 45 33 32 45 46 -33 32 -45 hvcurveto
          hintmask 11101000
          -12 -769 rmoveto
          539 -172 -539 vlineto
          endchar
        </CharString>
        <CharString name="igrave">
          -353 21 -21 539 -20 hstem
          69 172 vstem
          244 600 rmoveto
          -106 168 -156 -55 130 -113 rlineto
          129 -600 rmoveto
          539 -172 -539 vlineto
          endchar
        </CharString>
        <CharString name="ij">
          -34 -201 137 -116 -21 222 -21 539 -20 83 183 hstemhm
          65 182 -178 172 129 196 -184 173 hintmask 0000000000000000
          hintmask 0111110100000000
          156 785 rmoveto
          -53 -38 -38 -53 -54 38 -38 53 53 38 38 54 53 -38 38 -53 hvcurveto
          312 hmoveto
          -57 -41 -38 -54 -53 41 -38 57 58 40 38 53 54 -40 38 -58 hvcurveto
          hintmask 1011101010000000
          -227 -785 rmoveto
          539 -172 -539 vlineto
          486 539 rmoveto
          -173 -544 hlineto
          -41 -21 -19 -32 1 vhcurveto
          -20 -21 7 12 -20 hvcurveto
          -44 -121 rlineto
          -23 37 48 -12 50 hhcurveto
          110 -1 86 65 121 vvcurveto
          endchar
        </CharString>
        <CharString name="imacron">
          -353 21 -21 539 -20 113 116 hstem
          69 172 vstem
          294 632 rmoveto
          116 -278 -116 vlineto
          225 -632 rmoveto
          539 -172 -539 vlineto
          endchar
        </CharString>
        <CharString name="infinity">
          190 85 116 196 116 hstem
          24 117 572 117 vstem
          625 513 rmoveto
          -103 -54 -57 -66 -43 hvcurveto
          66 -43 -54 57 -100 hhcurveto
          -117 -87 -91 -123 -123 87 -91 117 103 55 57 66 42 hvcurveto
          -66 43 54 -57 100 hhcurveto
          118 87 91 124 123 -87 90 -118 hvcurveto
          -397 -312 rmoveto
          -50 -37 41 57 56 37 42 50 68 40 -43 -53 35 hvcurveto
          -56 -35 -39 -44 -69 hhcurveto
          397 1 rmoveto
          -67 -40 42 54 -35 hvcurveto
          55 35 39 44 68 hhcurveto
          51 37 -41 -56 -57 -37 -41 -51 hvcurveto
          endchar
        </CharString>
        <CharString name="integral">
          -274 -138 118 750 121 hstemhm
          122 128 -101 126 hintmask 11010000
          403 829 rmoveto
          15 -36 -26 7 -32 hhcurveto
          hintmask 11100000
          -135 -52 -68 -176 hvcurveto
          hintmask 11010000
          -97 27 -310 -105 vvcurveto
          -83 -24 -32 -59 -21 -18 6 12 -26 vhcurveto
          -21 -110 rlineto
          -19 31 30 -7 46 hhcurveto
          136 52 68 177 hvcurveto
          hintmask 11100000
          105 -25 316 94 vvcurveto
          79 22 29 58 18 16 -3 -8 21 vhcurveto
          endchar
        </CharString>
        <CharString name="iogonek">
          -374 -203 87 -66 -21 224 -21 539 -20 83 183 hstemhm
          54 184 -178 172 -171 87 hintmask 00000000
          hintmask 01111100
          146 785 rmoveto
          -53 -39 -38 -54 -53 39 -38 53 54 38 38 53 54 -38 38 -54 hvcurveto
          hintmask 01111010
          86 -785 rmoveto
          539 -172 -539 vlineto
          hintmask 01111001
          48 hlineto
          -28 -42 -19 -39 -39 vvcurveto
          -62 47 -21 41 43 40 24 43 25 vhcurveto
          hintmask 10111010
          -44 51 rlineto
          -19 -13 -15 -12 -15 hhcurveto
          -13 -9 8 16 19 16 32 28 41 hvcurveto
          endchar
        </CharString>
        <CharString name="itilde">
          -353 21 -21 539 -20 98 155 -151 156 hstemhm
          -23 106 -14 172 -13 105 hintmask 00000000
          hintmask 11011000
          82 777 rmoveto
          -70 -35 -51 -105 hvcurveto
          106 hlineto
          29 10 14 20 vhcurveto
          hintmask 11100010
          29 26 -47 61 hhcurveto
          70 34 50 105 hvcurveto
          -105 hlineto
          -28 -10 -14 -21 vhcurveto
          hintmask 11011000
          -28 -28 47 -59 hhcurveto
          hintmask 11100100
          159 -777 rmoveto
          539 -172 -539 vlineto
          endchar
        </CharString>
        <CharString name="j">
          -345 -201 137 -116 -21 740 -20 83 183 hstemhm
          59 196 -184 173 hintmask 00000000
          hintmask 01111000
          157 785 rmoveto
          -57 -41 -38 -54 -53 41 -38 57 58 40 38 53 54 -40 38 -58 hvcurveto
          hintmask 10110100
          87 -246 rmoveto
          -173 -544 hlineto
          -41 -21 -19 -32 1 vhcurveto
          -20 -21 7 12 -20 hvcurveto
          -44 -121 rlineto
          -23 37 48 -12 50 hhcurveto
          110 -1 86 65 121 vvcurveto
          endchar
        </CharString>
        <CharString name="jcircumflex">
          -356 -201 135 -114 -21 740 -20 91 151 hstemhm
          71 173 hintmask 01111000
          333 610 rmoveto
          -113 151 rlineto
          -138 hlineto
          -113 -151 rlineto
          124 hlineto
          58 85 58 -85 rlineto
          35 -71 rmoveto
          -173 hlineto
          hintmask 10111000
          -534 vlineto
          -48 -20 -24 -37 1 vhcurveto
          -22 -21 7 12 -21 hvcurveto
          -40 -119 40 -22 49 -12 54 -1 rlinecurve
          117 -1 74 68 114 vvcurveto
          endchar
        </CharString>
        <CharString name="k">
          -34 21 -21 539 -20 223 -20 hstem
          74 173 vstem
          305 208 rmoveto
          117 -208 rlineto
          205 hlineto
          -204 332 198 207 rlineto
          -196 hlineto
          -178 -189 rlineto
          392 -173 -742 173 147 vlineto
          endchar
        </CharString>
        <CharString name="kcedilla">
          -34 -234 83 -31 -21 224 -21 539 -20 223 -20 hstemhm
          74 173 -101 97 hintmask 01111100
          305 208 rmoveto
          117 -208 rlineto
          205 hlineto
          -204 332 198 207 rlineto
          -196 hlineto
          -178 -189 rlineto
          392 -173 -742 vlineto
          hintmask 10111010
          30 hlineto
          -38 -76 rlineto
          2 11 15 1 9 hhcurveto
          27 18 -15 -23 hvcurveto
          -24 1 -18 -16 -27 hhcurveto
          -17 -18 8 11 -12 hvcurveto
          hintmask 01111100
          -31 -71 rlineto
          hintmask 10111010
          -19 27 37 -12 29 hhcurveto
          77 49 42 64 37 -28 32 -40 10 hvcurveto
          hintmask 01111100
          26 49 rlineto
          46 147 hlineto
          endchar
        </CharString>
        <CharString name="kgreenlandic">
          -40 21 -21 539 -20 hstem
          69 172 vstem
          299 208 rmoveto
          117 -208 rlineto
          205 hlineto
          -204 332 198 207 rlineto
          -196 hlineto
          -178 -189 rlineto
          189 -172 -539 172 147 vlineto
          endchar
        </CharString>
        <CharString name="l">
          -343 21 -21 742 -20 hstem
          74 173 vstem
          247 hmoveto
          742 -173 -742 vlineto
          endchar
        </CharString>
        <CharString name="lacute">
          -343 21 -21 742 -20 hstem
          74 173 vstem
          336 916 rmoveto
          -156 55 -106 -168 rlineto
          132 hlineto
          41 -803 rmoveto
          742 -173 -742 vlineto
          endchar
        </CharString>
        <CharString name="lcaron">
          -258 21 -21 742 -20 hstem
          74 173 35 165 vstem
          74 742 rmoveto
          -742 173 742 vlineto
          118 -65 rmoveto
          -48 -35 -34 -48 -26 10 -24 23 -15 hvcurveto
          -45 -107 rlineto
          82 hlineto
          73 106 rlineto
          13 20 9 21 25 vvcurveto
          53 -38 29 -44 vhcurveto
          endchar
        </CharString>
        <CharString name="lcommaaccent">
          -343 21 -21 742 -20 hstemhm
          74 173 -162 165 hintmask 11100000
          247 hmoveto
          742 -173 -742 vlineto
          94 -41 rmoveto
          -48 -35 -34 -49 -26 10 -23 23 -16 hvcurveto
          -45 -106 rlineto
          hintmask 11010000
          82 hlineto
          73 106 rlineto
          13 19 9 22 25 vvcurveto
          hintmask 11100000
          53 -38 29 -44 vhcurveto
          endchar
        </CharString>
        <CharString name="ldot">
          -271 21 -21 229 166 347 -20 hstemhm
          74 173 17 165 hintmask 11110000
          247 hmoveto
          742 -173 -742 vlineto
          hintmask 11111000
          273 395 rmoveto
          -49 -34 -34 -49 -49 34 -34 49 48 34 34 49 49 -34 34 -48 hvcurveto
          endchar
        </CharString>
        <CharString name="less">
          -154 70 509 hstem
          33 444 vstem
          477 457 rmoveto
          122 vlineto
          -444 -185 rlineto
          -139 vlineto
          444 -185 rlineto
          121 vlineto
          -332 133 rlineto
          endchar
        </CharString>
        <CharString name="lessequal">
          -154 2 110 hstem
          33 444 vstem
          477 527 rmoveto
          117 vlineto
          -444 -179 rlineto
          -134 vlineto
          444 -178 rlineto
          117 vlineto
          -332 128 rlineto
          332 -396 rmoveto
          110 -444 -110 vlineto
          endchar
        </CharString>
        <CharString name="literSign">
          -191 -6 114 511 90 hstem
          80 123.320007324 145.679992676 95 vstem
          323 709 rmoveto
          -88 -76 -69 -155 -28 hvcurveto
          -39 -240 -83 -58 24 -71 47 30 rlineto
          -94 7 42 -58 94 hhcurveto
          76 74 38 94 60 hvcurveto
          -51 61 rlineto
          -39 -32 -40 -40 -50 hhcurveto
          -46 -20 33 79 13 hvcurveto
          97 81 140 122 151 vvcurveto
          85 -46 50 -75 vhcurveto
          -4 -90 rmoveto
          19 11 -18 -30 -79 -63 -90 -59 -59 hvcurveto
          26 157 rlineto
          87 15 25 32 26 hhcurveto
          endchar
        </CharString>
        <CharString name="logicalnot">
          -86 317 109 hstem
          390 124 vstem
          514 426 rmoveto
          -481 -109 357 -180 124 hlineto
          endchar
        </CharString>
        <CharString name="lozenge">
          -156 -14 685 hstem
          25 458 vstem
          483 330 rmoveto
          -229 341 -229 -341 228 -344 rlineto
          -103 344 rmoveto
          104 154 104 -154 -105 -155 rlineto
          endchar
        </CharString>
        <CharString name="lslash">
          -321 21 -21 539 -20 223 -20 hstem
          95 173 vstem
          268 402 rmoveto
          111 32 -29 105 -82 -24 rlineto
          227 -173 -277 vlineto
          -129 -37 30 -104 99 28 rlineto
          -352 173 vlineto
          endchar
        </CharString>
        <CharString name="m">
          373 21 -21 395 144 -144 152 hstemhm
          69 172 199 173 198 172 hintmask 10111100
          789 547 rmoveto
          -89 -1 -66 -41 -35 -80 rrcurveto
          76 -27 -65 46 -88 hhcurveto
          -79 -1 -62 -32 -37 -64 rrcurveto
          hintmask 11011100
          89 -172 -539 172 267 vlineto
          hintmask 10111100
          73 41 53 66 2 vhcurveto
          57 35 -39 -64 hvcurveto
          -292 173 267 vlineto
          73 40 53 65 2 vhcurveto
          57 36 -39 -64 hvcurveto
          -292 172 340 vlineto
          126 -76 81 -118 vhcurveto
          endchar
        </CharString>
        <CharString name="macron">
          632 116 hstem
          36 278 vstem
          314 632 rmoveto
          116 -278 -116 vlineto
          endchar
        </CharString>
        <CharString name="minus">
          -154 272 109 hstem
          33 444 vstem
          477 272 rmoveto
          109 -444 -109 vlineto
          endchar
        </CharString>
        <CharString name="mu">
          20 -173 -21 194 145 -130 -21 545 -20 hstemhm
          74 173 195 173 hintmask 10111100
          615 539 rmoveto
          -173 -266 hlineto
          hintmask 11011100
          -73 -39 -54 -66 -1 vhcurveto
          -55 -35 39 64 hvcurveto
          291 -173 -733 173 vlineto
          hintmask 10111100
          188 vlineto
          20 -1 rlineto
          78 60 32 64 37 hvcurveto
          hintmask 11011100
          -89 173 vlineto
          endchar
        </CharString>
        <CharString name="multiply">
          -154 131 391 hstem
          59 391 vstem
          332 327 rmoveto
          118 118 -77 77 -118 -118 -119 118 -77 -77 119 -118 -119 -119 77 -77 119 119 118 -119 77 77 rlineto
          endchar
        </CharString>
        <CharString name="n">
          9 21 -21 394 145 -145 153 hstemhm
          69 173 205 172 hintmask 10111000
          422 547 rmoveto
          -80 -1 -62 -32 -38 -63 rrcurveto
          hintmask 11011000
          88 -173 -539 173 285 vlineto
          hintmask 10111000
          64 7 40 45 63 hhcurveto
          58 37 -39 -63 hvcurveto
          -292 172 340 vlineto
          126 -78 81 -119 vhcurveto
          endchar
        </CharString>
        <CharString name="nacute">
          9 21 -21 394 145 -145 153 hstemhm
          69 173 205 172 hintmask 10111000
          399 600 rmoveto
          130 113 -156 55 -106 -168 rlineto
          155 -53 rmoveto
          -80 -1 -62 -32 -38 -63 rrcurveto
          hintmask 11011000
          88 -173 -539 173 285 vlineto
          hintmask 10111000
          64 7 40 45 63 hhcurveto
          58 37 -39 -63 hvcurveto
          -292 172 340 vlineto
          126 -78 81 -119 vhcurveto
          endchar
        </CharString>
        <CharString name="nbspace">
          -432 endchar
        </CharString>
        <CharString name="ncaron">
          9 21 -21 394 145 -145 153 50 164 hstemhm
          69 173 205 172 hintmask 10111100
          274 597 rmoveto
          150 hlineto
          121 164 rlineto
          -135 hlineto
          -61 -92 -61 92 rlineto
          -135 hlineto
          269 -214 rmoveto
          -80 -1 -62 -32 -38 -63 rrcurveto
          hintmask 11011100
          88 -173 -539 173 285 vlineto
          hintmask 10111100
          64 7 40 45 63 hhcurveto
          58 37 -39 -63 hvcurveto
          -292 172 340 vlineto
          126 -78 81 -119 vhcurveto
          endchar
        </CharString>
        <CharString name="ncommaaccent">
          9 21 -21 394 145 -145 153 hstemhm
          69 173 23 165 17 172 hintmask 10110100
          422 547 rmoveto
          -80 -1 -62 -32 -38 -63 rrcurveto
          hintmask 11010100
          88 -173 -539 173 285 vlineto
          hintmask 10110100
          64 7 40 45 63 hhcurveto
          58 37 -39 -63 hvcurveto
          -292 172 340 vlineto
          126 -78 81 -119 vhcurveto
          hintmask 10111100
          -74 -588 rmoveto
          -48 -35 -34 -49 -26 10 -23 23 -16 hvcurveto
          -45 -106 rlineto
          82 hlineto
          73 106 rlineto
          13 19 9 22 25 vvcurveto
          53 -38 29 -44 vhcurveto
          endchar
        </CharString>
        <CharString name="nine">
          -32 -7 137 111 130 196 142 hstem
          30 165 228 171 vstem
          270 -7 rmoveto
          197 127 145 223 215 -114 133 -188 -158 -104 -94 -148 -136 88 -90 138 78 56 28 47 33 hvcurveto
          -115 2 -54 -71 -112 hhcurveto
          -54 -53 16 29 -40 hvcurveto
          -68 -124 rlineto
          -36 59 89 -22 78 hhcurveto
          26 378 rmoveto
          -64 -37 35 60 65 40 36 64 72 33 -46 -52 -57 -39 -41 -69 hvcurveto
          endchar
        </CharString>
        <CharString name="nine.dnom">
          -252 -5 91 55 86 101 94 hstem
          24 113 127 116 vstem
          175 -5 rmoveto
          125 80 86 133 128 -72 80 -119 -100 -65 -56 -89 -81 55 -55 85 48 34 19 26 18 hvcurveto
          -66 2 -34 -34 -64 hhcurveto
          -35 -31 9 17 -25 hvcurveto
          -46 -82 rlineto
          -21 37 56 -14 51 hhcurveto
          17 232 rmoveto
          -36 -19 18 31 35 20 17 37 39 18 -21 -29 -31 -20 -20 -39 hvcurveto
          endchar
        </CharString>
        <CharString name="nine.numr">
          -252 278 91 55 86 102 93 hstem
          24 113 127 116 vstem
          175 278 rmoveto
          125 80 87 132 128 -72 80 -119 -100 -65 -56 -88 -82 55 -55 85 48 34 20 25 18 hvcurveto
          -65 2 -34 -35 -64 hhcurveto
          -35 -31 9 17 -25 hvcurveto
          -46 -81 rlineto
          -22 37 56 -14 51 hhcurveto
          17 232 rmoveto
          -36 -19 18 32 34 20 18 37 39 18 -22 -29 -31 -20 -20 -39 hvcurveto
          endchar
        </CharString>
        <CharString name="notequal">
          -154 165 109 106 109 hstem
          33 444 vstem
          332 380 rmoveto
          145 109 -110 hlineto
          43 137 rlineto
          -130 hlineto
          -43 -137 rlineto
          -204 -109 169 hlineto
          -33 -106 rlineto
          -136 -109 101 hlineto
          -45 -143 rlineto
          130 hlineto
          45 143 rlineto
          213 109 -178 hlineto
          endchar
        </CharString>
        <CharString name="ntilde">
          9 21 -21 394 145 -145 153 70 155 -151 156 hstemhm
          69 173 -67 106 145 105 -84 172 hintmask 0000000000000000
          hintmask 1010101010000000
          311 664 rmoveto
          hintmask 1011010100000000
          29 26 -47 61 hhcurveto
          70 34 50 105 hvcurveto
          -105 hlineto
          -28 -10 -14 -21 vhcurveto
          hintmask 1010110010000000
          -28 -28 47 -59 hhcurveto
          -70 -35 -51 -105 hvcurveto
          hintmask 1010101010000000
          106 hlineto
          29 10 14 20 vhcurveto
          hintmask 1011010010000000
          111 -117 rmoveto
          -80 -1 -62 -32 -38 -63 rrcurveto
          hintmask 1101010010000000
          88 -173 -539 173 285 vlineto
          hintmask 1011010010000000
          64 7 40 45 63 hhcurveto
          58 37 -39 -63 hvcurveto
          -292 172 340 vlineto
          126 -78 81 -119 vhcurveto
          endchar
        </CharString>
        <CharString name="numbersign">
          71 21 -21 156 119 143 119 163 -20 hstem
          15 705 vstem
          570 418 rmoveto
          137 hlineto
          13 119 rlineto
          -135 hlineto
          20 163 rlineto
          -124 hlineto
          -20 -163 rlineto
          -140 hlineto
          20 163 rlineto
          -124 hlineto
          -20 -163 rlineto
          -135 hlineto
          -13 -119 rlineto
          133 hlineto
          -17 -143 rlineto
          -136 hlineto
          -14 -119 rlineto
          135 hlineto
          -19 -156 rlineto
          124 hlineto
          19 156 rlineto
          139 hlineto
          -19 -156 rlineto
          124 hlineto
          19 156 rlineto
          136 hlineto
          14 119 rlineto
          -135 hlineto
          -106 143 rmoveto
          -18 -143 rlineto
          -139 hlineto
          18 143 rlineto
          endchar
        </CharString>
        <CharString name="o">
          -27 -6 134 280 137 hstem
          24 174 241 174 vstem
          319 545 rmoveto
          -177 -118 -109 -166 -166 118 -110 177 176 118 110 166 166 -118 109 -176 hvcurveto
          -137 vmoveto
          71 49 -57 -83 -84 -49 -56 -71 -72 -49 56 84 83 49 57 72 hvcurveto
          endchar
        </CharString>
        <CharString name="oacute">
          -27 -6 134 280 137 hstem
          24 174 241 174 vstem
          494 713 rmoveto
          -156 55 -106 -168 rlineto
          132 hlineto
          -45 -55 rmoveto
          -177 -118 -109 -166 -166 118 -110 177 176 118 110 166 166 -118 109 -176 hvcurveto
          -137 vmoveto
          71 49 -57 -83 -84 -49 -56 -71 -72 -49 56 84 83 49 57 72 hvcurveto
          endchar
        </CharString>
        <CharString name="ocircumflex">
          -27 -6 134 280 137 64 151 hstem
          24 174 241 174 vstem
          501 609 rmoveto
          -113 151 rlineto
          -138 hlineto
          -113 -151 rlineto
          124 hlineto
          58 85 58 -85 rlineto
          -58 -64 rmoveto
          -177 -118 -109 -166 -166 118 -110 177 176 118 110 166 166 -118 109 -176 hvcurveto
          -137 vmoveto
          71 49 -57 -83 -84 -49 -56 -71 -72 -49 56 84 83 49 57 72 hvcurveto
          endchar
        </CharString>
        <CharString name="odieresis">
          -27 -6 134 280 137 69 155 hstemhm
          24 174 -53 156 37 156 -55 174 hintmask 00000000
          hintmask 11101100
          223 769 rmoveto
          -45 -33 -32 -46 -45 33 -32 45 45 33 32 45 46 -33 32 -45 hvcurveto
          193 hmoveto
          -45 -33 -32 -46 -45 33 -32 45 45 33 32 45 46 -33 32 -45 hvcurveto
          hintmask 11110010
          -97 -224 rmoveto
          -177 -118 -109 -166 -166 118 -110 177 176 118 110 166 166 -118 109 -176 hvcurveto
          -137 vmoveto
          71 49 -57 -83 -84 -49 -56 -71 -72 -49 56 84 83 49 57 72 hvcurveto
          endchar
        </CharString>
        <CharString name="oe">
          355 -6 129 -129 134 104 83 93 137 -116 116 hstemhm
          24 174 624 172 hintmask 01101110
          715 545 rmoveto
          -86 -66 -33 -58 -41 hvcurveto
          58 -44 -69 33 -90 hhcurveto
          -177 -118 -109 -166 -166 118 -110 177 89 69 33 57 44 hvcurveto
          -57 42 66 -33 90 hhcurveto
          100 81 35 60 56 hvcurveto
          hintmask 10101110
          -91 89 rlineto
          -36 -37 -46 -19 -48 hhcurveto
          -67 -49 39 70 -15 hvcurveto
          391 hlineto
          hintmask 01101110
          189 9 -109 124 -179 hhcurveto
          -113 -230 rmoveto
          67 11 42 47 61 hhcurveto
          63 43 -48 -66 hvcurveto
          -503 -187 rmoveto
          -72 -49 56 84 hvcurveto
          hintmask 01110110
          83 49 57 72 71 49 -57 -83 vhcurveto
          hintmask 01101110
          -84 -49 -56 -71 vhcurveto
          endchar
        </CharString>
        <CharString name="ogonek">
          -203 87 -87 221 hstemhm
          78 87 hintmask 00000000
          hintmask 01100000
          138 18 rmoveto
          -34 -46 -26 -47 -45 vvcurveto
          -62 48 -21 40 44 39 24 43 25 vhcurveto
          hintmask 10100000
          -44 51 rlineto
          -19 -13 -15 -12 -15 hhcurveto
          -12 -10 8 16 hvcurveto
          hintmask 01100000
          23 21 38 36 49 vhcurveto
          endchar
        </CharString>
        <CharString name="ograve">
          -27 -6 134 280 137 hstem
          24 174 241 174 vstem
          407 600 rmoveto
          -106 168 -156 -55 130 -113 rlineto
          44 -55 rmoveto
          -177 -118 -109 -166 -166 118 -110 177 176 118 110 166 166 -118 109 -176 hvcurveto
          -137 vmoveto
          71 49 -57 -83 -84 -49 -56 -71 -72 -49 56 84 83 49 57 72 hvcurveto
          endchar
        </CharString>
        <CharString name="ohungarumlaut">
          -27 -6 134 280 137 hstem
          24 174 241 174 vstem
          361 721 rmoveto
          -131 48 -85 -171 rlineto
          126 hlineto
          284 123 rmoveto
          -131 48 -85 -171 rlineto
          126 hlineto
          -146 -53 rmoveto
          -177 -118 -109 -166 -166 118 -110 177 176 118 110 166 166 -118 109 -176 hvcurveto
          -137 vmoveto
          71 49 -57 -83 -84 -49 -56 -71 -72 -49 56 84 83 49 57 72 hvcurveto
          endchar
        </CharString>
        <CharString name="omacron">
          -27 -6 134 280 137 87 116 hstemhm
          24 174 -19 278 -18 174 hintmask 00000000
          hintmask 11101000
          457 632 rmoveto
          116 -278 -116 vlineto
          hintmask 11110100
          140 -87 rmoveto
          -177 -118 -109 -166 -166 118 -110 177 176 118 110 166 166 -118 109 -176 hvcurveto
          -137 vmoveto
          71 49 -57 -83 -84 -49 -56 -71 -72 -49 56 84 83 49 57 72 hvcurveto
          endchar
        </CharString>
        <CharString name="one">
          -252 21 -21 558 143 hstem
          136 178 vstem
          314 hmoveto
          701 -307 -143 129 -558 vlineto
          endchar
        </CharString>
        <CharString name="one.dnom">
          -390 21 -21 324 93 hstem
          89 122 vstem
          89 hmoveto
          122 417 -201 -93 79 hlineto
          endchar
        </CharString>
        <CharString name="one.numr">
          -390 607 93 hstem
          89 122 vstem
          89 283 rmoveto
          122 417 -201 -93 79 hlineto
          endchar
        </CharString>
        <CharString name="oneeighth">
          231 -5 85 -59 -21 176 84 85 77 185 93 hstemhm
          89 122 294 115 -92 102 114 102 -92 115 hintmask 0000000000000000
          hintmask 0111110110000000
          67 hmoveto
          162 hlineto
          500 701 rlineto
          -162 hlineto
          -478 -418 rmoveto
          122 417 -201 -93 79 hlineto
          597 -185 rmoveto
          -96 -62 -43 -67 -35 23 -34 35 -20 hvcurveto
          hintmask 1011111001000000
          -49 -19 -32 -41 -47 vvcurveto
          -74 71 -47 111 111 71 47 76 45 -29 41 -46 19 vhcurveto
          hintmask 1011110010000000
          32 19 20 32 34 vvcurveto
          hintmask 0111110110000000
          69 -62 45 -98 vhcurveto
          1 -77 rmoveto
          37 20 -15 -28 hvcurveto
          hintmask 1011110110000000
          -27 -20 -15 -37 -37 -20 15 27 vhcurveto
          hintmask 0111110110000000
          28 20 15 37 vhcurveto
          hintmask 1011111001000000
          -169 vmoveto
          43 24 -17 -31 -32 -24 -16 -43 -43 -24 16 32 31 24 17 43 hvcurveto
          endchar
        </CharString>
        <CharString name="onehalf">
          238 0 90 237 95 185 93 hstem
          89 122 527 127 vstem
          67 hmoveto
          162 hlineto
          500 701 rlineto
          -162 hlineto
          -478 -418 rmoveto
          122 417 -201 -93 79 hlineto
          625 -185 rmoveto
          -64 -62 -24 -40 -57 hvcurveto
          46 -84 rlineto
          32 40 44 21 34 hhcurveto
          27 16 -12 -20 -18 -17 -25 -21 -23 hvcurveto
          -155 -154 rlineto
          -75 331 90 -176 vlineto
          82 82 rlineto
          49 47 34 46 46 vvcurveto
          67 -63 44 -88 vhcurveto
          endchar
        </CharString>
        <CharString name="onequarter">
          217 0 171 -84 84 436 93 hstemhm
          89 122 486 113 hintmask 10111000
          67 hmoveto
          162 hlineto
          500 701 rlineto
          -162 hlineto
          -478 -418 rmoveto
          122 417 -201 -93 79 hlineto
          608 -436 rmoveto
          -83 hlineto
          127 246 rlineto
          -117 hlineto
          hintmask 01111000
          -134 -251 rlineto
          -79 207 vlineto
          hintmask 10111000
          -87 113 vlineto
          hintmask 01111000
          87 58 vlineto
          hintmask 10111000
          84 -58 89 -113 vlineto
          endchar
        </CharString>
        <CharString name="onesuperior">
          -390 607 93 hstem
          89 122 vstem
          89 283 rmoveto
          122 417 -201 -93 79 hlineto
          endchar
        </CharString>
        <CharString name="ordfeminine">
          -271 458 68 69 54 51 85 hstem
          21 112 106 116 vstem
          204 785 rmoveto
          -50 -57 -12 -21 -55 hvcurveto
          28 -76 rlineto
          15 39 38 9 29 hhcurveto
          42 21 -17 -29 hvcurveto
          -5 -87 vlineto
          -84 -47 -34 -62 -60 43 -40 70 47 36 16 30 22 hvcurveto
          -41 116 210 vlineto
          74 1 -57 43 -95 hhcurveto
          -29 -259 rmoveto
          -27 -15 14 22 22 16 11 28 hvcurveto
          62 -34 hlineto
          -24 -14 -23 -11 -27 hhcurveto
          endchar
        </CharString>
        <CharString name="ordmasculine">
          -251 454 88 152 91 hstem
          20 119 134 120 vstem
          206 785 rmoveto
          -112 -74 -66 -100 -99 74 -66 112 113 74 66 99 100 -74 66 -113 hvcurveto
          -91 vmoveto
          40 27 -30 -46 -46 -27 -30 -40 -40 -27 30 46 46 27 30 40 hvcurveto
          endchar
        </CharString>
        <CharString name="oslash">
          -27 -6 120 -96 -21 425 123 -3 -20 23 -20 hstemhm
          24 163 263 163 hintmask 10100110
          485 671 rmoveto
          -71 hlineto
          hintmask 10010110
          -42 -129 rlineto
          hintmask 01100110
          2 -17 -18 1 -18 hhcurveto
          -177 -118 -109 -166 -125 67 -94 109 -38 hvcurveto
          -50 -155 rlineto
          71 hlineto
          45 139 rlineto
          hintmask 10001110
          -2 17 18 -1 18 hhcurveto
          176 118 110 166 125 -67 93 -108 38 hvcurveto
          -251 -258 rmoveto
          hintmask 10100110
          92 53 62 79 vhcurveto
          14 -1 -92 -282 rlineto
          hintmask 10001110
          -34 26 -20 46 57 vvcurveto
          117 -153 rmoveto
          92 282 rlineto
          33 -27 21 -45 -57 vvcurveto
          -93 -53 -61 -78 vhcurveto
          endchar
        </CharString>
        <CharString name="otilde">
          -27 -6 134 280 137 72 155 -151 156 hstemhm
          24 174 -58 106 145 105 -57 174 hintmask 00000000
          hintmask 11010101
          245 777 rmoveto
          -70 -35 -51 -105 hvcurveto
          106 hlineto
          29 10 14 20 vhcurveto
          hintmask 11101010
          29 26 -47 61 hhcurveto
          70 34 50 105 hvcurveto
          -105 hlineto
          -28 -10 -14 -21 vhcurveto
          hintmask 11010101
          -28 -28 47 -59 hhcurveto
          hintmask 11101001
          74 -232 rmoveto
          -177 -118 -109 -166 -166 118 -110 177 176 118 110 166 166 -118 109 -176 hvcurveto
          -137 vmoveto
          71 49 -57 -83 -84 -49 -56 -71 -72 -49 56 84 83 49 57 72 hvcurveto
          endchar
        </CharString>
        <CharString name="p">
          21 -173 -21 188 137 281 127 -127 133 hstemhm
          74 173 240 174 hintmask 11011100
          408 545 rmoveto
          -68 -55 -28 -49 -38 hvcurveto
          hintmask 11101100
          71 -173 -733 173 266 vlineto
          -50 38 57 -28 70 hhcurveto
          151 98 109 164 hvcurveto
          hintmask 11011100
          167 -101 111 -152 vhcurveto
          -42 -414 rmoveto
          -70 -49 57 84 82 49 58 70 72 49 -58 -82 -83 -49 -58 -72 hvcurveto
          endchar
        </CharString>
        <CharString name="paragraph">
          -14 -86 -21 752 97 hstem
          223 128 100 129 vstem
          580 -107 rmoveto
          849 -343 vlineto
          -176 -67 -105 -108 -80 41 -124 161 hvcurveto
          27 -432 128 752 100 -752 hlineto
          endchar
        </CharString>
        <CharString name="parenleft">
          -318 742 -20 hstem
          61 162 vstem
          189 742 rmoveto
          -82 -117 -46 -153 -163 vvcurveto
          -163 46 -153 82 -117 vhcurveto
          155 hlineto
          -73 117 -48 153 163 vvcurveto
          163 48 153 73 117 vhcurveto
          endchar
        </CharString>
        <CharString name="parenright">
          -306 742 -20 hstem
          171 162 vstem
          51 742 rmoveto
          73 -117 47 -153 -163 vvcurveto
          -163 -47 -153 -73 -117 vhcurveto
          155 hlineto
          82 117 45 153 163 vvcurveto
          163 -45 153 -82 117 vhcurveto
          endchar
        </CharString>
        <CharString name="partialdiff">
          -32 -8 143 195 130 110 138 hstem
          28 165 227 171 vstem
          275 708 rmoveto
          -81 -90 -26 -41 -63 hvcurveto
          68 -126 rlineto
          37 44 53 18 58 hhcurveto
          107 55 -70 -127 -6 hvcurveto
          52 -26 -55 35 -79 hhcurveto
          -141 -91 -90 -137 -148 104 -93 157 188 114 136 219 218 -123 143 -193 hvcurveto
          18 -378 rmoveto
          69 39 -40 -58 -52 -33 -45 -72 -64 -39 35 64 62 36 34 64 hvcurveto
          endchar
        </CharString>
        <CharString name="percent">
          359 -4 93 -68 -21 280 93 -45 92 191 92 hstemhm
          31 111 170 110 179 111 170 110 hintmask 1001111110000000
          227 703 rmoveto
          -120 -76 -81 -130 hvcurveto
          hintmask 1010111110000000
          -131 76 -81 120 120 75 81 131 vhcurveto
          hintmask 1001111110000000
          130 -75 81 -120 vhcurveto
          hintmask 0110111110000000
          -49 -703 rmoveto
          162 hlineto
          500 701 rlineto
          -162 hlineto
          -451 -90 rmoveto
          53 32 -45 -74 -74 -32 -45 -53 -53 -32 45 74 74 32 45 53 hvcurveto
          hintmask 1001111110000000
          570 -191 rmoveto
          -120 -76 -81 -130 -131 76 -82 120 120 75 82 131 130 -75 81 -120 hvcurveto
          -92 vmoveto
          53 32 -45 -74 -75 -32 -45 -53 -53 -32 45 75 74 32 45 53 hvcurveto
          endchar
        </CharString>
        <CharString name="period">
          -421 -8 167 hstem
          38 167 vstem
          121 159 rmoveto
          -49 -34 -34 -49 -50 34 -34 49 49 35 34 50 49 -35 34 -49 hvcurveto
          endchar
        </CharString>
        <CharString name="periodcentered">
          -424 207 164 hstem
          38 163 vstem
          119 371 rmoveto
          -47 -34 -34 -48 -48 34 -34 47 48 34 34 48 48 -34 34 -48 hvcurveto
          endchar
        </CharString>
        <CharString name="perthousand">
          812 -4 93 -68 -21 280 93 -45 92 191 92 hstemhm
          31 111 170 110 179 111 170 110 62 111 170 110 hintmask 1001111111100000
          227 703 rmoveto
          -120 -76 -81 -130 hvcurveto
          hintmask 0010011000000000
          -131 76 -81 120 120 75 81 131 vhcurveto
          hintmask 1001111111100000
          130 -75 81 -120 vhcurveto
          hintmask 0110111000000000
          -49 -703 rmoveto
          162 hlineto
          500 701 rlineto
          -162 hlineto
          -451 -90 rmoveto
          53 32 -45 -74 -74 -32 -45 -53 -53 -32 45 74 74 32 45 53 hvcurveto
          hintmask 1001000111100000
          570 -191 rmoveto
          -120 -76 -81 -130 -131 76 -82 120 120 75 82 131 130 -75 81 -120 hvcurveto
          453 hmoveto
          -120 -76 -81 -130 -131 76 -82 120 120 75 82 131 130 -75 81 -120 hvcurveto
          -453 -92 rmoveto
          53 32 -45 -74 -75 -32 -45 -53 -53 -32 45 75 74 32 45 53 hvcurveto
          453 hmoveto
          53 32 -45 -74 -75 -32 -45 -53 -53 -32 45 75 74 32 45 53 hvcurveto
          endchar
        </CharString>
        <CharString name="pi">
          65 21 -21 418 121 hstem
          -16 134 331 143 vstem
          592 418 rmoveto
          126 hlineto
          -1 121 rlineto
          -553 hlineto
          -105 -76 -66 -89 1 hvcurveto
          -44 15 -54 22 -41 vhcurveto
          119 41 rlineto
          -13 23 -9 27 19 vvcurveto
          37 -1 29 26 40 hhcurveto
          31 hlineto
          -44 -418 rlineto
          142 hlineto
          45 418 rlineto
          89 -418 143 hlineto
          endchar
        </CharString>
        <CharString name="plus">
          -154 272 109 168 -20 hstem
          200 109 vstem
          477 272 rmoveto
          109 -168 168 -109 -168 -167 -109 167 -168 109 168 vlineto
          endchar
        </CharString>
        <CharString name="plusminus">
          -154 2 110 236 105 hstem
          200 109 vstem
          477 453 rmoveto
          -168 162 -109 -162 -167 -105 167 -161 109 161 168 hlineto
          -444 -236 rmoveto
          -110 444 110 vlineto
          endchar
        </CharString>
        <CharString name="product">
          78 -173 -21 800 136 hstem
          70 173 256 173 vstem
          672 -194 rmoveto
          936 -602 -936 173 800 256 -800 vlineto
          endchar
        </CharString>
        <CharString name="q">
          22 -173 -21 187 134 281 131 -131 138 hstemhm
          25 173 241 173 hintmask 00000000
          hintmask 11101100
          612 539 rmoveto
          -173 hlineto
          hintmask 11011100
          -71 vlineto
          50 -38 -57 28 -71 hhcurveto
          -149 -99 -109 -165 -167 100 -112 152 69 55 28 50 38 hvcurveto
          -265 173 vlineto
          -293 321 rmoveto
          -72 -48 58 83 -1 hvcurveto
          83 1 48 57 72 hhcurveto
          72 48 -57 -83 -83 -48 -58 -72 hvcurveto
          endchar
        </CharString>
        <CharString name="question">
          -192 -8 167 407 137 hstemhm
          3 133 7 167 -146 129 -6 159 hintmask 11100100
          136 475 rmoveto
          62 1 28 29 50 hhcurveto
          45 27 -20 -45 hvcurveto
          hintmask 11101000
          -99 -123 -8 -155 vvcurveto
          129 hlineto
          hintmask 11100100
          120 153 18 152 vvcurveto
          112 -82 62 -133 -141 -85 -84 -143 -2 vhcurveto
          hintmask 11010000
          223 -317 rmoveto
          -49 -34 -34 -49 -50 34 -34 49 49 35 34 50 49 -35 34 -49 hvcurveto
          endchar
        </CharString>
        <CharString name="questiondown">
          -192 -164 137 407 167 hstemhm
          25 159 -22 167 -150 129 28 133 hintmask 00000000
          hintmask 11010000
          246 380 rmoveto
          48 35 34 49 50 -35 34 -48 -49 -35 -34 -50 -49 35 -34 49 hvcurveto
          hintmask 11100100
          90 -316 rmoveto
          -62 -2 -27 -29 -50 hhcurveto
          -46 -27 20 44 hvcurveto
          hintmask 11001100
          100 124 8 155 vvcurveto
          -129 hlineto
          hintmask 11100100
          -120 -154 -18 -152 vvcurveto
          -112 83 -62 133 141 85 84 143 2 vhcurveto
          endchar
        </CharString>
        <CharString name="quotedbl">
          -225 427 273 hstem
          60 130 59 130 vstem
          190 427 rmoveto
          273 -130 -273 vlineto
          319 hmoveto
          273 -130 -273 vlineto
          endchar
        </CharString>
        <CharString name="quotedblbase">
          -238 -96 254 hstemhm
          39 165 20 165 hintmask 11000000
          122 158 rmoveto
          -48 -35 -34 -48 -26 10 -24 23 -15 hvcurveto
          -45 -107 rlineto
          82 hlineto
          73 106 rlineto
          13 20 9 21 25 vvcurveto
          53 -38 29 -44 vhcurveto
          hintmask 11100000
          185 hmoveto
          -48 -35 -34 -48 -26 10 -24 23 -15 hvcurveto
          -45 -107 rlineto
          82 hlineto
          73 106 rlineto
          13 20 9 21 25 vvcurveto
          53 -38 29 -44 vhcurveto
          endchar
        </CharString>
        <CharString name="quotedblleft">
          -270 450 254 -107 107 0 -20 hstemhm
          27 165 20 165 hintmask 00110000
          204 704 rmoveto
          -82 hlineto
          -73 -106 rlineto
          hintmask 10010000
          -13 -20 -9 -21 -25 vvcurveto
          -53 38 -29 44 48 35 34 48 vhcurveto
          hintmask 01010000
          26 -10 24 -23 15 vhcurveto
          230 107 rmoveto
          hintmask 00111000
          -82 hlineto
          -73 -106 rlineto
          hintmask 10011000
          -13 -20 -9 -21 -25 vvcurveto
          -53 38 -29 44 48 35 34 48 vhcurveto
          hintmask 01011000
          26 -10 24 -23 15 vhcurveto
          endchar
        </CharString>
        <CharString name="quotedblright">
          -252 447 254 0 -20 hstemhm
          39 165 20 165 hintmask 01100000
          122 701 rmoveto
          -48 -35 -34 -48 -26 10 -24 23 -15 hvcurveto
          hintmask 10100000
          -45 -107 rlineto
          82 hlineto
          73 106 rlineto
          13 20 9 21 25 vvcurveto
          hintmask 01100000
          53 -38 29 -44 vhcurveto
          hintmask 01110000
          185 hmoveto
          -48 -35 -34 -48 -26 10 -24 23 -15 hvcurveto
          hintmask 10110000
          -45 -107 rlineto
          82 hlineto
          73 106 rlineto
          13 20 9 21 25 vvcurveto
          hintmask 01110000
          53 -38 29 -44 vhcurveto
          endchar
        </CharString>
        <CharString name="quoteleft">
          -423 597 106 0 -20 hstemhm
          27 165 hintmask 01100000
          204 703 rmoveto
          -82 hlineto
          -73 -105 rlineto
          -13 -20 -9 -21 -25 vvcurveto
          -53 38 -29 44 vhcurveto
          hintmask 10100000
          48 35 34 48 26 -10 23 -22 16 hvcurveto
          endchar
        </CharString>
        <CharString name="quoteright">
          -423 701 -20 hstem
          39 165 vstem
          122 701 rmoveto
          -48 -35 -34 -49 -26 10 -23 23 -16 hvcurveto
          -45 -106 rlineto
          82 hlineto
          73 106 rlineto
          13 19 9 21 26 vvcurveto
          52 -38 30 -44 vhcurveto
          endchar
        </CharString>
        <CharString name="quotesinglbase">
          -423 -96 254 hstem
          39 165 vstem
          122 158 rmoveto
          -48 -35 -34 -48 -26 10 -24 23 -15 hvcurveto
          -45 -107 rlineto
          82 hlineto
          73 106 rlineto
          13 20 9 21 25 vvcurveto
          53 -38 29 -44 vhcurveto
          endchar
        </CharString>
        <CharString name="quotesingle">
          -414 427 273 hstemhm
          60 130 hintmask 00000000
          hintmask 11000000
          190 427 rmoveto
          273 -130 -273 vlineto
          endchar
        </CharString>
        <CharString name="r">
          -237 21 -21 539 -20 28 -20 hstemhm
          69 173 hintmask 00000000
          hintmask 11010000
          242 539 rmoveto
          -173 -539 173 277 hlineto
          9 76 66 47 100 -9 rrcurveto
          hintmask 10110000
          156 vlineto
          -77 -1 -61 -35 -37 -63 rrcurveto
          endchar
        </CharString>
        <CharString name="racute">
          -237 21 -21 539 -20 28 -20 hstemhm
          69 173 hintmask 10110000
          270 600 rmoveto
          130 113 -156 55 -106 -168 rlineto
          hintmask 11010000
          104 -61 rmoveto
          -173 -539 173 277 hlineto
          9 76 66 47 100 -9 rrcurveto
          hintmask 10110000
          156 vlineto
          -77 -1 -61 -35 -37 -63 rrcurveto
          endchar
        </CharString>
        <CharString name="radical">
          44 273 135 338 -20 hstem
          2 718 vstem
          246 408 rmoveto
          -244 -135 126 hlineto
          137 -430 rlineto
          184 hlineto
          271 903 rlineto
          -165 hlineto
          -197 -731 rlineto
          endchar
        </CharString>
        <CharString name="rcaron">
          -237 21 -21 539 -20 28 -20 70 164 hstemhm
          69 173 hintmask 10111000
          145 597 rmoveto
          150 hlineto
          121 164 rlineto
          -135 hlineto
          -61 -92 -61 92 rlineto
          -135 hlineto
          hintmask 11011000
          218 -222 rmoveto
          -173 -539 173 277 hlineto
          9 76 66 47 100 -9 rrcurveto
          hintmask 10111000
          156 vlineto
          -77 -1 -61 -35 -37 -63 rrcurveto
          endchar
        </CharString>
        <CharString name="rcommaaccent">
          -237 21 -21 539 -20 28 -20 hstemhm
          69 173 -168 165 hintmask 00000000
          hintmask 11010000
          242 539 rmoveto
          -173 -539 173 277 hlineto
          9 76 66 47 100 -9 rrcurveto
          hintmask 10110000
          156 vlineto
          -77 -1 -61 -35 -37 -63 rrcurveto
          hintmask 10101000
          -85 -489 rmoveto
          -48 -35 -34 -49 -26 10 -23 23 -16 hvcurveto
          -45 -106 rlineto
          82 hlineto
          73 106 rlineto
          13 19 9 22 25 vvcurveto
          53 -38 29 -44 vhcurveto
          endchar
        </CharString>
        <CharString name="registered">
          61 9 80 201 62 107 61 89 80 hstem
          24 80 130 79 116 76 117 79 vstem
          363 689 rmoveto
          -191 -148 -156 -185 -185 147 -154 190 191 149 156 185 186 -148 153 -190 hvcurveto
          -2 -600 rmoveto
          -146 -111 117 142 142 112 119 147 146 113 -117 -142 -142 -114 -119 -147 hvcurveto
          144 320 rmoveto
          71 -48 40 -85 vhcurveto
          -138 -320 79 90 59 hlineto
          4 hlineto
          48 -90 rlineto
          91 hlineto
          -68 105 rlineto
          37 19 21 36 49 vvcurveto
          -192 -57 rmoveto
          107 59 vlineto
          36 21 -19 -34 -34 -21 -20 -36 hvcurveto
          endchar
        </CharString>
        <CharString name="ring">
          574 68 104 68 hstem
          54 68 106 68 vstem
          175 814 rmoveto
          -67 -54 -54 -66 -66 54 -54 67 67 54 54 66 66 -54 54 -67 hvcurveto
          -68 vmoveto
          29 24 -24 -28 -29 -24 -23 -29 -29 -24 23 29 28 24 24 29 hvcurveto
          endchar
        </CharString>
        <CharString name="s">
          -151 -7 119 316 119 hstem
          43 159 119 164 vstem
          262 547 rmoveto
          -125 -94 -60 -111 hvcurveto
          -1 -189 279 41 -79 vvcurveto
          -25 -25 -12 -34 -60 -70 24 43 -61 vhcurveto
          -55 -110 rlineto
          -50 65 87 -26 90 hhcurveto
          130 97 61 111 hvcurveto
          1 188 -284 -36 74 vvcurveto
          25 22 12 31 45 60 -19 -35 65 vhcurveto
          59 112 rlineto
          39 -66 -78 22 -78 hhcurveto
          endchar
        </CharString>
        <CharString name="sacute">
          -151 -7 119 316 119 hstem
          43 159 119 164 vstem
          441 713 rmoveto
          -156 55 -106 -168 rlineto
          132 hlineto
          -49 -53 rmoveto
          -125 -94 -60 -111 hvcurveto
          -1 -189 279 41 -79 vvcurveto
          -25 -25 -12 -34 -60 -70 24 43 -61 vhcurveto
          -55 -110 rlineto
          -50 65 87 -26 90 hhcurveto
          130 97 61 111 hvcurveto
          1 188 -284 -36 74 vvcurveto
          25 22 12 31 45 60 -19 -35 65 vhcurveto
          59 112 rlineto
          39 -66 -78 22 -78 hhcurveto
          endchar
        </CharString>
        <CharString name="scaron">
          -151 -7 119 316 119 50 164 hstem
          43 159 119 164 vstem
          66 761 rmoveto
          121 -164 rlineto
          150 hlineto
          121 164 rlineto
          -135 hlineto
          -61 -92 -61 92 rlineto
          61 -214 rmoveto
          -125 -94 -60 -111 hvcurveto
          -1 -189 279 41 -79 vvcurveto
          -25 -25 -12 -34 -60 -70 24 43 -61 vhcurveto
          -55 -110 rlineto
          -50 65 87 -26 90 hhcurveto
          130 97 61 111 hvcurveto
          1 188 -284 -36 74 vvcurveto
          25 22 12 31 45 60 -19 -35 65 vhcurveto
          59 112 rlineto
          39 -66 -78 22 -78 hhcurveto
          endchar
        </CharString>
        <CharString name="scedilla">
          -151 -235 82 -30 -21 198 118 -97 -21 434 119 hstemhm
          43 159 66 97 -44 164 hintmask 01011110
          202 391 rmoveto
          25 22 12 31 45 60 -19 -35 65 vhcurveto
          59 112 rlineto
          39 -66 -78 22 -78 hhcurveto
          -125 -94 -60 -111 hvcurveto
          hintmask 01101101
          -1 -189 279 41 -79 vvcurveto
          -25 -25 -12 -34 -60 -70 24 43 -61 vhcurveto
          -55 -110 rlineto
          hintmask 10011110
          57 -44 73 -25 78 -6 -38 -78 rcurveline
          2 12 14 2 10 hhcurveto
          30 16 -16 -20 -20 -16 -17 -26 -17 -19 8 12 -13 hvcurveto
          hintmask 01011110
          -32 -71 rlineto
          hintmask 10011110
          -19 28 36 -12 31 hhcurveto
          73 52 40 63 41 -27 29 -41 11 hvcurveto
          25 49 rlineto
          hintmask 01011101
          97 18 66 57 92 vvcurveto
          hintmask 01011110
          1 188 -284 -36 74 vvcurveto
          endchar
        </CharString>
        <CharString name="scommaaccent">
          -151 -7 119 316 119 hstemhm
          43 159 -23 165 -23 164 hintmask 11101000
          202 391 rmoveto
          25 22 12 31 45 60 -19 -35 65 vhcurveto
          59 112 rlineto
          39 -66 -78 22 -78 hhcurveto
          -125 -94 -60 -111 hvcurveto
          -1 -189 279 41 -79 vvcurveto
          -25 -25 -12 -34 -60 -70 24 43 -61 vhcurveto
          -55 -110 rlineto
          -50 65 87 -26 90 hhcurveto
          130 97 61 111 hvcurveto
          1 188 -284 -36 74 vvcurveto
          hintmask 11010000
          60 -432 rmoveto
          -48 -35 -34 -49 -26 10 -23 23 -16 hvcurveto
          -45 -106 rlineto
          82 hlineto
          73 106 rlineto
          13 19 9 22 25 vvcurveto
          53 -38 29 -44 vhcurveto
          endchar
        </CharString>
        <CharString name="section">
          -119 -88 116 -18 -21 591 114 hstemhm
          32 154 -121 155 107 159 -125 159 hintmask 01110010
          282 694 rmoveto
          hintmask 01101010
          -133 -84 -66 -93 -44 16 -29 56 -30 hvcurveto
          hintmask 10110100
          -66 -24 -39 -46 -62 -179 295 27 -81 vvcurveto
          -22 -26 -17 -44 -58 -68 23 45 -66 vhcurveto
          hintmask 01110010
          -49 -107 rlineto
          hintmask 10110100
          -50 70 88 -27 87 hhcurveto
          138 87 67 93 52 -21 24 -44 26 hvcurveto
          hintmask 01101010
          59 24 40 50 59 181 -300 -29 83 vvcurveto
          23 23 15 41 41 59 -17 -36 69 vhcurveto
          52 106 rlineto
          hintmask 01110010
          41 -73 -76 20 -74 hhcurveto
          -23 -341 rmoveto
          57 45 -22 -33 -25 -24 -17 -50 -57 -44 22 33 26 25 16 48 hvcurveto
          endchar
        </CharString>
        <CharString name="semicolon">
          -422 289 167 hstem
          38 167 vstem
          121 289 rmoveto
          49 35 34 50 49 -35 34 -49 -49 -34 -34 -49 -50 34 -34 49 hvcurveto
          1 -131 rmoveto
          -48 -35 -34 -48 -26 10 -24 23 -15 hvcurveto
          -45 -107 rlineto
          82 hlineto
          73 106 rlineto
          13 20 9 21 25 vvcurveto
          53 -38 29 -44 vhcurveto
          endchar
        </CharString>
        <CharString name="seven">
          -70 21 -21 559 141 hstem
          33 156 vstem
          578 579 rmoveto
          121 -545 -239 156 98 193 vlineto
          -250 -559 rlineto
          188 hlineto
          endchar
        </CharString>
        <CharString name="seven.dnom">
          -276 21 -21 327 90 hstem
          27 107 vstem
          215 hmoveto
          158 337 rlineto
          80 -346 -150 107 60 105 vlineto
          -152 -327 rlineto
          endchar
        </CharString>
        <CharString name="seven.numr">
          -276 610 90 hstem
          27 107 vstem
          215 283 rmoveto
          158 338 rlineto
          79 -346 -149 107 59 105 vlineto
          -152 -327 rlineto
          endchar
        </CharString>
        <CharString name="seveneighths">
          277 -5 85 -59 -21 176 84 85 77 188 90 hstemhm
          27 107 417 115 -92 102 114 102 -92 115 hintmask 0000000000000000
          hintmask 0111110110000000
          113 hmoveto
          162 hlineto
          500 701 rlineto
          -162 hlineto
          -398 -418 rmoveto
          158 338 rlineto
          79 -346 -149 107 59 105 vlineto
          -152 -327 rlineto
          645 139 rmoveto
          -96 -62 -43 -67 -35 23 -34 35 -20 hvcurveto
          hintmask 1011111001000000
          -49 -19 -32 -41 -47 vvcurveto
          -74 71 -47 111 111 71 47 76 45 -29 41 -46 19 vhcurveto
          hintmask 1011111010000000
          32 19 20 32 34 vvcurveto
          hintmask 0111110110000000
          69 -62 45 -98 vhcurveto
          1 -77 rmoveto
          37 20 -15 -28 hvcurveto
          hintmask 1011110110000000
          -27 -20 -15 -37 -37 -20 15 27 vhcurveto
          hintmask 0111110110000000
          28 20 15 37 vhcurveto
          hintmask 1011111001000000
          -169 vmoveto
          43 24 -17 -31 -32 -24 -16 -43 -43 -24 16 32 31 24 17 43 hvcurveto
          endchar
        </CharString>
        <CharString name="six">
          -32 -8 142 196 130 111 137 hstem
          41 171 228 165 vstem
          365 708 rmoveto
          -197 -127 -145 -223 -215 114 -133 188 158 104 94 148 136 -88 90 -138 -78 -56 -28 -47 -33 hvcurveto
          115 -2 54 71 112 hhcurveto
          54 53 -16 -29 40 hvcurveto
          68 124 rlineto
          36 -59 -89 22 -78 hhcurveto
          -26 -378 rmoveto
          64 37 -35 -60 -65 -40 -36 -64 -72 -33 46 52 57 39 41 69 hvcurveto
          endchar
        </CharString>
        <CharString name="six.dnom">
          -254 -5 94 101 85 56 91 hstem
          31 117 127 113 vstem
          237 422 rmoveto
          -125 -81 -87 -132 -129 73 -79 118 100 66 56 88 82 -55 54 -85 -49 -33 -18 -26 -18 hvcurveto
          65 -2 33 35 65 hhcurveto
          34 32 -9 -18 24 hvcurveto
          47 83 rlineto
          21 -37 -57 14 -50 hhcurveto
          -18 -232 rmoveto
          36 20 -18 -31 -35 -21 -17 -36 -40 -18 21 29 31 21 20 38 hvcurveto
          endchar
        </CharString>
        <CharString name="six.numr">
          -254 278 94 101 85 57 90 hstem
          31 117 127 113 vstem
          237 705 rmoveto
          -125 -81 -87 -132 -128 73 -80 118 100 66 57 88 81 -55 54 -85 -49 -33 -18 -26 -18 hvcurveto
          65 -2 33 36 65 hhcurveto
          34 32 -9 -18 24 hvcurveto
          47 82 rlineto
          21 -37 -57 14 -50 hhcurveto
          -18 -232 rmoveto
          36 20 -17 -32 -34 -21 -18 -36 -40 -18 22 28 31 21 20 38 hvcurveto
          endchar
        </CharString>
        <CharString name="slash">
          -311 -90 -21 hstem
          -36 468 vstem
          109 -111 rmoveto
          323 922 rlineto
          -145 hlineto
          -323 -922 rlineto
          endchar
        </CharString>
        <CharString name="softhyphen">
          -290 252 109 hstem
          55 264 vstem
          319 252 rmoveto
          109 -264 -109 vlineto
          endchar
        </CharString>
        <CharString name="space">
          -432 endchar
        </CharString>
        <CharString name="sterling">
          -107 0 134 147 118 160 149 hstem
          104 179 vstem
          283 134 rmoveto
          147 167 118 -167 71 vlineto
          59 27 30 51 41 44 -23 -44 42 vhcurveto
          67 130 rlineto
          55 -55 -77 31 -81 hhcurveto
          -151 -87 -85 -149 hvcurveto
          -75 -76 -118 76 -147 -76 -134 513 134 vlineto
          endchar
        </CharString>
        <CharString name="summation">
          -48 -138 149 585 148 hstem
          27 583 vstem
          600 596 rmoveto
          148 -562 -126 vlineto
          253 -315 -264 -317 rlineto
          -124 583 149 -368 vlineto
          238 292 -237 293 rlineto
          endchar
        </CharString>
        <CharString name="t">
          -229 -8 139 270 114 hstemhm
          94 172 hintmask 00000000
          hintmask 11100000
          383 149 rmoveto
          -11 -26 -23 -7 -18 hhcurveto
          -32 -1 -18 18 42 vvcurveto
          211 141 114 -141 149 -172 -150 -75 -113 75 -238 vlineto
          -112 75 -59 104 52 53 14 23 39 vhcurveto
          endchar
        </CharString>
        <CharString name="tcaron">
          -236 -8 139 -118 -21 409 114 64 85 hstemhm
          94 172 53 165 hintmask 01111100
          402 833 rmoveto
          -48 -35 -34 -48 -26 10 -24 23 -15 hvcurveto
          -45 -107 rlineto
          82 hlineto
          73 106 rlineto
          13 20 9 21 25 vvcurveto
          53 -38 29 -44 vhcurveto
          hintmask 10111100
          -86 -702 rmoveto
          -32 -1 -18 18 42 vvcurveto
          211 141 114 -141 149 -172 -150 -75 -113 75 -238 vlineto
          -112 75 -59 104 52 53 14 23 39 vhcurveto
          -34 120 rlineto
          -11 -26 -23 -7 -18 hhcurveto
          endchar
        </CharString>
        <CharString name="tcedilla">
          -229 -235 82 -30 -21 221 -21 405 114 hstemhm
          94 172 6 97 hintmask 01111000
          325 -3 rmoveto
          34 5 32 12 26 15 -34 120 rcurveline
          -11 -26 -23 -7 -18 hhcurveto
          -32 -1 -18 18 42 vvcurveto
          211 141 114 -141 149 -172 -150 -75 -113 75 -238 vlineto
          -95 54 -57 80 -15 vhcurveto
          hintmask 10110100
          -38 -80 rlineto
          2 12 14 2 10 hhcurveto
          30 16 -16 -20 -20 -16 -17 -26 -17 -19 8 12 -13 hvcurveto
          hintmask 01111000
          -32 -71 rlineto
          hintmask 10110100
          -19 28 36 -12 31 hhcurveto
          73 52 40 63 41 -27 29 -41 11 hvcurveto
          endchar
        </CharString>
        <CharString name="tcommaaccent">
          -229 -8 139 -118 -21 409 114 hstemhm
          94 172 -84 165 hintmask 00000000
          hintmask 10110000
          383 149 rmoveto
          -11 -26 -23 -7 -18 hhcurveto
          -32 -1 -18 18 42 vvcurveto
          211 141 114 -141 149 -172 -150 -75 -113 75 -238 vlineto
          -112 75 -59 104 52 53 14 23 39 vhcurveto
          hintmask 01101000
          -152 -70 rmoveto
          -48 -35 -34 -49 -26 10 -23 23 -16 hvcurveto
          -45 -106 rlineto
          82 hlineto
          73 106 rlineto
          13 19 9 22 25 vvcurveto
          53 -38 29 -44 vhcurveto
          endchar
        </CharString>
        <CharString name="thorn">
          21 -173 -21 188 137 281 133 197 -20 hstem
          74 173 240 174 vstem
          408 545 rmoveto
          -68 -55 -28 -49 -38 hvcurveto
          274 -173 -936 173 266 vlineto
          -50 38 57 -28 70 hhcurveto
          151 98 109 164 167 -101 111 -152 hvcurveto
          -42 -414 rmoveto
          -70 -49 57 84 82 49 58 70 72 49 -58 -82 -83 -49 -58 -72 hvcurveto
          endchar
        </CharString>
        <CharString name="three">
          -106 -8 135 179 107.5 149.5 136 hstem
          353 174 vstem
          320 416 rmoveto
          175 182 rlineto
          101 -462 -136 255 vlineto
          -156 -162 rlineto
          -95 112 vlineto
          70 39 -29 -59 -57 -38 -34 -70 -63 -60 29 56 -52 hvcurveto
          -72 -135 rlineto
          -51 64 101 -34 96 hhcurveto
          163 105 94 134 108 -72 67 -102 16 hvcurveto
          endchar
        </CharString>
        <CharString name="three.dnom">
          -299 -5 87 95 62 91 85 hstemhm
          26 295 -99 119 hintmask 11101000
          217 249 rmoveto
          hintmask 11110000
          104 100 rlineto
          66 -295 -85 157 vlineto
          -94 -91 rlineto
          -62 vlineto
          hintmask 11101000
          72 hlineto
          39 22 -15 -31 -31 -22 -18 -38 -39 -37 18 36 -32 hvcurveto
          -49 -89 rlineto
          -32 40 65 -20 62 hhcurveto
          103 66 56 80 64 -44 41 -60 10 hvcurveto
          endchar
        </CharString>
        <CharString name="three.numr">
          -299 278 87 96 61 92 85 hstemhm
          26 295 -99 119 hintmask 11101000
          217 533 rmoveto
          hintmask 11110000
          104 99 rlineto
          67 -295 -85 157 vlineto
          -94 -92 rlineto
          -61 vlineto
          hintmask 11101000
          72 hlineto
          39 22 -16 -31 -31 -22 -18 -38 -39 -37 18 36 -32 hvcurveto
          -49 -89 rlineto
          -31 40 65 -21 62 hhcurveto
          103 66 57 80 64 -44 40 -60 10 hvcurveto
          endchar
        </CharString>
        <CharString name="threeeighths">
          290 -5 85 -59 -21 176 84 18 87 -20 77 39 61 92 85 hstemhm
          26 295 -99 119 223 115 -92 102 114 102 -92 115 hintmask 0000000000000000
          hintmask 0110111101001000
          127 hmoveto
          162 hlineto
          500 701 rlineto
          -162 hlineto
          -410 -168 rmoveto
          104 99 rlineto
          67 -295 -85 157 vlineto
          -94 -92 rlineto
          -61 vlineto
          hintmask 1011011011001000
          72 hlineto
          39 22 -16 -31 -31 -22 -18 -38 -39 -37 18 36 -32 hvcurveto
          -49 -89 rlineto
          -31 40 65 -21 62 hhcurveto
          103 66 57 80 64 -44 40 -60 10 hvcurveto
          hintmask 1010111010110000
          508 -107 rmoveto
          -96 -62 -43 -67 -35 23 -34 35 -20 hvcurveto
          hintmask 1010111011001000
          -49 -19 -32 -41 -47 vvcurveto
          -74 71 -47 111 111 71 47 76 45 -29 41 -46 19 vhcurveto
          hintmask 1010111011010000
          32 19 20 32 34 vvcurveto
          hintmask 1010111010110000
          69 -62 45 -98 vhcurveto
          1 -77 rmoveto
          37 20 -15 -28 -27 -20 -15 -37 -37 -20 15 27 28 20 15 37 hvcurveto
          hintmask 1010111011001000
          -169 vmoveto
          43 24 -17 -31 -32 -24 -16 -43 -43 -24 16 32 31 24 17 43 hvcurveto
          endchar
        </CharString>
        <CharString name="threequarters">
          276 0 171 -84 84 107 87 96 61 92 85 hstemhm
          26 295 -99 119 415 113 hintmask 10111101
          127 hmoveto
          162 hlineto
          500 701 rlineto
          -162 hlineto
          -410 -168 rmoveto
          104 99 rlineto
          67 -295 -85 157 vlineto
          -94 -92 rlineto
          -61 vlineto
          hintmask 10111011
          72 hlineto
          39 22 -16 -31 -31 -22 -18 -38 -39 -37 18 36 -32 hvcurveto
          -49 -89 rlineto
          -31 40 65 -21 62 hhcurveto
          103 66 57 80 64 -44 40 -60 10 hvcurveto
          519 -358 rmoveto
          -83 hlineto
          127 246 rlineto
          -117 hlineto
          hintmask 01111101
          -134 -251 rlineto
          -79 207 vlineto
          hintmask 10111101
          -87 113 vlineto
          hintmask 01111101
          87 58 vlineto
          hintmask 10111101
          84 -58 89 -113 vlineto
          endchar
        </CharString>
        <CharString name="threesuperior">
          -299 278 87 96 61 92 85 hstemhm
          26 295 -99 119 hintmask 11101000
          217 533 rmoveto
          hintmask 11110000
          104 99 rlineto
          67 -295 -85 157 vlineto
          -94 -92 rlineto
          -61 vlineto
          hintmask 11101000
          72 hlineto
          39 22 -16 -31 -31 -22 -18 -38 -39 -37 18 36 -32 hvcurveto
          -49 -89 rlineto
          -31 40 65 -21 62 hhcurveto
          103 66 57 80 64 -44 40 -60 10 hvcurveto
          endchar
        </CharString>
        <CharString name="tilde">
          617 155 -151 156 hstemhm
          -3 106 145 105 hintmask 00000000
          hintmask 01110000
          102 777 rmoveto
          -70 -35 -51 -105 hvcurveto
          106 hlineto
          29 10 14 20 vhcurveto
          hintmask 10110000
          29 26 -47 61 hhcurveto
          70 34 50 105 hvcurveto
          -105 hlineto
          -28 -10 -14 -21 vhcurveto
          hintmask 01110000
          -28 -28 47 -59 hhcurveto
          endchar
        </CharString>
        <CharString name="trademark">
          240 600 101 hstem
          103 125 155 112 256 112 vstem
          340 600 rmoveto
          101 -348 -101 111 -320 125 320 vlineto
          635 -320 rmoveto
          421 -137 vlineto
          -103 -231 -103 231 rlineto
          -137 -421 112 245 hlineto
          86 -204 rlineto
          84 hlineto
          86 204 rlineto
          -245 vlineto
          endchar
        </CharString>
        <CharString name="two">
          -64 0 141 423 144 hstem
          359 186 vstem
          306 708 rmoveto
          -100 -96 -39 -66 -88 hvcurveto
          67 -128 rlineto
          55 64 70 34 57 hhcurveto
          50 29 -24 -40 -32 -28 -47 -39 -41 hvcurveto
          -250 -265 rlineto
          -115 524 141 -295 vlineto
          142 151 rlineto
          76 78 56 79 76 vvcurveto
          111 -100 72 -139 vhcurveto
          endchar
        </CharString>
        <CharString name="two.dnom">
          -275 0 90 237 95 hstem
          225 127 vstem
          201 422 rmoveto
          -64 -62 -24 -40 -57 hvcurveto
          46 -84 rlineto
          32 40 44 21 34 hhcurveto
          27 16 -12 -20 -18 -17 -25 -21 -23 hvcurveto
          -155 -154 rlineto
          -75 331 90 -176 vlineto
          82 82 rlineto
          49 47 34 46 46 vvcurveto
          67 -63 44 -88 vhcurveto
          endchar
        </CharString>
        <CharString name="two.numr">
          -275 283 91 236 95 hstem
          225 127 vstem
          201 705 rmoveto
          -64 -62 -24 -40 -57 hvcurveto
          46 -84 rlineto
          33 40 44 20 34 hhcurveto
          27 16 -11 -21 -17 -17 -26 -21 -22 hvcurveto
          -155 -155 rlineto
          -75 331 91 -176 vlineto
          82 81 rlineto
          49 47 34 46 47 vvcurveto
          66 -63 44 -88 vhcurveto
          endchar
        </CharString>
        <CharString name="twosuperior">
          -275 283 91 236 95 hstem
          225 127 vstem
          201 705 rmoveto
          -64 -62 -24 -40 -57 hvcurveto
          46 -84 rlineto
          33 40 44 20 34 hhcurveto
          27 16 -11 -21 -17 -17 -26 -21 -22 hvcurveto
          -155 -155 rlineto
          -75 331 91 -176 vlineto
          82 81 rlineto
          49 47 34 46 47 vvcurveto
          66 -63 44 -88 vhcurveto
          endchar
        </CharString>
        <CharString name="u">
          -1 -7 152 -145 145 394 -20 hstemhm
          53 173 195 173 hintmask 10111000
          594 539 rmoveto
          -173 -266 hlineto
          -73 -39 -54 -66 -1 vhcurveto
          -55 -35 39 64 hvcurveto
          291 -173 -340 vlineto
          -126 76 -80 117 78 60 32 64 37 vhcurveto
          hintmask 01111000
          -89 173 vlineto
          endchar
        </CharString>
        <CharString name="uacute">
          -1 -7 152 -145 145 394 -20 hstemhm
          53 173 195 173 hintmask 10111000
          372 600 rmoveto
          130 113 -156 55 -106 -168 rlineto
          354 -61 rmoveto
          -173 -266 hlineto
          -73 -39 -54 -66 -1 vhcurveto
          -55 -35 39 64 hvcurveto
          291 -173 -340 vlineto
          -126 76 -80 117 78 60 32 64 37 vhcurveto
          hintmask 01111000
          -89 173 vlineto
          endchar
        </CharString>
        <CharString name="ucircumflex">
          -1 -7 152 -145 145 394 -20 91 151 hstemhm
          53 173 195 173 hintmask 10111100
          269 610 rmoveto
          58 85 58 -85 rlineto
          124 hlineto
          -113 151 rlineto
          -138 hlineto
          -113 -151 rlineto
          449 -71 rmoveto
          -173 -266 hlineto
          -73 -39 -54 -66 -1 vhcurveto
          -55 -35 39 64 hvcurveto
          291 -173 -340 vlineto
          -126 76 -80 117 78 60 32 64 37 vhcurveto
          hintmask 01111100
          -89 173 vlineto
          endchar
        </CharString>
        <CharString name="udieresis">
          -1 -7 152 -145 145 394 -20 95 155 hstemhm
          53 173 -73 156 37 156 -81 173 hintmask 00000000
          hintmask 10110110
          231 614 rmoveto
          45 33 32 45 46 -33 32 -45 -45 -33 -32 -46 -45 33 -32 45 hvcurveto
          193 hmoveto
          45 33 32 45 46 -33 32 -45 -45 -33 -32 -46 -45 33 -32 45 hvcurveto
          hintmask 10111001
          170 -75 rmoveto
          -173 -266 hlineto
          -73 -39 -54 -66 -1 vhcurveto
          -55 -35 39 64 hvcurveto
          291 -173 -340 vlineto
          -126 76 -80 117 78 60 32 64 37 vhcurveto
          hintmask 01111001
          -89 173 vlineto
          endchar
        </CharString>
        <CharString name="ugrave">
          -1 -7 152 -145 145 394 -20 hstemhm
          53 173 195 173 hintmask 10111000
          283 600 rmoveto
          132 hlineto
          -106 168 -156 -55 rlineto
          441 -174 rmoveto
          -173 -266 hlineto
          -73 -39 -54 -66 -1 vhcurveto
          -55 -35 39 64 hvcurveto
          291 -173 -340 vlineto
          -126 76 -80 117 78 60 32 64 37 vhcurveto
          hintmask 01111000
          -89 173 vlineto
          endchar
        </CharString>
        <CharString name="uhungarumlaut">
          -1 -7 152 -145 145 394 -20 hstemhm
          53 173 195 173 hintmask 10111000
          279 599 rmoveto
          90 123 -131 48 -85 -171 rlineto
          194 hmoveto
          126 hlineto
          90 123 -131 48 rlineto
          162 -231 rmoveto
          -173 -266 hlineto
          -73 -39 -54 -66 -1 vhcurveto
          -55 -35 39 64 hvcurveto
          291 -173 -340 vlineto
          -126 76 -80 117 78 60 32 64 37 vhcurveto
          hintmask 01111000
          -89 173 vlineto
          endchar
        </CharString>
        <CharString name="umacron">
          -1 -7 152 -145 145 394 -20 113 116 hstemhm
          53 173 195 173 hintmask 10111100
          466 632 rmoveto
          116 -278 -116 vlineto
          406 -93 rmoveto
          -173 -266 hlineto
          -73 -39 -54 -66 -1 vhcurveto
          -55 -35 39 64 hvcurveto
          291 -173 -340 vlineto
          -126 76 -80 117 78 60 32 64 37 vhcurveto
          hintmask 01111100
          -89 173 vlineto
          endchar
        </CharString>
        <CharString name="underscore">
          -81 -204 94 hstem
          0 583 vstem
          583 -204 rmoveto
          94 -583 -94 vlineto
          endchar
        </CharString>
        <CharString name="uogonek">
          -4 -203 87 -66 -21 196 152 -124 -21 539 -20 hstemhm
          54 172 199 87 -86 172 hintmask 01011101
          598 hmoveto
          539 -172 -277 vlineto
          hintmask 01101101
          -4 -68 -39 -48 -63 -1 rrcurveto
          -58 -36 39 64 hvcurveto
          291 -172 -340 vlineto
          -126 77 -80 118 79 61 32 64 37 vhcurveto
          hintmask 01011101
          -89 vlineto
          hintmask 01011110
          46 hlineto
          -28 -42 -19 -39 -39 vvcurveto
          -62 48 -21 40 43 40 24 43 25 vhcurveto
          hintmask 10011110
          -44 51 rlineto
          -19 -13 -15 -12 -15 hhcurveto
          -13 -9 8 16 19 15 32 29 41 hvcurveto
          endchar
        </CharString>
        <CharString name="uring">
          -1 -7 152 -145 145 394 -20 55 68 104 68 hstemhm
          53 173 -20 68 106 68 -27 173 hintmask 0000000000000000
          hintmask 1011101100000000
          327 574 rmoveto
          67 54 54 66 66 -54 54 -67 -67 -54 -54 -66 -66 54 -54 67 hvcurveto
          172 vmoveto
          29 24 -24 -28 -29 -24 -23 -29 -29 -24 23 29 28 24 24 29 hvcurveto
          hintmask 1011110010000000
          267 -207 rmoveto
          -173 -266 hlineto
          -73 -39 -54 -66 -1 vhcurveto
          -55 -35 39 64 hvcurveto
          291 -173 -340 vlineto
          -126 76 -80 117 78 60 32 64 37 vhcurveto
          hintmask 0111110010000000
          -89 173 vlineto
          endchar
        </CharString>
        <CharString name="v">
          -93 0 158 -137 -21 539 -20 hstemhm
          -5 583 hintmask 01110000
          375 hmoveto
          203 539 rlineto
          -172 hlineto
          hintmask 10110000
          -117 -381 -116 381 rlineto
          -178 hlineto
          203 -539 rlineto
          endchar
        </CharString>
        <CharString name="w">
          273 0 166 -145 -21 539 -20 hstemhm
          -5 949 hintmask 01110000
          747 hmoveto
          197 539 rlineto
          -169 hlineto
          hintmask 10110000
          -109 -373 -111 373 rlineto
          -165 hlineto
          -108 -373 -111 373 rlineto
          -176 hlineto
          197 -539 rlineto
          172 hlineto
          106 342 106 -342 rlineto
          endchar
        </CharString>
        <CharString name="wacute">
          273 0 166 -145 -21 539 -20 hstemhm
          -5 949 hintmask 01110000
          644 713 rmoveto
          -156 55 -106 -168 rlineto
          132 hlineto
          233 -600 rmoveto
          197 539 rlineto
          -169 hlineto
          hintmask 10110000
          -109 -373 -111 373 rlineto
          -165 hlineto
          -108 -373 -111 373 rlineto
          -176 hlineto
          197 -539 rlineto
          172 hlineto
          106 342 106 -342 rlineto
          endchar
        </CharString>
        <CharString name="wcircumflex">
          273 0 166 -145 -21 539 -20 91 151 hstemhm
          -5 949 hintmask 01111000
          651 610 rmoveto
          -113 151 rlineto
          -138 hlineto
          -113 -151 rlineto
          124 hlineto
          58 85 58 -85 rlineto
          220 -610 rmoveto
          197 539 rlineto
          -169 hlineto
          hintmask 10111000
          -109 -373 -111 373 rlineto
          -165 hlineto
          -108 -373 -111 373 rlineto
          -176 hlineto
          197 -539 rlineto
          172 hlineto
          106 342 106 -342 rlineto
          endchar
        </CharString>
        <CharString name="wdieresis">
          273 0 166 -145 -21 539 -20 95 155 hstemhm
          295 156 37 156 hintmask 01111100
          373 769 rmoveto
          -45 -33 -32 -46 -45 33 -32 45 45 33 32 45 46 -33 32 -45 hvcurveto
          193 hmoveto
          -45 -33 -32 -46 -45 33 -32 45 45 33 32 45 46 -33 32 -45 hvcurveto
          181 -769 rmoveto
          197 539 rlineto
          -169 hlineto
          hintmask 10111100
          -109 -373 -111 373 rlineto
          -165 hlineto
          -108 -373 -111 373 rlineto
          -176 hlineto
          197 -539 rlineto
          172 hlineto
          106 342 106 -342 rlineto
          endchar
        </CharString>
        <CharString name="wgrave">
          273 0 166 -145 -21 539 -20 hstemhm
          -5 949 hintmask 01110000
          557 600 rmoveto
          -106 168 -156 -55 130 -113 rlineto
          322 -600 rmoveto
          197 539 rlineto
          -169 hlineto
          hintmask 10110000
          -109 -373 -111 373 rlineto
          -165 hlineto
          -108 -373 -111 373 rlineto
          -176 hlineto
          197 -539 rlineto
          172 hlineto
          106 342 106 -342 rlineto
          endchar
        </CharString>
        <CharString name="x">
          -58 21 -21 539 -20 hstem
          4 597 vstem
          304 384 rmoveto
          -90 155 rlineto
          -198 hlineto
          172 -263 -184 -276 rlineto
          190 hlineto
          110 169 98 -169 rlineto
          199 hlineto
          -183 277 171 262 rlineto
          -189 hlineto
          endchar
        </CharString>
        <CharString name="y">
          -84 -202 144 597 -20 hstem
          -12 599 vstem
          587 539 rmoveto
          -172 hlineto
          -117 -358 -132 358 rlineto
          -178 hlineto
          224 -527 -13 -27 rlineto
          -29 -14 -22 -14 -31 hhcurveto
          -25 -21 9 20 -25 hvcurveto
          -72 -118 rlineto
          -37 48 49 -18 60 hhcurveto
          100 68 48 98 40 hvcurveto
          endchar
        </CharString>
        <CharString name="yacute">
          -84 -202 144 597 -20 hstem
          -12 599 vstem
          466 713 rmoveto
          -156 55 -106 -168 rlineto
          132 hlineto
          251 -61 rmoveto
          -172 hlineto
          -117 -358 -132 358 rlineto
          -178 hlineto
          224 -527 -13 -27 rlineto
          -29 -14 -22 -14 -31 hhcurveto
          -25 -21 9 20 -25 hvcurveto
          -72 -118 rlineto
          -37 48 49 -18 60 hhcurveto
          100 68 48 98 40 hvcurveto
          endchar
        </CharString>
        <CharString name="ycircumflex">
          -84 -202 144 597 -20 91 151 hstem
          -12 599 vstem
          473 610 rmoveto
          -113 151 rlineto
          -138 hlineto
          -113 -151 rlineto
          124 hlineto
          58 85 58 -85 rlineto
          238 -71 rmoveto
          -172 hlineto
          -117 -358 -132 358 rlineto
          -178 hlineto
          224 -527 -13 -27 rlineto
          -29 -14 -22 -14 -31 hhcurveto
          -25 -21 9 20 -25 hvcurveto
          -72 -118 rlineto
          -37 48 49 -18 60 hhcurveto
          100 68 48 98 40 hvcurveto
          endchar
        </CharString>
        <CharString name="ydieresis">
          -84 -202 144 597 -20 95 155 hstem
          117 156 37 156 vstem
          195 769 rmoveto
          -45 -33 -32 -46 -45 33 -32 45 45 33 32 45 46 -33 32 -45 hvcurveto
          193 hmoveto
          -45 -33 -32 -46 -45 33 -32 45 45 33 32 45 46 -33 32 -45 hvcurveto
          199 -230 rmoveto
          -172 hlineto
          -117 -358 -132 358 rlineto
          -178 hlineto
          224 -527 -13 -27 rlineto
          -29 -14 -22 -14 -31 hhcurveto
          -25 -21 9 20 -25 hvcurveto
          -72 -118 rlineto
          -37 48 49 -18 60 hhcurveto
          100 68 48 98 40 hvcurveto
          endchar
        </CharString>
        <CharString name="yen">
          1 0 209 -66 66 65 65 362 -20 hstemhm
          254 177 hintmask 01111000
          491 339 rmoveto
          194 362 rlineto
          -178 hlineto
          -165 -307 -169 307 rlineto
          -178 hlineto
          196 -362 rlineto
          -122 -65 157 hlineto
          28 -52 rlineto
          -13 -185 -66 185 vlineto
          hintmask 10111000
          -143 177 vlineto
          hintmask 01111000
          143 175 66 -175 18 vlineto
          25 47 rlineto
          150 65 hlineto
          endchar
        </CharString>
        <CharString name="ygrave">
          -84 -202 144 597 -20 hstem
          -12 599 vstem
          378 600 rmoveto
          -106 168 -156 -55 130 -113 rlineto
          341 -61 rmoveto
          -172 hlineto
          -117 -358 -132 358 rlineto
          -178 hlineto
          224 -527 -13 -27 rlineto
          -29 -14 -22 -14 -31 hhcurveto
          -25 -21 9 20 -25 hvcurveto
          -72 -118 rlineto
          -37 48 49 -18 60 hhcurveto
          100 68 48 98 40 hvcurveto
          endchar
        </CharString>
        <CharString name="z">
          -111 0 130 279 130 hstem
          34 490 vstem
          515 435 rmoveto
          104 -471 -130 255 vlineto
          -265 -305 rlineto
          -104 490 130 -273 vlineto
          endchar
        </CharString>
        <CharString name="zacute">
          -111 0 130 279 130 hstem
          34 490 vstem
          452 713 rmoveto
          -156 55 -106 -168 rlineto
          132 hlineto
          193 -165 rmoveto
          104 -471 -130 255 vlineto
          -265 -305 rlineto
          -104 490 130 -273 vlineto
          endchar
        </CharString>
        <CharString name="zcaron">
          -111 0 130 279 130 57 164 hstem
          34 490 vstem
          76 760 rmoveto
          121 -164 rlineto
          150 hlineto
          121 164 rlineto
          -135 hlineto
          -61 -92 -61 92 rlineto
          304 -325 rmoveto
          104 -471 -130 255 vlineto
          -265 -305 rlineto
          -104 490 130 -273 vlineto
          endchar
        </CharString>
        <CharString name="zdotaccent">
          -111 0 130 279 130 63 183 hstem
          186 182 vstem
          277 785 rmoveto
          -53 -38 -38 -53 -54 38 -38 53 53 38 38 54 53 -38 38 -53 hvcurveto
          238 -350 rmoveto
          104 -471 -130 255 vlineto
          -265 -305 rlineto
          -104 490 130 -273 vlineto
          endchar
        </CharString>
        <CharString name="zero">
          39 -5 130 451 130 hstem
          41 183 255 182 vstem
          352 706 rmoveto
          -200 -111 -127 -228 -229 111 -127 200 198 111 127 229 228 -111 127 -198 hvcurveto
          -130 vmoveto
          88 39 -65 -160 -160 -39 -66 -88 -90 -38 66 160 160 38 65 90 hvcurveto
          endchar
        </CharString>
        <CharString name="zero.dnom">
          -211 -4 93 239 92 hstem
          31 111 170 110 vstem
          227 420 rmoveto
          -120 -76 -81 -130 -131 76 -82 120 120 75 82 131 130 -75 81 -120 hvcurveto
          -92 vmoveto
          53 32 -45 -74 -75 -32 -45 -53 -53 -32 45 75 74 32 45 53 hvcurveto
          endchar
        </CharString>
        <CharString name="zero.numr">
          -211 280 93 238 92 hstem
          31 111 170 110 vstem
          227 703 rmoveto
          -120 -76 -81 -130 -131 76 -81 120 120 75 81 131 130 -75 81 -120 hvcurveto
          -92 vmoveto
          53 32 -45 -74 -74 -32 -45 -53 -53 -32 45 74 74 32 45 53 hvcurveto
          endchar
        </CharString>
</ttFont>
